Bellota-Bold.ufo
<glyph name="exclam" format="2">
	<advance width="274"/>
	<unicode hex="0021"/>
	<outline>
		<contour>
			<point x="107" y="134" type="line"/>
			<point x="180" y="134" type="line"/>
			<point x="189" y="706" type="line"/>
			<point x="98" y="706" type="line"/>
		</contour>
		<component base="period" xOffset="-3" yOffset="-8"/>
	</outline>
</glyph>
<glyph name="quotedbl" format="1">
  <advance width="398"/>
  <unicode hex="0022"/>
  <outline>
    <contour>
      <point x="169" y="477" type="line"/>
      <point x="180" y="686" type="line"/>
      <point x="85" y="686" type="line"/>
      <point x="96" y="477" type="line"/>
    </contour>
    <contour>
      <point x="302" y="478" type="line"/>
      <point x="313" y="687" type="line"/>
      <point x="219" y="687" type="line"/>
      <point x="230" y="478" type="line"/>
    </contour>
  </outline>
</glyph>
<glyph name="numbersign" format="2">
	<advance width="624"/>
	<unicode hex="0023"/>
	<outline>
		<contour>
			<point x="167" y="29" type="line"/>
			<point x="243" y="29" type="line"/>
			<point x="243" y="178" type="line"/>
			<point x="383" y="178" type="line"/>
			<point x="383" y="29" type="line"/>
			<point x="459" y="29" type="line"/>
			<point x="459" y="178" type="line"/>
			<point x="570" y="178" type="line"/>
			<point x="570" y="252" type="line"/>
			<point x="459" y="252" type="line"/>
			<point x="459" y="419" type="line"/>
			<point x="570" y="419" type="line"/>
			<point x="570" y="492" type="line"/>
			<point x="459" y="492" type="line"/>
			<point x="459" y="641" type="line"/>
			<point x="381" y="641" type="line"/>
			<point x="381" y="492" type="line"/>
			<point x="243" y="492" type="line"/>
			<point x="243" y="641" type="line"/>
			<point x="165" y="641" type="line"/>
			<point x="165" y="492" type="line"/>
			<point x="54" y="492" type="line"/>
			<point x="54" y="419" type="line"/>
			<point x="165" y="419" type="line"/>
			<point x="165" y="252" type="line"/>
			<point x="54" y="252" type="line"/>
			<point x="54" y="178" type="line"/>
			<point x="167" y="178" type="line"/>
		</contour>
		<contour>
			<point x="243" y="252" type="line"/>
			<point x="243" y="419" type="line"/>
			<point x="381" y="419" type="line"/>
			<point x="381" y="252" type="line"/>
		</contour>
	</outline>
</glyph>
<glyph name="dollar" format="1">
  <advance width="556"/>
  <unicode hex="0024"/>
  <outline>
    <contour>
      <point x="304" y="-68" type="line"/>
      <point x="304" y="-7" type="line"/>
      <point x="351" y="-2"/>
      <point x="397" y="12"/>
      <point x="432" y="40" type="curve" smooth="yes"/>
      <point x="474" y="73"/>
      <point x="495" y="119"/>
      <point x="495" y="177" type="curve" smooth="yes"/>
      <point x="495" y="235"/>
      <point x="473" y="280"/>
      <point x="430" y="315" type="curve" smooth="yes"/>
      <point x="395" y="342"/>
      <point x="361" y="355"/>
      <point x="304" y="373" type="curve"/>
      <point x="304" y="585" type="line"/>
      <point x="334" y="580"/>
      <point x="350" y="575"/>
      <point x="376" y="563" type="curve" smooth="yes"/>
      <point x="406" y="550"/>
      <point x="430" y="536"/>
      <point x="453" y="521" type="curve"/>
      <point x="497" y="586" type="line"/>
      <point x="472" y="606"/>
      <point x="434" y="626"/>
      <point x="401" y="640" type="curve"/>
      <point x="372" y="651"/>
      <point x="343" y="659"/>
      <point x="304" y="664" type="curve"/>
      <point x="304" y="750" type="line"/>
      <point x="225" y="750" type="line"/>
      <point x="225" y="663" type="line"/>
      <point x="184" y="657"/>
      <point x="142" y="642"/>
      <point x="110" y="612" type="curve" smooth="yes"/>
      <point x="80" y="585"/>
      <point x="63" y="547"/>
      <point x="63" y="499" type="curve" smooth="yes"/>
      <point x="63" y="453"/>
      <point x="79" y="408"/>
      <point x="116" y="373" type="curve" smooth="yes"/>
      <point x="146" y="344"/>
      <point x="182" y="329"/>
      <point x="225" y="315" type="curve"/>
      <point x="225" y="70" type="line"/>
      <point x="168" y="79"/>
      <point x="119" y="103"/>
      <point x="69" y="136" type="curve"/>
      <point x="24" y="71" type="line"/>
      <point x="79" y="26"/>
      <point x="150" y="0"/>
      <point x="225" y="-8" type="curve"/>
      <point x="225" y="-68" type="line"/>
    </contour>
    <contour>
      <point x="304" y="289" type="line"/>
      <point x="330" y="279"/>
      <point x="360" y="265"/>
      <point x="377" y="251" type="curve"/>
      <point x="401" y="233"/>
      <point x="412" y="209"/>
      <point x="412" y="174" type="curve" smooth="yes"/>
      <point x="412" y="146"/>
      <point x="405" y="117"/>
      <point x="377" y="95" type="curve" smooth="yes"/>
      <point x="358" y="80"/>
      <point x="333" y="72"/>
      <point x="304" y="68" type="curve"/>
    </contour>
    <contour>
      <point x="204" y="411"/>
      <point x="186" y="422"/>
      <point x="172" y="436" type="curve" smooth="yes"/>
      <point x="153" y="455"/>
      <point x="146" y="477"/>
      <point x="146" y="502" type="curve" smooth="yes"/>
      <point x="146" y="542"/>
      <point x="167" y="577"/>
      <point x="225" y="588" type="curve"/>
      <point x="225" y="402" type="line"/>
    </contour>
  </outline>
</glyph>
<glyph name="ampersand" format="1">
  <advance width="647"/>
  <unicode hex="0026"/>
  <outline>
    <contour>
      <point x="324" y="-10"/>
      <point x="400" y="18"/>
      <point x="453" y="71" type="curve"/>
      <point x="540" y="-8" type="line"/>
      <point x="590" y="49" type="line"/>
      <point x="500" y="133" type="line"/>
      <point x="531" y="185"/>
      <point x="549" y="253"/>
      <point x="549" y="317" type="curve" smooth="yes"/>
      <point x="549" y="369" type="line"/>
      <point x="474" y="369" type="line"/>
      <point x="474" y="319" type="line" smooth="yes"/>
      <point x="474" y="276"/>
      <point x="463" y="223"/>
      <point x="444" y="184" type="curve"/>
      <point x="226" y="390" type="line"/>
      <point x="205" y="414"/>
      <point x="187" y="439"/>
      <point x="187" y="479" type="curve" smooth="yes"/>
      <point x="187" y="535"/>
      <point x="223" y="561"/>
      <point x="272" y="561" type="curve" smooth="yes"/>
      <point x="308" y="561"/>
      <point x="344" y="547"/>
      <point x="369" y="491" type="curve"/>
      <point x="424" y="539" type="line"/>
      <point x="411" y="587"/>
      <point x="351" y="638"/>
      <point x="275" y="638" type="curve" smooth="yes"/>
      <point x="200" y="638"/>
      <point x="100" y="587"/>
      <point x="100" y="472" type="curve" smooth="yes"/>
      <point x="100" y="427"/>
      <point x="115" y="394"/>
      <point x="143" y="356" type="curve"/>
      <point x="91" y="324"/>
      <point x="42" y="262"/>
      <point x="42" y="175" type="curve" smooth="yes"/>
      <point x="42" y="62"/>
      <point x="124" y="-10"/>
      <point x="247" y="-10" type="curve" smooth="yes"/>
    </contour>
    <contour>
      <point x="169" y="64"/>
      <point x="121" y="105"/>
      <point x="121" y="176" type="curve" smooth="yes"/>
      <point x="121" y="230"/>
      <point x="148" y="277"/>
      <point x="198" y="302" type="curve"/>
      <point x="398" y="121" type="line"/>
      <point x="358" y="82"/>
      <point x="302" y="64"/>
      <point x="249" y="64" type="curve" smooth="yes"/>
    </contour>
  </outline>
</glyph>
<glyph name="quotesingle" format="2">
	<advance width="269"/>
	<unicode hex="0027"/>
	<outline>
		<contour>
			<point x="87" y="686" type="line"/>
			<point x="98" y="477" type="line"/>
			<point x="171" y="477" type="line"/>
			<point x="182" y="686" type="line"/>
		</contour>
	</outline>
</glyph>
<glyph name="parenleft" format="1">
  <advance width="389"/>
  <unicode hex="0028"/>
  <outline>
    <contour>
      <point x="330" y="-99" type="line"/>
      <point x="260" y="-61"/>
      <point x="205" y="3"/>
      <point x="169" y="70" type="curve" smooth="yes"/>
      <point x="135" y="132"/>
      <point x="110" y="214"/>
      <point x="110" y="296" type="curve" smooth="yes"/>
      <point x="110" y="374"/>
      <point x="133" y="456"/>
      <point x="169" y="524" type="curve" smooth="yes"/>
      <point x="206" y="593"/>
      <point x="263" y="658"/>
      <point x="330" y="692" type="curve"/>
      <point x="294" y="754" type="line"/>
      <point x="203" y="708"/>
      <point x="133" y="634"/>
      <point x="90" y="554" type="curve" smooth="yes"/>
      <point x="48" y="475"/>
      <point x="28" y="385"/>
      <point x="28" y="295" type="curve" smooth="yes"/>
      <point x="28" y="206"/>
      <point x="48" y="119"/>
      <point x="90" y="41" type="curve" smooth="yes"/>
      <point x="134" y="-41"/>
      <point x="201" y="-112"/>
      <point x="294" y="-161" type="curve"/>
    </contour>
  </outline>
</glyph>
<glyph name="asterisk" format="2">
	<advance width="416"/>
	<unicode hex="002A"/>
	<outline>
		<contour>
			<point x="84" y="448" type="line"/>
			<point x="151" y="398" type="line"/>
			<point x="208" y="486" type="line"/>
			<point x="264" y="400" type="line"/>
			<point x="331" y="447" type="line"/>
			<point x="270" y="522" type="line"/>
			<point x="365" y="548" type="line"/>
			<point x="341" y="627" type="line"/>
			<point x="243" y="588" type="line"/>
			<point x="249" y="696" type="line"/>
			<point x="166" y="696" type="line"/>
			<point x="172" y="589" type="line"/>
			<point x="75" y="627" type="line"/>
			<point x="49" y="548" type="line"/>
			<point x="146" y="523" type="line"/>
		</contour>
	</outline>
</glyph>
<glyph name="plus" format="2">
	<advance width="488"/>
	<unicode hex="002B"/>
	<outline>
		<contour>
			<point x="205" y="103" type="line"/>
			<point x="283" y="103" type="line"/>
			<point x="283" y="259" type="line"/>
			<point x="436" y="259" type="line"/>
			<point x="436" y="332" type="line"/>
			<point x="283" y="332" type="line"/>
			<point x="283" y="487" type="line"/>
			<point x="205" y="487" type="line"/>
			<point x="205" y="332" type="line"/>
			<point x="52" y="332" type="line"/>
			<point x="52" y="259" type="line"/>
			<point x="205" y="259" type="line"/>
		</contour>
	</outline>
</glyph>
<glyph name="comma" format="1">
  <advance width="246"/>
  <unicode hex="002C"/>
  <outline>
    <contour>
      <point x="135" y="-81"/>
      <point x="156" y="-58"/>
      <point x="166" y="-34" type="curve"/>
      <point x="174" y="-12"/>
      <point x="178" y="14"/>
      <point x="178" y="42" type="curve" smooth="yes"/>
      <point x="178" y="62" type="line" smooth="yes"/>
      <point x="178" y="80"/>
      <point x="163" y="105"/>
      <point x="135" y="105" type="curve" smooth="yes"/>
      <point x="111" y="105"/>
      <point x="92" y="86"/>
      <point x="92" y="62" type="curve" smooth="yes"/>
      <point x="92" y="61" type="line"/>
      <point x="93" y="48"/>
      <point x="93" y="37"/>
      <point x="93" y="29" type="curve" smooth="yes"/>
      <point x="93" y="9"/>
      <point x="91" y="-1"/>
      <point x="88" y="-12" type="curve"/>
      <point x="83" y="-25"/>
      <point x="74" y="-39"/>
      <point x="56" y="-54" type="curve"/>
      <point x="105" y="-101" type="line"/>
    </contour>
  </outline>
</glyph>
<glyph name="hyphen" format="1">
  <advance width="421"/>
  <unicode hex="002D"/>
  <outline>
    <contour>
      <point x="366" y="268" type="line"/>
      <point x="366" y="347" type="line"/>
      <point x="55" y="347" type="line"/>
      <point x="55" y="268" type="line"/>
    </contour>
  </outline>
</glyph>
<glyph name="period" format="1">
  <advance width="230"/>
  <unicode hex="002E"/>
  <outline>
    <contour>
      <point x="129" y="-4"/>
      <point x="155" y="21"/>
      <point x="155" y="48" type="curve" smooth="yes"/>
      <point x="155" y="76"/>
      <point x="129" y="101"/>
      <point x="101" y="101" type="curve" smooth="yes"/>
      <point x="74" y="101"/>
      <point x="49" y="76"/>
      <point x="49" y="48" type="curve" smooth="yes"/>
      <point x="49" y="21"/>
      <point x="74" y="-4"/>
      <point x="101" y="-4" type="curve" smooth="yes"/>
    </contour>
  </outline>
</glyph>
<glyph name="slash" format="2">
	<advance width="333"/>
	<unicode hex="002F"/>
	<outline>
		<contour>
			<point x="233" y="750" type="line"/>
			<point x="14" y="-68" type="line"/>
			<point x="101" y="-68" type="line"/>
			<point x="318" y="750" type="line"/>
		</contour>
	</outline>
</glyph>
<glyph name="zero" format="2">
	<advance width="653"/>
	<unicode hex="0030"/>
	<outline>
		<contour>
			<point x="327" y="-9" type="curve"/>
			<point x="327" y="-9" type="line"/>
			<point x="500" y="-9"/>
			<point x="601" y="149"/>
			<point x="601" y="321" type="curve"/>
			<point x="601" y="492"/>
			<point x="502" y="657"/>
			<point x="327" y="657" type="curve"/>
			<point x="152" y="657"/>
			<point x="52" y="495"/>
			<point x="52" y="324" type="curve"/>
			<point x="52" y="156"/>
			<point x="149" y="-9"/>
		</contour>
		<contour>
			<point x="328" y="66" type="curve"/>
			<point x="328" y="66" type="line"/>
			<point x="201" y="66"/>
			<point x="134" y="193"/>
			<point x="134" y="324" type="curve"/>
			<point x="134" y="455"/>
			<point x="200" y="581"/>
			<point x="327" y="581" type="curve"/>
			<point x="451" y="581"/>
			<point x="519" y="459"/>
			<point x="519" y="325" type="curve"/>
			<point x="519" y="197"/>
			<point x="457" y="66"/>
		</contour>
	</outline>
</glyph>
<glyph name="one" format="1">
  <advance width="382"/>
  <unicode hex="0031"/>
  <outline>
    <contour>
      <point x="296" y="-1" type="line"/>
      <point x="296" y="672" type="line"/>
      <point x="273" y="672" type="line"/>
      <point x="170" y="602"/>
      <point x="117" y="566"/>
      <point x="68" y="566" type="curve" smooth="yes"/>
      <point x="62" y="566"/>
      <point x="55" y="567"/>
      <point x="49" y="568" type="curve"/>
      <point x="68" y="493" type="line"/>
      <point x="125" y="491"/>
      <point x="171" y="510"/>
      <point x="214" y="543" type="curve"/>
      <point x="214" y="-1" type="line"/>
    </contour>
  </outline>
</glyph>
<glyph name="two" format="2">
	<advance width="536"/>
	<unicode hex="0032"/>
	<outline>
		<contour>
			<point x="47" y="25" type="curve"/>
			<point x="47" y="-1" type="line"/>
			<point x="494" y="-1" type="line"/>
			<point x="494" y="75" type="line"/>
			<point x="138" y="75" type="line"/>
			<point x="155" y="122"/>
			<point x="189" y="153"/>
			<point x="232" y="189" type="curve"/>
			<point x="342" y="279"/>
			<point x="462" y="330"/>
			<point x="462" y="476" type="curve"/>
			<point x="462" y="585"/>
			<point x="389" y="658"/>
			<point x="264" y="658" type="curve"/>
			<point x="155" y="658"/>
			<point x="79" y="602"/>
			<point x="45" y="497" type="curve"/>
			<point x="114" y="461" type="line"/>
			<point x="130" y="537"/>
			<point x="185" y="584"/>
			<point x="263" y="584" type="curve"/>
			<point x="336" y="584"/>
			<point x="380" y="541"/>
			<point x="380" y="477" type="curve"/>
			<point x="380" y="386"/>
			<point x="291" y="335"/>
			<point x="222" y="283" type="curve"/>
			<point x="101" y="192"/>
			<point x="47" y="121"/>
		</contour>
	</outline>
</glyph>
<glyph name="three" format="1">
  <advance width="572"/>
  <unicode hex="0033"/>
  <outline>
    <contour>
      <point x="389" y="-12"/>
      <point x="502" y="58"/>
      <point x="502" y="185" type="curve" smooth="yes"/>
      <point x="502" y="255"/>
      <point x="466" y="325"/>
      <point x="412" y="359" type="curve"/>
      <point x="404" y="365"/>
      <point x="395" y="370"/>
      <point x="386" y="374" type="curve"/>
      <point x="435" y="402"/>
      <point x="467" y="460"/>
      <point x="467" y="516" type="curve" smooth="yes"/>
      <point x="467" y="611"/>
      <point x="374" y="675"/>
      <point x="264" y="675" type="curve" smooth="yes"/>
      <point x="198" y="675"/>
      <point x="156" y="662"/>
      <point x="85" y="609" type="curve"/>
      <point x="125" y="544" type="line"/>
      <point x="176" y="586"/>
      <point x="219" y="597"/>
      <point x="265" y="597" type="curve" smooth="yes"/>
      <point x="325" y="597"/>
      <point x="381" y="564"/>
      <point x="381" y="509" type="curve" smooth="yes"/>
      <point x="381" y="452"/>
      <point x="324" y="403"/>
      <point x="269" y="403" type="curve" smooth="yes"/>
      <point x="152" y="403" type="line"/>
      <point x="152" y="325" type="line"/>
      <point x="270" y="325" type="line"/>
      <point x="342" y="322"/>
      <point x="417" y="279"/>
      <point x="417" y="193" type="curve" smooth="yes"/>
      <point x="417" y="111"/>
      <point x="346" y="66"/>
      <point x="256" y="66" type="curve" smooth="yes"/>
      <point x="176" y="66"/>
      <point x="130" y="101"/>
      <point x="77" y="153" type="curve"/>
      <point x="29" y="91" type="line"/>
      <point x="75" y="39"/>
      <point x="155" y="-12"/>
      <point x="268" y="-12" type="curve" smooth="yes"/>
    </contour>
  </outline>
</glyph>
<glyph name="four" format="1">
  <advance width="551"/>
  <unicode hex="0034"/>
  <outline>
    <contour>
      <point x="415" y="-3" type="line"/>
      <point x="415" y="122" type="line"/>
      <point x="496" y="122" type="line"/>
      <point x="496" y="200" type="line"/>
      <point x="415" y="200" type="line"/>
      <point x="415" y="416" type="line"/>
      <point x="331" y="416" type="line"/>
      <point x="331" y="200" type="line"/>
      <point x="121" y="200" type="line"/>
      <point x="315" y="663" type="line"/>
      <point x="225" y="663" type="line"/>
      <point x="23" y="184" type="line"/>
      <point x="23" y="122" type="line"/>
      <point x="331" y="122" type="line"/>
      <point x="331" y="-3" type="line"/>
    </contour>
  </outline>
</glyph>
<glyph name="five" format="2">
	<advance width="509"/>
	<unicode hex="0035"/>
	<outline>
		<contour>
			<point x="244" y="-6" type="curve" smooth="yes"/>
			<point x="371" y="-6"/>
			<point x="474" y="90"/>
			<point x="474" y="227" type="curve" smooth="yes"/>
			<point x="474" y="364"/>
			<point x="370" y="450"/>
			<point x="223" y="450" type="curve" smooth="yes"/>
			<point x="202" y="450"/>
			<point x="183" y="448"/>
			<point x="149" y="443" type="curve"/>
			<point x="149" y="574" type="line"/>
			<point x="414" y="578" type="line"/>
			<point x="414" y="656" type="line"/>
			<point x="66" y="649" type="line"/>
			<point x="66" y="362" type="line"/>
			<point x="81" y="351" type="line"/>
			<point x="118" y="367"/>
			<point x="161" y="372"/>
			<point x="207" y="372" type="curve" smooth="yes"/>
			<point x="319" y="372"/>
			<point x="393" y="341"/>
			<point x="393" y="234" type="curve" smooth="yes"/>
			<point x="393" y="142"/>
			<point x="340" y="71"/>
			<point x="235" y="71" type="curve" smooth="yes"/>
			<point x="172" y="71"/>
			<point x="131" y="96"/>
			<point x="63" y="146" type="curve"/>
			<point x="46" y="72" type="line"/>
			<point x="68" y="47"/>
			<point x="149" y="-6"/>
		</contour>
	</outline>
</glyph>
<glyph name="six" format="2">
	<advance width="575"/>
	<unicode hex="0036"/>
	<outline>
		<contour>
			<point x="296" y="-18" type="curve"/>
			<point x="296" y="-18" type="line"/>
			<point x="427" y="-18"/>
			<point x="533" y="84"/>
			<point x="533" y="211" type="curve"/>
			<point x="533" y="336"/>
			<point x="427" y="442"/>
			<point x="300" y="442" type="curve"/>
			<point x="241" y="442"/>
			<point x="171" y="401"/>
			<point x="141" y="348" type="curve"/>
			<point x="160" y="417"/>
			<point x="209" y="483"/>
			<point x="269" y="522" type="curve"/>
			<point x="326" y="558"/>
			<point x="394" y="577"/>
			<point x="457" y="574" type="curve"/>
			<point x="457" y="648" type="line"/>
			<point x="377" y="651"/>
			<point x="297" y="630"/>
			<point x="229" y="584" type="curve"/>
			<point x="113" y="507"/>
			<point x="49" y="392"/>
			<point x="49" y="259" type="curve"/>
			<point x="49" y="94"/>
			<point x="149" y="-18"/>
		</contour>
		<contour>
			<point x="297" y="58" type="curve"/>
			<point x="297" y="58" type="line"/>
			<point x="213" y="58"/>
			<point x="142" y="128"/>
			<point x="142" y="210" type="curve"/>
			<point x="142" y="297"/>
			<point x="211" y="366"/>
			<point x="299" y="366" type="curve"/>
			<point x="381" y="366"/>
			<point x="451" y="296"/>
			<point x="451" y="212" type="curve"/>
			<point x="451" y="128"/>
			<point x="382" y="58"/>
		</contour>
	</outline>
</glyph>
<glyph name="seven" format="2">
	<advance width="474"/>
	<unicode hex="0037"/>
	<outline>
		<contour>
			<point x="113" y="-1" type="line"/>
			<point x="200" y="-1" type="line"/>
			<point x="451" y="635" type="line"/>
			<point x="451" y="656" type="line"/>
			<point x="23" y="651" type="line"/>
			<point x="23" y="574" type="line"/>
			<point x="345" y="577" type="line"/>
		</contour>
	</outline>
</glyph>
<glyph name="eight" format="1">
  <advance width="569"/>
  <unicode hex="0038"/>
  <outline>
    <contour>
      <point x="400" y="-16"/>
      <point x="499" y="59"/>
      <point x="499" y="183" type="curve" smooth="yes"/>
      <point x="499" y="270"/>
      <point x="451" y="330"/>
      <point x="386" y="363" type="curve"/>
      <point x="423" y="391"/>
      <point x="463" y="437"/>
      <point x="463" y="502" type="curve" smooth="yes"/>
      <point x="463" y="596"/>
      <point x="375" y="669"/>
      <point x="268" y="669" type="curve" smooth="yes"/>
      <point x="162" y="669"/>
      <point x="77" y="598"/>
      <point x="77" y="498" type="curve" smooth="yes"/>
      <point x="77" y="446"/>
      <point x="101" y="402"/>
      <point x="147" y="371" type="curve"/>
      <point x="90" y="327"/>
      <point x="42" y="271"/>
      <point x="42" y="185" type="curve" smooth="yes"/>
      <point x="42" y="62"/>
      <point x="139" y="-16"/>
      <point x="271" y="-16" type="curve" smooth="yes"/>
    </contour>
    <contour>
      <point x="180" y="60"/>
      <point x="126" y="108"/>
      <point x="126" y="188" type="curve" smooth="yes"/>
      <point x="126" y="243"/>
      <point x="149" y="273"/>
      <point x="224" y="336" type="curve"/>
      <point x="240" y="332" type="line" smooth="yes"/>
      <point x="339" y="305"/>
      <point x="416" y="279"/>
      <point x="416" y="187" type="curve" smooth="yes"/>
      <point x="416" y="110"/>
      <point x="363" y="60"/>
      <point x="271" y="60" type="curve" smooth="yes"/>
    </contour>
    <contour>
      <point x="299" y="396" type="line"/>
      <point x="235" y="417" type="line" smooth="yes"/>
      <point x="191" y="431"/>
      <point x="161" y="451"/>
      <point x="161" y="498" type="curve" smooth="yes"/>
      <point x="161" y="552"/>
      <point x="205" y="592"/>
      <point x="270" y="592" type="curve" smooth="yes"/>
      <point x="335" y="592"/>
      <point x="380" y="552"/>
      <point x="380" y="498" type="curve" smooth="yes"/>
      <point x="380" y="452"/>
      <point x="349" y="425"/>
      <point x="307" y="394" type="curve"/>
    </contour>
  </outline>
</glyph>
<glyph name="nine" format="2">
	<advance width="551"/>
	<unicode hex="0039"/>
	<outline>
		<contour>
			<point x="107" y="-36" type="line"/>
			<point x="227" y="-40"/>
			<point x="331" y="9"/>
			<point x="404" y="90" type="curve" smooth="yes"/>
			<point x="468" y="161"/>
			<point x="512" y="262"/>
			<point x="512" y="369" type="curve" smooth="yes"/>
			<point x="512" y="526"/>
			<point x="415" y="652"/>
			<point x="270" y="652" type="curve" smooth="yes"/>
			<point x="137" y="652"/>
			<point x="32" y="545"/>
			<point x="32" y="421" type="curve" smooth="yes"/>
			<point x="32" y="296"/>
			<point x="140" y="187"/>
			<point x="260" y="187" type="curve" smooth="yes"/>
			<point x="315" y="187"/>
			<point x="368" y="210"/>
			<point x="414" y="246" type="curve"/>
			<point x="414" y="247" type="line"/>
			<point x="390" y="192"/>
			<point x="356" y="142"/>
			<point x="307" y="104" type="curve" smooth="yes"/>
			<point x="247" y="56"/>
			<point x="178" y="36"/>
			<point x="108" y="38" type="curve"/>
		</contour>
		<contour>
			<point x="266" y="261" type="curve" smooth="yes"/>
			<point x="176" y="261"/>
			<point x="107" y="335"/>
			<point x="107" y="422" type="curve" smooth="yes"/>
			<point x="107" y="513"/>
			<point x="183" y="578"/>
			<point x="267" y="578" type="curve" smooth="yes"/>
			<point x="355" y="578"/>
			<point x="428" y="508"/>
			<point x="428" y="423" type="curve" smooth="yes"/>
			<point x="428" y="340"/>
			<point x="359" y="261"/>
		</contour>
	</outline>
</glyph>
<glyph name="less" format="1">
  <advance width="426"/>
  <unicode hex="003C"/>
  <outline>
    <contour>
      <point x="368" y="139" type="line"/>
      <point x="180" y="270" type="line"/>
      <point x="366" y="399" type="line"/>
      <point x="322" y="464" type="line"/>
      <point x="40" y="268" type="line"/>
      <point x="322" y="73" type="line"/>
    </contour>
  </outline>
</glyph>
<glyph name="equal" format="2">
	<advance width="596"/>
	<unicode hex="003D"/>
	<outline>
		<contour>
			<point x="116" y="410" type="line"/>
			<point x="116" y="336" type="line"/>
			<point x="480" y="336" type="line"/>
			<point x="480" y="410" type="line"/>
		</contour>
		<contour>
			<point x="116" y="255" type="line"/>
			<point x="116" y="181" type="line"/>
			<point x="480" y="181" type="line"/>
			<point x="480" y="255" type="line"/>
		</contour>
	</outline>
</glyph>
<glyph name="greater" format="1">
  <advance width="407"/>
  <unicode hex="003E"/>
  <outline>
    <contour>
      <point x="372" y="268" type="line"/>
      <point x="91" y="464" type="line"/>
      <point x="44" y="397" type="line"/>
      <point x="232" y="266" type="line"/>
      <point x="46" y="137" type="line"/>
      <point x="91" y="72" type="line"/>
    </contour>
  </outline>
</glyph>
<glyph name="question" format="2">
	<advance width="472"/>
	<unicode hex="003F"/>
	<outline>
		<contour>
			<point x="115" y="135" type="curve"/>
			<point x="115" y="135" type="line"/>
			<point x="189" y="150" type="line"/>
			<point x="174" y="196"/>
			<point x="184" y="237"/>
			<point x="217" y="262" type="curve"/>
			<point x="232" y="273"/>
			<point x="256" y="289"/>
			<point x="278" y="301" type="curve"/>
			<point x="382" y="357"/>
			<point x="432" y="415"/>
			<point x="435" y="494" type="curve"/>
			<point x="439" y="610"/>
			<point x="347" y="709"/>
			<point x="233" y="712" type="curve"/>
			<point x="120" y="715"/>
			<point x="34" y="657"/>
			<point x="31" y="575" type="curve"/>
			<point x="29" y="526"/>
			<point x="62" y="487"/>
			<point x="109" y="481" type="curve"/>
			<point x="126" y="549" type="line"/>
			<point x="115" y="551"/>
			<point x="110" y="561"/>
			<point x="111" y="572" type="curve"/>
			<point x="113" y="605"/>
			<point x="162" y="637"/>
			<point x="226" y="636" type="curve"/>
			<point x="301" y="635"/>
			<point x="355" y="577"/>
			<point x="353" y="502" type="curve"/>
			<point x="351" y="449"/>
			<point x="314" y="404"/>
			<point x="238" y="363" type="curve"/>
			<point x="207" y="346"/>
			<point x="175" y="333"/>
			<point x="148" y="306" type="curve"/>
			<point x="110" y="267"/>
			<point x="99" y="210"/>
		</contour>
		<component base="period" xOffset="39" yOffset="-9"/>
	</outline>
</glyph>
<glyph name="at" format="2">
	<advance width="747"/>
	<unicode hex="0040"/>
	<outline>
		<contour>
			<point x="380" y="-59" type="curve"/>
			<point x="380" y="-59" type="line"/>
			<point x="430" y="-59"/>
			<point x="515" y="-50"/>
			<point x="595" y="-6" type="curve"/>
			<point x="572" y="64" type="line"/>
			<point x="532" y="34"/>
			<point x="459" y="15"/>
			<point x="388" y="15" type="curve"/>
			<point x="240" y="15"/>
			<point x="156" y="102"/>
			<point x="156" y="240" type="curve"/>
			<point x="156" y="379"/>
			<point x="238" y="482"/>
			<point x="377" y="482" type="curve"/>
			<point x="507" y="482"/>
			<point x="596" y="395"/>
			<point x="596" y="268" type="curve"/>
			<point x="596" y="203"/>
			<point x="572" y="155"/>
			<point x="529" y="155" type="curve"/>
			<point x="504" y="155"/>
			<point x="487" y="171"/>
			<point x="481" y="202" type="curve"/>
			<point x="481" y="414" type="line"/>
			<point x="424" y="414" type="line"/>
			<point x="414" y="415"/>
			<point x="398" y="416"/>
			<point x="394" y="416" type="curve"/>
			<point x="389" y="416"/>
			<point x="374" y="419"/>
			<point x="361" y="419" type="curve"/>
			<point x="293" y="419"/>
			<point x="215" y="359"/>
			<point x="215" y="258" type="curve"/>
			<point x="215" y="165"/>
			<point x="274" y="97"/>
			<point x="348" y="97" type="curve"/>
			<point x="377" y="97"/>
			<point x="419" y="110"/>
			<point x="434" y="141" type="curve"/>
			<point x="443" y="109"/>
			<point x="493" y="84"/>
			<point x="530" y="84" type="curve"/>
			<point x="620" y="84"/>
			<point x="676" y="156"/>
			<point x="676" y="269" type="curve"/>
			<point x="676" y="432"/>
			<point x="553" y="556"/>
			<point x="376" y="556" type="curve"/>
			<point x="197" y="556"/>
			<point x="76" y="428"/>
			<point x="76" y="241" type="curve"/>
			<point x="76" y="50"/>
			<point x="206" y="-59"/>
		</contour>
		<contour>
			<point x="347" y="171" type="curve"/>
			<point x="347" y="171" type="line"/>
			<point x="304" y="171"/>
			<point x="291" y="216"/>
			<point x="291" y="257" type="curve"/>
			<point x="291" y="308"/>
			<point x="318" y="345"/>
			<point x="363" y="345" type="curve"/>
			<point x="378" y="345"/>
			<point x="392" y="345"/>
			<point x="405" y="345" type="curve"/>
			<point x="405" y="225" type="line"/>
			<point x="403" y="221"/>
			<point x="404" y="217"/>
			<point x="400" y="210" type="curve"/>
			<point x="391" y="192"/>
			<point x="375" y="171"/>
		</contour>
	</outline>
</glyph>
<glyph name="A" format="2">
	<advance width="754"/>
	<unicode hex="0041"/>
	<anchor x="712" y="11" name="ogonek"/>
	<anchor x="416" y="11" name="bottom"/>
	<anchor x="416" y="684" name="top"/>
	<outline>
		<contour>
			<point x="122" y="-4" type="curve" smooth="yes"/>
			<point x="158" y="-4"/>
			<point x="197" y="18"/>
			<point x="212" y="55" type="curve" smooth="yes"/>
			<point x="280" y="220" type="line"/>
			<point x="551" y="220" type="line"/>
			<point x="643" y="-1" type="line"/>
			<point x="730" y="-1" type="line"/>
			<point x="432" y="688" type="line"/>
			<point x="398" y="688" type="line"/>
			<point x="139" y="88" type="line" smooth="yes"/>
			<point x="135" y="79"/>
			<point x="132" y="76"/>
			<point x="122" y="76" type="curve" smooth="yes"/>
			<point x="106" y="76"/>
			<point x="100" y="87"/>
			<point x="98" y="104" type="curve"/>
			<point x="21" y="89" type="line"/>
			<point x="23" y="37"/>
			<point x="72" y="-4"/>
		</contour>
		<contour>
			<point x="310" y="291" type="line"/>
			<point x="426" y="563" type="line"/>
			<point x="405" y="560" type="line"/>
			<point x="517" y="294" type="line"/>
		</contour>
	</outline>
</glyph>
<glyph name="B" format="2">
	<advance width="674"/>
	<unicode hex="0042"/>
	<anchor x="329" y="684" name="top"/>
	<anchor x="329" y="0" name="bottom"/>
	<outline>
		<contour>
			<point x="156" y="619" type="curve"/>
			<point x="156" y="2" type="line"/>
			<point x="218" y="-5" type="line" smooth="yes"/>
			<point x="278" y="-12"/>
			<point x="335" y="-10"/>
			<point x="352" y="-10" type="curve"/>
			<point x="505" y="-10"/>
			<point x="619" y="50"/>
			<point x="619" y="188" type="curve"/>
			<point x="619" y="269"/>
			<point x="589" y="318"/>
			<point x="552" y="338" type="curve"/>
			<point x="521" y="355"/>
			<point x="490" y="364"/>
			<point x="474" y="364" type="curve"/>
			<point x="488" y="367"/>
			<point x="499" y="370"/>
			<point x="509" y="375" type="curve"/>
			<point x="558" y="399"/>
			<point x="589" y="446"/>
			<point x="589" y="511" type="curve"/>
			<point x="589" y="620"/>
			<point x="499" y="697"/>
			<point x="382" y="697" type="curve"/>
			<point x="157" y="697" type="line"/>
			<point x="117" y="697"/>
			<point x="88" y="687"/>
			<point x="69" y="670" type="curve"/>
			<point x="42" y="647"/>
			<point x="32" y="616"/>
			<point x="32" y="578" type="curve"/>
			<point x="107" y="577" type="line"/>
			<point x="108" y="589"/>
			<point x="111" y="603"/>
			<point x="120" y="610" type="curve"/>
			<point x="129" y="618"/>
			<point x="141" y="619"/>
		</contour>
		<contour>
			<point x="356" y="66" type="curve"/>
			<point x="356" y="66" type="line"/>
			<point x="338" y="66"/>
			<point x="307" y="66"/>
			<point x="238" y="71" type="curve"/>
			<point x="238" y="621" type="line"/>
			<point x="395" y="621" type="line" smooth="yes"/>
			<point x="462" y="621"/>
			<point x="508" y="580"/>
			<point x="508" y="511" type="curve"/>
			<point x="508" y="475"/>
			<point x="497" y="450"/>
			<point x="474" y="430" type="curve"/>
			<point x="452" y="411"/>
			<point x="420" y="400"/>
			<point x="381" y="400" type="curve"/>
			<point x="295" y="399" type="line"/>
			<point x="294" y="325" type="line"/>
			<point x="388" y="325" type="line" smooth="yes"/>
			<point x="471" y="325"/>
			<point x="539" y="276"/>
			<point x="539" y="189" type="curve"/>
			<point x="539" y="99"/>
			<point x="468" y="66"/>
		</contour>
	</outline>
</glyph>
<glyph name="C" format="2">
	<advance width="720"/>
	<unicode hex="0043"/>
	<anchor x="387" y="703" name="top"/>
	<anchor x="387" y="-9" name="bottom"/>
	<outline>
		<contour>
			<point x="404" y="-22" type="curve"/>
			<point x="404" y="-22" type="line"/>
			<point x="546" y="-19"/>
			<point x="647" y="56"/>
			<point x="689" y="146" type="curve"/>
			<point x="621" y="178" type="line"/>
			<point x="586" y="101"/>
			<point x="495" y="52"/>
			<point x="401" y="52" type="curve"/>
			<point x="250" y="52"/>
			<point x="135" y="178"/>
			<point x="135" y="339" type="curve"/>
			<point x="135" y="507"/>
			<point x="262" y="630"/>
			<point x="392" y="630" type="curve"/>
			<point x="459" y="630"/>
			<point x="552" y="601"/>
			<point x="552" y="541" type="curve"/>
			<point x="552" y="524"/>
			<point x="542" y="511"/>
			<point x="530" y="511" type="curve"/>
			<point x="524" y="511"/>
			<point x="516" y="515"/>
			<point x="509" y="525" type="curve"/>
			<point x="444" y="487" type="line"/>
			<point x="466" y="452"/>
			<point x="498" y="436"/>
			<point x="529" y="436" type="curve"/>
			<point x="579" y="436"/>
			<point x="626" y="475"/>
			<point x="627" y="539" type="curve"/>
			<point x="628" y="637"/>
			<point x="522" y="704"/>
			<point x="398" y="704" type="curve"/>
			<point x="200" y="704"/>
			<point x="53" y="537"/>
			<point x="53" y="339" type="curve"/>
			<point x="53" y="150"/>
			<point x="189" y="-27"/>
		</contour>
	</outline>
</glyph>
<glyph name="D" format="1">
  <advance width="811"/>
  <unicode hex="0044"/>
  <outline>
    <contour>
      <point x="585" y="-9"/>
      <point x="739" y="95"/>
      <point x="739" y="330" type="curve" smooth="yes"/>
      <point x="739" y="538"/>
      <point x="617" y="674"/>
      <point x="420" y="691" type="curve"/>
      <point x="129" y="692" type="line" smooth="yes"/>
      <point x="98" y="692"/>
      <point x="69" y="677"/>
      <point x="50" y="659" type="curve" smooth="yes"/>
      <point x="23" y="632"/>
      <point x="15" y="598"/>
      <point x="17" y="567" type="curve"/>
      <point x="83" y="567" type="line"/>
      <point x="95" y="579" type="line"/>
      <point x="95" y="584"/>
      <point x="95" y="594"/>
      <point x="104" y="602" type="curve"/>
      <point x="111" y="610"/>
      <point x="123" y="613"/>
      <point x="138" y="614" type="curve"/>
      <point x="138" y="1" type="line"/>
      <point x="167" y="-3" type="line"/>
      <point x="168" y="-3" type="line"/>
      <point x="195" y="-5" type="line" smooth="yes"/>
      <point x="205" y="-6"/>
      <point x="258" y="-9"/>
      <point x="306" y="-9" type="curve" smooth="yes"/>
    </contour>
    <contour>
      <point x="345" y="66"/>
      <point x="257" y="69"/>
      <point x="221" y="71" type="curve"/>
      <point x="221" y="614" type="line"/>
      <point x="409" y="614" type="line"/>
      <point x="561" y="607"/>
      <point x="657" y="501"/>
      <point x="657" y="339" type="curve" smooth="yes"/>
      <point x="657" y="163"/>
      <point x="544" y="66"/>
      <point x="375" y="66" type="curve" smooth="yes"/>
    </contour>
    <contour>
      <point x="406" y="11" type="move" name="center"/>
    </contour>
    <contour>
      <point x="406" y="675" type="move" name="top"/>
    </contour>
  </outline>
</glyph>
<glyph name="E" format="2">
	<advance width="635"/>
	<unicode hex="0045"/>
	<anchor x="594" y="-1" name="ogonek"/>
	<anchor x="371" y="11" name="bottom"/>
	<anchor x="361" y="684" name="top"/>
	<outline>
		<contour>
			<point x="136" y="-1" type="line"/>
			<point x="594" y="-1" type="line"/>
			<point x="594" y="78" type="line"/>
			<point x="219" y="78" type="line"/>
			<point x="219" y="322" type="line"/>
			<point x="478" y="322" type="line"/>
			<point x="478" y="401" type="line"/>
			<point x="219" y="401" type="line"/>
			<point x="219" y="609" type="line"/>
			<point x="594" y="609" type="line"/>
			<point x="594" y="686" type="line"/>
			<point x="135" y="686" type="line" smooth="yes"/>
			<point x="78" y="686"/>
			<point x="24" y="637"/>
			<point x="24" y="574" type="curve" smooth="yes"/>
			<point x="24" y="569"/>
			<point x="25" y="565"/>
			<point x="25" y="561" type="curve"/>
			<point x="103" y="561" type="line"/>
			<point x="102" y="565"/>
			<point x="101" y="569"/>
			<point x="101" y="573" type="curve" smooth="yes"/>
			<point x="101" y="588"/>
			<point x="113" y="608"/>
			<point x="136" y="608" type="curve"/>
		</contour>
	</outline>
</glyph>
<glyph name="F" format="1">
  <advance width="620"/>
  <unicode hex="0046"/>
  <outline>
    <contour>
      <point x="219" y="-1" type="line"/>
      <point x="219" y="322" type="line"/>
      <point x="478" y="322" type="line"/>
      <point x="478" y="400" type="line"/>
      <point x="219" y="400" type="line"/>
      <point x="219" y="608" type="line"/>
      <point x="594" y="608" type="line"/>
      <point x="594" y="685" type="line"/>
      <point x="135" y="685" type="line" smooth="yes"/>
      <point x="105" y="685"/>
      <point x="77" y="672"/>
      <point x="56" y="651" type="curve" smooth="yes"/>
      <point x="37" y="631"/>
      <point x="24" y="603"/>
      <point x="24" y="573" type="curve" smooth="yes"/>
      <point x="24" y="568"/>
      <point x="25" y="564"/>
      <point x="25" y="560" type="curve"/>
      <point x="103" y="560" type="line"/>
      <point x="102" y="564"/>
      <point x="101" y="568"/>
      <point x="101" y="572" type="curve" smooth="yes"/>
      <point x="101" y="582"/>
      <point x="105" y="591"/>
      <point x="112" y="597" type="curve"/>
      <point x="118" y="604"/>
      <point x="123" y="607"/>
      <point x="136" y="607" type="curve"/>
      <point x="136" y="-1" type="line"/>
    </contour>
  </outline>
</glyph>
<glyph name="G" format="2">
	<advance width="734"/>
	<unicode hex="0047"/>
	<anchor x="393" y="684" name="top"/>
	<anchor x="390" y="-16" name="bottom"/>
	<outline>
		<contour>
			<point x="390" y="-13" type="curve"/>
			<point x="390" y="-13" type="line"/>
			<point x="541" y="-13"/>
			<point x="683" y="104"/>
			<point x="683" y="271" type="curve"/>
			<point x="683" y="319" type="line"/>
			<point x="600" y="319" type="line"/>
			<point x="601" y="269" type="line"/>
			<point x="599" y="150"/>
			<point x="504" y="63"/>
			<point x="390" y="63" type="curve"/>
			<point x="245" y="63"/>
			<point x="135" y="176"/>
			<point x="135" y="342" type="curve"/>
			<point x="135" y="497"/>
			<point x="245" y="620"/>
			<point x="399" y="620" type="curve"/>
			<point x="456" y="620"/>
			<point x="558" y="599"/>
			<point x="558" y="544" type="curve"/>
			<point x="558" y="530"/>
			<point x="551" y="518"/>
			<point x="537" y="517" type="curve"/>
			<point x="527" y="516"/>
			<point x="517" y="523"/>
			<point x="511" y="528" type="curve"/>
			<point x="465" y="471" type="line"/>
			<point x="483" y="452"/>
			<point x="511" y="442"/>
			<point x="536" y="442" type="curve"/>
			<point x="591" y="442"/>
			<point x="635" y="488"/>
			<point x="635" y="547" type="curve"/>
			<point x="635" y="656"/>
			<point x="481" y="696"/>
			<point x="398" y="696" type="curve"/>
			<point x="205" y="696"/>
			<point x="53" y="539"/>
			<point x="53" y="343" type="curve"/>
			<point x="53" y="141"/>
			<point x="196" y="-13"/>
		</contour>
		<contour>
			<point x="364" y="356" type="line"/>
			<point x="364" y="280" type="line"/>
			<point x="683" y="280" type="line"/>
			<point x="683" y="356" type="line"/>
		</contour>
	</outline>
</glyph>
<glyph name="H" format="2">
	<advance width="727"/>
	<unicode hex="0048"/>
	<anchor x="382" y="500" name="center"/>
	<anchor x="389" y="675" name="top"/>
	<anchor x="22" y="684" name="topleft"/>
	<anchor x="359" y="0" name="bottom"/>
	<outline>
		<contour>
			<point x="131" y="568" type="line"/>
			<point x="131" y="-1" type="line"/>
			<point x="213" y="-1" type="line"/>
			<point x="213" y="319" type="line"/>
			<point x="548" y="319" type="line"/>
			<point x="548" y="-1" type="line"/>
			<point x="630" y="-1" type="line"/>
			<point x="630" y="686" type="line"/>
			<point x="548" y="686" type="line"/>
			<point x="548" y="395" type="line"/>
			<point x="213" y="395" type="line"/>
			<point x="213" y="569" type="line"/>
			<point x="213" y="588" type="line"/>
			<point x="212" y="653"/>
			<point x="172" y="701"/>
			<point x="99" y="700" type="curve"/>
			<point x="46" y="699"/>
			<point x="18" y="670"/>
			<point x="7" y="647" type="curve"/>
			<point x="63" y="607" type="line"/>
			<point x="67" y="615"/>
			<point x="75" y="624"/>
			<point x="97" y="625" type="curve"/>
			<point x="121" y="625"/>
			<point x="131" y="605"/>
			<point x="131" y="587" type="curve"/>
			<point x="131" y="568" type="line"/>
		</contour>
	</outline>
</glyph>
<glyph name="I" format="1">
  <advance width="228"/>
  <unicode hex="0049"/>
  <outline>
    <contour>
      <point x="138" y="-1" type="line"/>
      <point x="138" y="686" type="line"/>
      <point x="56" y="686" type="line"/>
      <point x="56" y="-1" type="line"/>
    </contour>
    <contour>
      <point x="127" y="11" type="move" name="ogonek"/>
    </contour>
    <contour>
      <point x="97" y="10" type="move" name="bottom"/>
    </contour>
    <contour>
      <point x="95" y="675" type="move" name="top"/>
    </contour>
  </outline>
</glyph>
<glyph name="J" format="1">
  <advance width="484"/>
  <unicode hex="004A"/>
  <outline>
    <contour>
      <point x="347" y="-4"/>
      <point x="403" y="97"/>
      <point x="403" y="196" type="curve" smooth="yes"/>
      <point x="403" y="689" type="line"/>
      <point x="337" y="689" type="line"/>
      <point x="325" y="678" type="line"/>
      <point x="325" y="686"/>
      <point x="327" y="681"/>
      <point x="313" y="673" type="curve"/>
      <point x="314" y="673" type="line"/>
      <point x="301" y="666"/>
      <point x="294" y="663"/>
      <point x="285" y="663" type="curve" smooth="yes"/>
      <point x="273" y="663"/>
      <point x="259" y="667"/>
      <point x="237" y="675" type="curve" smooth="yes"/>
      <point x="173" y="696"/>
      <point x="163" y="698"/>
      <point x="146" y="698" type="curve" smooth="yes"/>
      <point x="118" y="698"/>
      <point x="96" y="692"/>
      <point x="29" y="664" type="curve"/>
      <point x="63" y="595" type="line"/>
      <point x="92" y="602"/>
      <point x="121" y="620"/>
      <point x="146" y="620" type="curve" smooth="yes"/>
      <point x="173" y="620"/>
      <point x="197" y="601"/>
      <point x="235" y="592" type="curve" smooth="yes"/>
      <point x="246" y="589"/>
      <point x="264" y="585"/>
      <point x="283" y="585" type="curve" smooth="yes"/>
      <point x="296" y="585"/>
      <point x="311" y="587"/>
      <point x="324" y="592" type="curve"/>
      <point x="324" y="199" type="line" smooth="yes"/>
      <point x="324" y="141"/>
      <point x="301" y="74"/>
      <point x="217" y="74" type="curve" smooth="yes"/>
      <point x="145" y="74"/>
      <point x="106" y="121"/>
      <point x="110" y="191" type="curve"/>
      <point x="32" y="197" type="line"/>
      <point x="29" y="106"/>
      <point x="76" y="-4"/>
      <point x="214" y="-4" type="curve" smooth="yes"/>
    </contour>
    <contour>
      <point x="233" y="673" type="move" name="top"/>
    </contour>
  </outline>
</glyph>
<glyph name="K" format="1">
  <advance width="654"/>
  <unicode hex="004B"/>
  <outline>
    <contour>
      <point x="551" y="-8"/>
      <point x="614" y="28"/>
      <point x="607" y="104" type="curve"/>
      <point x="527" y="103" type="line"/>
      <point x="529" y="99"/>
      <point x="529" y="95"/>
      <point x="529" y="92" type="curve" smooth="yes"/>
      <point x="529" y="79"/>
      <point x="520" y="70"/>
      <point x="508" y="70" type="curve" smooth="yes"/>
      <point x="499" y="70"/>
      <point x="495" y="73"/>
      <point x="490" y="80" type="curve" smooth="yes"/>
      <point x="302" y="346" type="line"/>
      <point x="317" y="359"/>
      <point x="330" y="374"/>
      <point x="348" y="400" type="curve" smooth="yes"/>
      <point x="365" y="423"/>
      <point x="386" y="459"/>
      <point x="400" y="484" type="curve" smooth="yes"/>
      <point x="422" y="523"/>
      <point x="430" y="538"/>
      <point x="509" y="686" type="curve"/>
      <point x="409" y="686" type="line"/>
      <point x="371" y="606"/>
      <point x="352" y="566"/>
      <point x="332" y="530" type="curve" smooth="yes"/>
      <point x="313" y="497"/>
      <point x="289" y="457"/>
      <point x="267" y="430" type="curve" smooth="yes"/>
      <point x="254" y="414"/>
      <point x="247" y="406"/>
      <point x="226" y="396" type="curve" smooth="yes"/>
      <point x="213" y="390"/>
      <point x="196" y="385"/>
      <point x="168" y="384" type="curve" smooth="yes"/>
      <point x="138" y="383" type="line"/>
      <point x="138" y="686" type="line"/>
      <point x="56" y="686" type="line"/>
      <point x="56" y="0" type="line"/>
      <point x="140" y="0" type="line"/>
      <point x="140" y="303" type="line"/>
      <point x="185" y="302"/>
      <point x="203" y="305"/>
      <point x="230" y="312" type="curve"/>
      <point x="426" y="34" type="line" smooth="yes"/>
      <point x="444" y="8"/>
      <point x="476" y="-8"/>
      <point x="506" y="-8" type="curve" smooth="yes"/>
    </contour>
    <contour>
      <point x="327" y="675" type="move" name="top"/>
    </contour>
    <contour>
      <point x="327" y="11" type="move" name="bottom"/>
    </contour>
  </outline>
</glyph>
<glyph name="L" format="1">
  <advance width="527"/>
  <unicode hex="004C"/>
  <outline>
    <contour>
      <point x="455" y="-1" type="line"/>
      <point x="455" y="78" type="line"/>
      <point x="138" y="78" type="line"/>
      <point x="138" y="686" type="line"/>
      <point x="56" y="686" type="line"/>
      <point x="56" y="-1" type="line"/>
    </contour>
    <contour>
      <point x="263" y="675" type="move" name="top"/>
    </contour>
    <contour>
      <point x="263" y="11" type="move" name="bottom"/>
    </contour>
  </outline>
</glyph>
<glyph name="M" format="1">
  <advance width="1010"/>
  <unicode hex="004D"/>
  <outline>
    <contour>
      <point x="158" y="-7"/>
      <point x="197" y="29"/>
      <point x="206" y="71" type="curve" smooth="yes"/>
      <point x="303" y="553" type="line"/>
      <point x="303" y="554" type="line"/>
      <point x="301" y="538" type="line"/>
      <point x="297" y="552" type="line"/>
      <point x="297" y="551" type="line"/>
      <point x="496" y="-1" type="line"/>
      <point x="569" y="-1" type="line"/>
      <point x="769" y="552" type="line"/>
      <point x="769" y="553" type="line"/>
      <point x="766" y="540" type="line"/>
      <point x="763" y="555" type="line"/>
      <point x="875" y="-1" type="line"/>
      <point x="954" y="-1" type="line"/>
      <point x="813" y="686" type="line"/>
      <point x="740" y="686" type="line"/>
      <point x="533" y="125" type="line"/>
      <point x="533" y="126" type="line"/>
      <point x="534" y="124" type="line"/>
      <point x="533" y="125" type="line"/>
      <point x="328" y="686" type="line"/>
      <point x="253" y="686" type="line"/>
      <point x="129" y="83" type="line"/>
      <point x="125" y="73"/>
      <point x="121" y="70"/>
      <point x="112" y="70" type="curve" smooth="yes"/>
      <point x="99" y="70"/>
      <point x="97" y="75"/>
      <point x="87" y="93" type="curve"/>
      <point x="17" y="64" type="line"/>
      <point x="27" y="27"/>
      <point x="67" y="-7"/>
      <point x="112" y="-7" type="curve" smooth="yes"/>
    </contour>
  </outline>
</glyph>
<glyph name="N" format="2">
	<advance width="795"/>
	<unicode hex="004E"/>
	<anchor x="428" y="675" name="top"/>
	<anchor x="429" y="11" name="bottom"/>
	<outline>
		<contour>
			<point x="120" y="-4" type="curve" smooth="yes"/>
			<point x="162" y="-4"/>
			<point x="226" y="28"/>
			<point x="226" y="94" type="curve"/>
			<point x="222" y="539" type="line"/>
			<point x="214" y="550" type="line"/>
			<point x="675" y="-1" type="line"/>
			<point x="710" y="-1" type="line"/>
			<point x="710" y="685" type="line"/>
			<point x="629" y="685" type="line"/>
			<point x="632" y="177" type="line"/>
			<point x="634" y="170" type="line"/>
			<point x="309" y="561" type="line"/>
			<point x="198" y="686" type="line"/>
			<point x="144" y="686" type="line"/>
			<point x="144" y="94" type="line" smooth="yes"/>
			<point x="144" y="84"/>
			<point x="135" y="73"/>
			<point x="123" y="73" type="curve" smooth="yes"/>
			<point x="111" y="73"/>
			<point x="100" y="84"/>
			<point x="100" y="100" type="curve" smooth="yes"/>
			<point x="100" y="102"/>
			<point x="100" y="104"/>
			<point x="101" y="106" type="curve"/>
			<point x="24" y="106" type="line"/>
			<point x="23" y="102"/>
			<point x="23" y="98"/>
			<point x="23" y="94" type="curve" smooth="yes"/>
			<point x="23" y="41"/>
			<point x="71" y="-4"/>
		</contour>
	</outline>
</glyph>
<glyph name="O" format="2">
	<advance width="801"/>
	<unicode hex="004F"/>
	<anchor x="404" y="-27" name="bottom"/>
	<anchor x="642" y="68" name="ogonek"/>
	<anchor x="390" y="349" name="center"/>
	<anchor x="693" y="525" name="horn"/>
	<anchor x="400" y="708" name="top"/>
	<anchor x="803" y="684" name="topright"/>
	<anchor x="28" y="684" name="topleft"/>
	<outline>
		<contour>
			<point x="404" y="-27" type="curve" smooth="yes"/>
			<point x="601" y="-30"/>
			<point x="758" y="136"/>
			<point x="758" y="331" type="curve" smooth="yes"/>
			<point x="758" y="350" type="line" smooth="yes"/>
			<point x="758" y="541"/>
			<point x="598" y="708"/>
			<point x="400" y="708" type="curve" smooth="yes"/>
			<point x="200" y="708"/>
			<point x="43" y="539"/>
			<point x="43" y="350" type="curve" smooth="yes"/>
			<point x="43" y="331" type="line" smooth="yes"/>
			<point x="43" y="138"/>
			<point x="196" y="-24"/>
		</contour>
		<contour>
			<point x="401" y="44" type="curve" smooth="yes"/>
			<point x="253" y="44"/>
			<point x="128" y="175"/>
			<point x="128" y="331" type="curve" smooth="yes"/>
			<point x="128" y="350" type="line" smooth="yes"/>
			<point x="128" y="498"/>
			<point x="246" y="638"/>
			<point x="399" y="638" type="curve" smooth="yes"/>
			<point x="546" y="638"/>
			<point x="674" y="508"/>
			<point x="674" y="350" type="curve" smooth="yes"/>
			<point x="674" y="331" type="line" smooth="yes"/>
			<point x="674" y="179"/>
			<point x="552" y="44"/>
		</contour>
	</outline>
</glyph>
<glyph name="P" format="1">
  <advance width="592"/>
  <unicode hex="0050"/>
  <outline>
    <contour>
      <point x="229" y="-1" type="line"/>
      <point x="229" y="609" type="line"/>
      <point x="345" y="609" type="line"/>
      <point x="423" y="606"/>
      <point x="476" y="565"/>
      <point x="476" y="468" type="curve" smooth="yes"/>
      <point x="476" y="364"/>
      <point x="416" y="327"/>
      <point x="326" y="327" type="curve" smooth="yes"/>
      <point x="309" y="327"/>
      <point x="286" y="328"/>
      <point x="250" y="334" type="curve"/>
      <point x="250" y="258" type="line"/>
      <point x="282" y="250"/>
      <point x="308" y="249"/>
      <point x="330" y="249" type="curve" smooth="yes"/>
      <point x="447" y="249"/>
      <point x="556" y="318"/>
      <point x="556" y="469" type="curve" smooth="yes"/>
      <point x="556" y="590"/>
      <point x="485" y="686"/>
      <point x="359" y="686" type="curve" smooth="yes"/>
      <point x="135" y="686" type="line" smooth="yes"/>
      <point x="103" y="686"/>
      <point x="76" y="671"/>
      <point x="56" y="652" type="curve"/>
      <point x="37" y="632"/>
      <point x="24" y="604"/>
      <point x="24" y="574" type="curve" smooth="yes"/>
      <point x="24" y="569"/>
      <point x="25" y="565"/>
      <point x="25" y="561" type="curve"/>
      <point x="102" y="561" type="line"/>
      <point x="100" y="581"/>
      <point x="103" y="589"/>
      <point x="113" y="598" type="curve"/>
      <point x="121" y="607"/>
      <point x="123" y="608"/>
      <point x="146" y="609" type="curve"/>
      <point x="146" y="-1" type="line"/>
    </contour>
  </outline>
</glyph>
<glyph name="Q" format="2">
	<advance width="764"/>
	<unicode hex="0051"/>
	<outline>
		<contour>
			<point x="230" y="-199" type="line"/>
			<point x="273" y="-137" type="line"/>
			<point x="361" y="-166" type="line" smooth="yes"/>
			<point x="406" y="-181"/>
			<point x="443" y="-188"/>
			<point x="490" y="-188" type="curve" smooth="yes"/>
			<point x="528" y="-188"/>
			<point x="557" y="-183"/>
			<point x="617" y="-138" type="curve"/>
			<point x="581" y="-75" type="line"/>
			<point x="535" y="-108"/>
			<point x="515" y="-114"/>
			<point x="484" y="-114" type="curve" smooth="yes"/>
			<point x="453" y="-114"/>
			<point x="416" y="-108"/>
			<point x="380" y="-95" type="curve" smooth="yes"/>
			<point x="317" y="-74" type="line"/>
			<point x="361" y="-9" type="line"/>
			<point x="382" y="-10" type="line"/>
			<point x="581" y="-10"/>
			<point x="721" y="140"/>
			<point x="721" y="342" type="curve" smooth="yes"/>
			<point x="721" y="541"/>
			<point x="584" y="696"/>
			<point x="382" y="696" type="curve" smooth="yes"/>
			<point x="183" y="696"/>
			<point x="43" y="544"/>
			<point x="43" y="343" type="curve" smooth="yes"/>
			<point x="43" y="187"/>
			<point x="127" y="48"/>
			<point x="281" y="4" type="curve"/>
			<point x="170" y="-152" type="line"/>
		</contour>
		<contour>
			<point x="382" y="66" type="curve" smooth="yes"/>
			<point x="222" y="66"/>
			<point x="126" y="186"/>
			<point x="126" y="344" type="curve" smooth="yes"/>
			<point x="126" y="503"/>
			<point x="225" y="619"/>
			<point x="383" y="619" type="curve" smooth="yes"/>
			<point x="540" y="619"/>
			<point x="640" y="502"/>
			<point x="640" y="344" type="curve" smooth="yes"/>
			<point x="640" y="185"/>
			<point x="541" y="66"/>
		</contour>
	</outline>
</glyph>
<glyph name="R" format="2">
	<advance width="718"/>
	<unicode hex="0052"/>
	<anchor x="332" y="684" name="top"/>
	<anchor x="345" y="11" name="bottom"/>
	<outline>
		<contour>
			<point x="156" y="608" type="curve"/>
			<point x="156" y="608" type="line"/>
			<point x="156" y="-1" type="line"/>
			<point x="238" y="-1" type="line"/>
			<point x="238" y="611" type="line"/>
			<point x="382" y="611" type="line" smooth="yes"/>
			<point x="450" y="611"/>
			<point x="498" y="554"/>
			<point x="498" y="474" type="curve"/>
			<point x="498" y="394"/>
			<point x="449" y="345"/>
			<point x="371" y="345" type="curve"/>
			<point x="295" y="345" type="line"/>
			<point x="295" y="268" type="line"/>
			<point x="365" y="264"/>
			<point x="373" y="240"/>
			<point x="408" y="192" type="curve"/>
			<point x="523" y="32" type="line" smooth="yes"/>
			<point x="543" y="5"/>
			<point x="572" y="-10"/>
			<point x="604" y="-10" type="curve"/>
			<point x="639" y="-10"/>
			<point x="673" y="9"/>
			<point x="691" y="38" type="curve"/>
			<point x="628" y="82" type="line"/>
			<point x="624" y="72"/>
			<point x="616" y="66"/>
			<point x="607" y="66" type="curve"/>
			<point x="600" y="66"/>
			<point x="593" y="70"/>
			<point x="588" y="77" type="curve"/>
			<point x="485" y="222" type="line" smooth="yes"/>
			<point x="476" y="234"/>
			<point x="461" y="253"/>
			<point x="452" y="264" type="curve"/>
			<point x="444" y="274"/>
			<point x="434" y="284"/>
			<point x="421" y="289" type="curve"/>
			<point x="445" y="289"/>
			<point x="473" y="296"/>
			<point x="489" y="306" type="curve"/>
			<point x="547" y="342"/>
			<point x="580" y="404"/>
			<point x="580" y="474" type="curve"/>
			<point x="580" y="558"/>
			<point x="535" y="637"/>
			<point x="468" y="669" type="curve"/>
			<point x="443" y="681"/>
			<point x="415" y="686"/>
			<point x="385" y="686" type="curve"/>
			<point x="157" y="686" type="line"/>
			<point x="117" y="686"/>
			<point x="88" y="676"/>
			<point x="69" y="659" type="curve"/>
			<point x="42" y="636"/>
			<point x="32" y="605"/>
			<point x="32" y="567" type="curve"/>
			<point x="107" y="566" type="line"/>
			<point x="108" y="578"/>
			<point x="111" y="592"/>
			<point x="120" y="599" type="curve"/>
			<point x="129" y="607"/>
			<point x="141" y="608"/>
		</contour>
	</outline>
</glyph>
<glyph name="S" format="1">
  <advance width="572"/>
  <unicode hex="0053"/>
  <outline>
    <contour>
      <point x="402" y="-25"/>
      <point x="500" y="80"/>
      <point x="500" y="196" type="curve" smooth="yes"/>
      <point x="500" y="270"/>
      <point x="461" y="332"/>
      <point x="372" y="379" type="curve" smooth="yes"/>
      <point x="297" y="420"/>
      <point x="168" y="457"/>
      <point x="168" y="539" type="curve" smooth="yes"/>
      <point x="168" y="589"/>
      <point x="218" y="631"/>
      <point x="280" y="631" type="curve" smooth="yes"/>
      <point x="319" y="631"/>
      <point x="365" y="613"/>
      <point x="365" y="582" type="curve" smooth="yes"/>
      <point x="365" y="568"/>
      <point x="358" y="558"/>
      <point x="348" y="558" type="curve" smooth="yes"/>
      <point x="343" y="558"/>
      <point x="337" y="561"/>
      <point x="331" y="569" type="curve"/>
      <point x="325" y="487" type="line"/>
      <point x="332" y="486"/>
      <point x="339" y="485"/>
      <point x="346" y="485" type="curve" smooth="yes"/>
      <point x="401" y="485"/>
      <point x="443" y="528"/>
      <point x="443" y="581" type="curve" smooth="yes"/>
      <point x="443" y="632"/>
      <point x="407" y="679"/>
      <point x="343" y="698" type="curve" smooth="yes"/>
      <point x="324" y="704"/>
      <point x="301" y="708"/>
      <point x="280" y="708" type="curve" smooth="yes"/>
      <point x="180" y="708"/>
      <point x="92" y="637"/>
      <point x="92" y="537" type="curve" smooth="yes"/>
      <point x="92" y="403"/>
      <point x="242" y="357"/>
      <point x="333" y="310" type="curve" smooth="yes"/>
      <point x="386" y="282"/>
      <point x="423" y="256"/>
      <point x="423" y="195" type="curve" smooth="yes"/>
      <point x="423" y="118"/>
      <point x="363" y="52"/>
      <point x="274" y="52" type="curve" smooth="yes"/>
      <point x="197" y="52"/>
      <point x="126" y="100"/>
      <point x="94" y="186" type="curve"/>
      <point x="23" y="157" type="line"/>
      <point x="57" y="51"/>
      <point x="167" y="-25"/>
      <point x="275" y="-25" type="curve" smooth="yes"/>
    </contour>
    <contour>
      <point x="280" y="696" type="move" name="top"/>
    </contour>
    <contour>
      <point x="287" y="11" type="move" name="bottom"/>
    </contour>
  </outline>
</glyph>
<glyph name="T" format="2">
	<advance width="608"/>
	<unicode hex="0054"/>
	<anchor x="315" y="11" name="center"/>
	<anchor x="310" y="11" name="bottom"/>
	<anchor x="315" y="675" name="top"/>
	<outline>
		<contour>
			<point x="268" y="-1" type="line"/>
			<point x="351" y="-1" type="line"/>
			<point x="351" y="608" type="line"/>
			<point x="582" y="608" type="line"/>
			<point x="582" y="686" type="line"/>
			<point x="121" y="686" type="line" smooth="yes"/>
			<point x="95" y="686"/>
			<point x="70" y="675"/>
			<point x="52" y="657" type="curve" smooth="yes"/>
			<point x="31" y="636"/>
			<point x="21" y="605"/>
			<point x="24" y="576" type="curve"/>
			<point x="108" y="576" type="line"/>
			<point x="104" y="579"/>
			<point x="102" y="583"/>
			<point x="102" y="587" type="curve" smooth="yes"/>
			<point x="102" y="597"/>
			<point x="110" y="608"/>
			<point x="124" y="608" type="curve" smooth="yes"/>
			<point x="268" y="608" type="line"/>
		</contour>
	</outline>
</glyph>
<glyph name="U" format="1">
  <advance width="759"/>
  <unicode hex="0055"/>
  <outline>
    <contour>
      <point x="595" y="-9"/>
      <point x="678" y="137"/>
      <point x="678" y="271" type="curve" smooth="yes"/>
      <point x="678" y="687" type="line"/>
      <point x="595" y="687" type="line"/>
      <point x="595" y="271" type="line" smooth="yes"/>
      <point x="595" y="173"/>
      <point x="542" y="67"/>
      <point x="407" y="67" type="curve" smooth="yes"/>
      <point x="281" y="67"/>
      <point x="218" y="158"/>
      <point x="218" y="271" type="curve" smooth="yes"/>
      <point x="218" y="588" type="line" smooth="yes"/>
      <point x="218" y="655"/>
      <point x="175" y="695"/>
      <point x="112" y="695" type="curve" smooth="yes"/>
      <point x="75" y="695"/>
      <point x="33" y="671"/>
      <point x="17" y="638" type="curve"/>
      <point x="86" y="591" type="line"/>
      <point x="91" y="607"/>
      <point x="99" y="613"/>
      <point x="114" y="613" type="curve" smooth="yes"/>
      <point x="121" y="613"/>
      <point x="135" y="611"/>
      <point x="135" y="588" type="curve" smooth="yes"/>
      <point x="135" y="271" type="line" smooth="yes"/>
      <point x="135" y="123"/>
      <point x="231" y="-9"/>
      <point x="408" y="-9" type="curve" smooth="yes"/>
    </contour>
    <contour>
      <point x="563" y="53" type="move" name="ogonek"/>
    </contour>
    <contour>
      <point x="406" y="675" type="move" name="top"/>
    </contour>
    <contour>
      <point x="665" y="531" type="move" name="horn"/>
    </contour>
    <contour>
      <point x="408" y="2" type="move" name="bottom"/>
    </contour>
  </outline>
</glyph>
<glyph name="V" format="1">
  <advance width="690"/>
  <unicode hex="0056"/>
  <outline>
    <contour>
      <point x="409" y="-1" type="line"/>
      <point x="632" y="687" type="line"/>
      <point x="550" y="687" type="line"/>
      <point x="372" y="132" type="line"/>
      <point x="202" y="636" type="line" smooth="yes"/>
      <point x="191" y="667"/>
      <point x="158" y="692"/>
      <point x="117" y="692" type="curve" smooth="yes"/>
      <point x="70" y="692"/>
      <point x="24" y="659"/>
      <point x="15" y="607" type="curve"/>
      <point x="91" y="585" type="line"/>
      <point x="94" y="603"/>
      <point x="103" y="611"/>
      <point x="115" y="611" type="curve" smooth="yes"/>
      <point x="124" y="611"/>
      <point x="130" y="607"/>
      <point x="133" y="599" type="curve" smooth="yes"/>
      <point x="335" y="-1" type="line"/>
    </contour>
  </outline>
</glyph>
<glyph name="W" format="2">
	<advance width="1102"/>
	<unicode hex="0057"/>
	<anchor x="589" y="675" name="top"/>
	<outline>
		<contour>
			<point x="337" y="-1" type="line"/>
			<point x="411" y="-1" type="line"/>
			<point x="588" y="547" type="line"/>
			<point x="767" y="-1" type="line"/>
			<point x="841" y="-1" type="line"/>
			<point x="1065" y="687" type="line"/>
			<point x="983" y="687" type="line"/>
			<point x="819" y="172" type="line"/>
			<point x="797" y="84" type="line"/>
			<point x="785" y="153" type="line"/>
			<point x="626" y="687" type="line"/>
			<point x="552" y="687" type="line"/>
			<point x="379" y="142" type="line"/>
			<point x="372" y="90" type="line"/>
			<point x="366" y="141" type="line"/>
			<point x="214" y="627" type="line"/>
			<point x="200" y="672"/>
			<point x="163" y="696"/>
			<point x="120" y="696" type="curve" smooth="yes"/>
			<point x="78" y="696"/>
			<point x="29" y="665"/>
			<point x="21" y="612" type="curve"/>
			<point x="93" y="592" type="line"/>
			<point x="97" y="613"/>
			<point x="108" y="619"/>
			<point x="119" y="619" type="curve" smooth="yes"/>
			<point x="128" y="619"/>
			<point x="135" y="613"/>
			<point x="139" y="602" type="curve" smooth="yes"/>
		</contour>
	</outline>
</glyph>
<glyph name="X" format="2">
	<advance width="649"/>
	<unicode hex="0058"/>
	<outline>
		<contour>
			<point x="522" y="-7" type="curve" smooth="yes"/>
			<point x="576" y="-7"/>
			<point x="630" y="33"/>
			<point x="627" y="100" type="curve"/>
			<point x="548" y="104" type="line"/>
			<point x="550" y="87"/>
			<point x="540" y="72"/>
			<point x="526" y="72" type="curve" smooth="yes"/>
			<point x="518" y="72"/>
			<point x="514" y="75"/>
			<point x="511" y="80" type="curve" smooth="yes"/>
			<point x="350" y="351" type="line"/>
			<point x="561" y="686" type="line"/>
			<point x="464" y="686" type="line"/>
			<point x="295" y="416" type="line"/>
			<point x="125" y="686" type="line"/>
			<point x="31" y="686" type="line"/>
			<point x="243" y="351" type="line"/>
			<point x="33" y="-1" type="line"/>
			<point x="129" y="-1" type="line"/>
			<point x="298" y="285" type="line"/>
			<point x="424" y="68" type="line" smooth="yes"/>
			<point x="448" y="24"/>
			<point x="474" y="-7"/>
		</contour>
	</outline>
</glyph>
<glyph name="Y" format="2">
	<advance width="620"/>
	<unicode hex="0059"/>
	<anchor x="328" y="675" name="top"/>
	<anchor x="329" y="12" name="bottom"/>
	<anchor x="139" y="684" name="topleft"/>
	<outline>
		<contour>
			<point x="124" y="601" type="curve"/>
			<point x="124" y="601" type="line"/>
			<point x="124" y="601" type="line"/>
			<point x="291" y="296" type="line"/>
			<point x="294" y="-1" type="line"/>
			<point x="375" y="-1" type="line"/>
			<point x="374" y="298" type="line"/>
			<point x="591" y="687" type="line"/>
			<point x="497" y="687" type="line"/>
			<point x="332" y="385" type="line"/>
			<point x="193" y="642" type="line"/>
			<point x="164" y="697"/>
			<point x="109" y="711"/>
			<point x="61" y="682" type="curve"/>
			<point x="39" y="669"/>
			<point x="27" y="653"/>
			<point x="20" y="636" type="curve"/>
			<point x="83" y="603" type="line"/>
			<point x="85" y="607"/>
			<point x="88" y="610"/>
			<point x="92" y="613" type="curve"/>
			<point x="104" y="620"/>
			<point x="114" y="616"/>
		</contour>
	</outline>
</glyph>
<glyph name="Z" format="1">
  <advance width="561"/>
  <unicode hex="005A"/>
  <outline>
    <contour>
      <point x="125" y="43" type="line"/>
      <point x="214" y="25"/>
      <point x="282" y="-14"/>
      <point x="368" y="-14" type="curve" smooth="yes"/>
      <point x="429" y="-14"/>
      <point x="481" y="7"/>
      <point x="537" y="63" type="curve"/>
      <point x="483" y="116" type="line"/>
      <point x="449" y="81"/>
      <point x="414" y="61"/>
      <point x="368" y="61" type="curve" smooth="yes"/>
      <point x="313" y="61"/>
      <point x="244" y="91"/>
      <point x="180" y="104" type="curve" smooth="yes"/>
      <point x="164" y="107" type="line"/>
      <point x="508" y="683" type="line"/>
      <point x="82" y="683" type="line"/>
      <point x="82" y="609" type="line"/>
      <point x="377" y="609" type="line"/>
      <point x="24" y="19" type="line"/>
      <point x="88" y="-19" type="line"/>
    </contour>
    <contour>
      <point x="300" y="674" type="move" name="top"/>
    </contour>
  </outline>
</glyph>
<glyph name="bracketleft" format="1">
  <advance width="355"/>
  <unicode hex="005B"/>
  <outline>
    <contour>
      <point x="310" y="-169" type="line"/>
      <point x="310" y="-91" type="line"/>
      <point x="138" y="-91" type="line"/>
      <point x="138" y="672" type="line"/>
      <point x="310" y="672" type="line"/>
      <point x="310" y="750" type="line"/>
      <point x="56" y="750" type="line"/>
      <point x="56" y="-169" type="line"/>
    </contour>
  </outline>
</glyph>
<glyph name="backslash" format="1">
  <advance width="362"/>
  <unicode hex="005C"/>
  <outline>
    <contour>
      <point x="318" y="-68" type="line"/>
      <point x="100" y="750" type="line"/>
      <point x="14" y="750" type="line"/>
      <point x="232" y="-68" type="line"/>
    </contour>
  </outline>
</glyph>
<glyph name="bracketright" format="2">
	<advance width="367"/>
	<unicode hex="005D"/>
	<outline>
		<contour>
			<point x="30" y="-169" type="line"/>
			<point x="284" y="-169" type="line"/>
			<point x="284" y="750" type="line"/>
			<point x="30" y="750" type="line"/>
			<point x="30" y="672" type="line"/>
			<point x="202" y="672" type="line"/>
			<point x="202" y="-91" type="line"/>
			<point x="30" y="-91" type="line"/>
		</contour>
	</outline>
</glyph>
<glyph name="asciicircum" format="2">
	<advance width="511"/>
	<unicode hex="005E"/>
	<outline>
		<contour>
			<point x="253" y="499" type="line"/>
			<point x="383" y="313" type="line"/>
			<point x="450" y="360" type="line"/>
			<point x="270" y="619" type="line"/>
			<point x="239" y="619" type="line"/>
			<point x="59" y="360" type="line"/>
			<point x="125" y="315" type="line"/>
		</contour>
	</outline>
</glyph>
<glyph name="underscore" format="2">
	<advance width="616"/>
	<unicode hex="005F"/>
	<outline>
		<contour>
			<point x="83" y="-130" type="line"/>
			<point x="533" y="-130" type="line"/>
			<point x="533" y="-53" type="line"/>
			<point x="83" y="-53" type="line"/>
		</contour>
	</outline>
</glyph>
<glyph name="grave" format="2">
	<advance width="252"/>
	<unicode hex="0060"/>
	<anchor x="183" y="744" name="top"/>
	<anchor x="183" y="500" name="_top"/>
	<outline>
		<contour>
			<point x="22" y="698" type="line"/>
			<point x="186" y="547" type="line"/>
			<point x="227" y="593" type="line"/>
			<point x="82" y="755" type="line"/>
		</contour>
	</outline>
</glyph>
<glyph name="a" format="1">
  <advance width="573"/>
  <unicode hex="0061"/>
  <outline>
    <contour>
      <point x="305" y="-10"/>
      <point x="357" y="9"/>
      <point x="391" y="51" type="curve"/>
      <point x="407" y="16"/>
      <point x="443" y="-10"/>
      <point x="483" y="-10" type="curve" smooth="yes"/>
      <point x="513" y="-10"/>
      <point x="551" y="5"/>
      <point x="569" y="44" type="curve"/>
      <point x="506" y="87" type="line"/>
      <point x="499" y="70"/>
      <point x="491" y="66"/>
      <point x="483" y="66" type="curve" smooth="yes"/>
      <point x="471" y="66"/>
      <point x="460" y="75"/>
      <point x="460" y="89" type="curve" smooth="yes"/>
      <point x="460" y="507" type="line"/>
      <point x="396" y="507" type="line"/>
      <point x="360" y="512"/>
      <point x="308" y="516"/>
      <point x="279" y="516" type="curve" smooth="yes"/>
      <point x="125" y="516"/>
      <point x="30" y="403"/>
      <point x="30" y="250" type="curve" smooth="yes"/>
      <point x="30" y="115"/>
      <point x="104" y="-10"/>
      <point x="249" y="-10" type="curve" smooth="yes"/>
    </contour>
    <contour>
      <point x="154" y="64"/>
      <point x="109" y="156"/>
      <point x="109" y="252" type="curve" smooth="yes"/>
      <point x="109" y="359"/>
      <point x="165" y="442"/>
      <point x="273" y="442" type="curve" smooth="yes"/>
      <point x="302" y="442"/>
      <point x="351" y="436"/>
      <point x="383" y="434" type="curve"/>
      <point x="383" y="193" type="line" smooth="yes"/>
      <point x="383" y="171"/>
      <point x="379" y="153"/>
      <point x="371" y="137" type="curve" smooth="yes"/>
      <point x="350" y="94"/>
      <point x="307" y="64"/>
      <point x="251" y="64" type="curve" smooth="yes"/>
    </contour>
    <contour>
      <point x="569" y="44" type="move" name="ogonek"/>
    </contour>
    <contour>
      <point x="249" y="4" type="move" name="bottom"/>
    </contour>
    <contour>
      <point x="268" y="504" type="move" name="top"/>
    </contour>
  </outline>
</glyph>
<glyph name="b" format="1">
  <advance width="556"/>
  <unicode hex="0062"/>
  <outline>
    <contour>
      <point x="412" y="-10"/>
      <point x="484" y="115"/>
      <point x="484" y="253" type="curve" smooth="yes"/>
      <point x="484" y="404"/>
      <point x="398" y="516"/>
      <point x="268" y="516" type="curve" smooth="yes"/>
      <point x="220" y="516"/>
      <point x="169" y="500"/>
      <point x="132" y="464" type="curve"/>
      <point x="132" y="727" type="line"/>
      <point x="56" y="727" type="line"/>
      <point x="56" y="13" type="line"/>
      <point x="71" y="6"/>
      <point x="114" y="-2"/>
      <point x="133" y="-4" type="curve" smooth="yes"/>
      <point x="163" y="-8"/>
      <point x="205" y="-10"/>
      <point x="228" y="-10" type="curve" smooth="yes"/>
    </contour>
    <contour>
      <point x="213" y="63"/>
      <point x="192" y="64"/>
      <point x="173" y="67" type="curve"/>
      <point x="132" y="71" type="line"/>
      <point x="132" y="328" type="line"/>
      <point x="135" y="363"/>
      <point x="148" y="389"/>
      <point x="180" y="413" type="curve" smooth="yes"/>
      <point x="205" y="431"/>
      <point x="234" y="442"/>
      <point x="265" y="442" type="curve" smooth="yes"/>
      <point x="342" y="442"/>
      <point x="406" y="375"/>
      <point x="406" y="252" type="curve" smooth="yes"/>
      <point x="406" y="151"/>
      <point x="364" y="64"/>
      <point x="227" y="64" type="curve"/>
    </contour>
  </outline>
</glyph>
<glyph name="c" format="2">
	<advance width="506"/>
	<unicode hex="0063"/>
	<anchor x="274" y="495" name="top"/>
	<anchor x="276" y="13" name="bottom"/>
	<outline>
		<contour>
			<point x="283" y="-6" type="curve"/>
			<point x="283" y="-6" type="line"/>
			<point x="353" y="-6"/>
			<point x="420" y="16"/>
			<point x="478" y="59" type="curve"/>
			<point x="440" y="121" type="line"/>
			<point x="369" y="82"/>
			<point x="328" y="68"/>
			<point x="283" y="68" type="curve"/>
			<point x="180" y="68"/>
			<point x="123" y="130"/>
			<point x="123" y="242" type="curve"/>
			<point x="123" y="362"/>
			<point x="186" y="443"/>
			<point x="279" y="443" type="curve"/>
			<point x="344" y="443"/>
			<point x="388" y="402"/>
			<point x="382" y="347" type="curve"/>
			<point x="462" y="347" type="line"/>
			<point x="470" y="442"/>
			<point x="387" y="517"/>
			<point x="275" y="517" type="curve"/>
			<point x="136" y="517"/>
			<point x="41" y="405"/>
			<point x="41" y="243" type="curve"/>
			<point x="41" y="87"/>
			<point x="131" y="-6"/>
		</contour>
	</outline>
</glyph>
<glyph name="d" format="1">
  <advance width="625"/>
  <unicode hex="0064"/>
  <outline>
    <contour>
      <point x="318" y="-10"/>
      <point x="370" y="9"/>
      <point x="404" y="51" type="curve"/>
      <point x="420" y="16"/>
      <point x="456" y="-10"/>
      <point x="496" y="-10" type="curve" smooth="yes"/>
      <point x="526" y="-10"/>
      <point x="564" y="5"/>
      <point x="582" y="44" type="curve"/>
      <point x="519" y="87" type="line"/>
      <point x="511" y="70"/>
      <point x="507" y="66"/>
      <point x="496" y="66" type="curve" smooth="yes"/>
      <point x="484" y="66"/>
      <point x="473" y="78"/>
      <point x="473" y="89" type="curve" smooth="yes"/>
      <point x="473" y="728" type="line"/>
      <point x="396" y="728" type="line"/>
      <point x="396" y="508" type="line"/>
      <point x="362" y="512"/>
      <point x="317" y="516"/>
      <point x="291" y="516" type="curve" smooth="yes"/>
      <point x="138" y="516"/>
      <point x="43" y="402"/>
      <point x="43" y="250" type="curve" smooth="yes"/>
      <point x="43" y="113"/>
      <point x="120" y="-10"/>
      <point x="263" y="-10" type="curve" smooth="yes"/>
    </contour>
    <contour>
      <point x="169" y="64"/>
      <point x="122" y="151"/>
      <point x="122" y="257" type="curve" smooth="yes"/>
      <point x="122" y="364"/>
      <point x="170" y="442"/>
      <point x="312" y="442" type="curve" smooth="yes"/>
      <point x="349" y="442"/>
      <point x="376" y="436"/>
      <point x="396" y="433" type="curve"/>
      <point x="396" y="193" type="line" smooth="yes"/>
      <point x="396" y="171"/>
      <point x="392" y="153"/>
      <point x="384" y="137" type="curve" smooth="yes"/>
      <point x="361" y="90"/>
      <point x="318" y="63"/>
      <point x="263" y="64" type="curve" smooth="yes"/>
    </contour>
    <contour>
      <point x="313" y="11" type="move" name="center"/>
    </contour>
  </outline>
</glyph>
<glyph name="e" format="2">
	<advance width="508"/>
	<unicode hex="0065"/>
	<anchor x="474" y="55" name="ogonek"/>
	<anchor x="272" y="13" name="bottom"/>
	<anchor x="269" y="503" name="top"/>
	<outline>
		<contour>
			<point x="273" y="-10" type="curve"/>
			<point x="273" y="-10" type="line"/>
			<point x="354" y="-10"/>
			<point x="421" y="21"/>
			<point x="475" y="62" type="curve"/>
			<point x="430" y="119" type="line"/>
			<point x="388" y="88"/>
			<point x="338" y="65"/>
			<point x="276" y="65" type="curve"/>
			<point x="193" y="65"/>
			<point x="143" y="112"/>
			<point x="128" y="194" type="curve"/>
			<point x="232" y="192" type="line" smooth="yes"/>
			<point x="365" y="189"/>
			<point x="459" y="251"/>
			<point x="459" y="355" type="curve"/>
			<point x="459" y="454"/>
			<point x="371" y="515"/>
			<point x="272" y="515" type="curve"/>
			<point x="112" y="515"/>
			<point x="40" y="362"/>
			<point x="40" y="235" type="curve"/>
			<point x="40" y="100"/>
			<point x="121" y="-10"/>
		</contour>
		<contour>
			<point x="232" y="264" type="curve"/>
			<point x="124" y="264" type="line"/>
			<point x="129" y="337"/>
			<point x="178" y="441"/>
			<point x="277" y="441" type="curve"/>
			<point x="327" y="441"/>
			<point x="377" y="414"/>
			<point x="377" y="356" type="curve"/>
			<point x="377" y="293"/>
			<point x="318" y="264"/>
		</contour>
	</outline>
</glyph>
<glyph name="f" format="1">
  <advance width="417"/>
  <unicode hex="0066"/>
  <outline>
    <contour>
      <point x="130" y="-253" type="line"/>
      <point x="130" y="193" type="line"/>
      <point x="274" y="193" type="line"/>
      <point x="274" y="267" type="line"/>
      <point x="130" y="267" type="line"/>
      <point x="130" y="402" type="line"/>
      <point x="165" y="402" type="line" smooth="yes"/>
      <point x="286" y="402"/>
      <point x="371" y="467"/>
      <point x="371" y="585" type="curve" smooth="yes"/>
      <point x="371" y="683"/>
      <point x="312" y="743"/>
      <point x="221" y="743" type="curve" smooth="yes"/>
      <point x="88" y="743"/>
      <point x="54" y="625"/>
      <point x="54" y="498" type="curve" smooth="yes"/>
      <point x="54" y="-253" type="line"/>
    </contour>
    <contour>
      <point x="130" y="501" type="line" smooth="yes"/>
      <point x="130" y="589"/>
      <point x="142" y="669"/>
      <point x="219" y="669" type="curve" smooth="yes"/>
      <point x="265" y="669"/>
      <point x="292" y="640"/>
      <point x="292" y="586" type="curve" smooth="yes"/>
      <point x="292" y="519"/>
      <point x="248" y="476"/>
      <point x="165" y="476" type="curve" smooth="yes"/>
      <point x="130" y="476" type="line"/>
    </contour>
  </outline>
</glyph>
<glyph name="g" format="2">
	<advance width="553"/>
	<unicode hex="0067"/>
	<anchor x="284" y="504" name="top"/>
	<anchor x="276" y="-260" name="bottom"/>
	<outline>
		<contour>
			<point x="313" y="-272" type="curve"/>
			<point x="313" y="-272" type="line"/>
			<point x="409" y="-272"/>
			<point x="475" y="-201"/>
			<point x="475" y="-96" type="curve"/>
			<point x="475" y="508" type="line"/>
			<point x="407" y="508" type="line"/>
			<point x="350" y="515" type="line"/>
			<point x="316" y="516"/>
			<point x="298" y="517"/>
			<point x="288" y="517" type="curve"/>
			<point x="146" y="517"/>
			<point x="44" y="413"/>
			<point x="38" y="262" type="curve"/>
			<point x="32" y="129"/>
			<point x="94" y="33"/>
			<point x="209" y="0" type="curve"/>
			<point x="173" y="-32"/>
			<point x="155" y="-71"/>
			<point x="155" y="-118" type="curve"/>
			<point x="155" y="-203"/>
			<point x="226" y="-272"/>
		</contour>
		<contour>
			<point x="317" y="-198" type="curve"/>
			<point x="317" y="-198" type="line"/>
			<point x="273" y="-198"/>
			<point x="235" y="-161"/>
			<point x="235" y="-118" type="curve"/>
			<point x="235" y="-76"/>
			<point x="251" y="-45"/>
			<point x="283" y="-26" type="curve"/>
			<point x="321" y="-3"/>
			<point x="350" y="17"/>
			<point x="366" y="32" type="curve"/>
			<point x="379" y="44"/>
			<point x="388" y="59"/>
			<point x="393" y="65" type="curve"/>
			<point x="393" y="-99" type="line"/>
			<point x="393" y="-159"/>
			<point x="363" y="-198"/>
		</contour>
		<contour>
			<point x="255" y="67" type="curve"/>
			<point x="255" y="67" type="line"/>
			<point x="181" y="67"/>
			<point x="120" y="151"/>
			<point x="120" y="252" type="curve"/>
			<point x="120" y="361"/>
			<point x="191" y="443"/>
			<point x="284" y="443" type="curve"/>
			<point x="315" y="443" type="line"/>
			<point x="393" y="442" type="line"/>
			<point x="393" y="186" type="line" smooth="yes"/>
			<point x="393" y="162"/>
			<point x="372" y="128"/>
			<point x="342" y="103" type="curve"/>
			<point x="314" y="79"/>
			<point x="284" y="67"/>
		</contour>
	</outline>
</glyph>
<glyph name="h" format="2">
	<advance width="578"/>
	<unicode hex="0068"/>
	<anchor x="143" y="611" name="center"/>
	<anchor x="311" y="518" name="top"/>
	<outline>
		<contour>
			<point x="487" y="-7" type="curve" smooth="yes"/>
			<point x="522" y="-7"/>
			<point x="556" y="12"/>
			<point x="574" y="46" type="curve"/>
			<point x="509" y="89" type="line"/>
			<point x="503" y="74"/>
			<point x="499" y="69"/>
			<point x="487" y="69" type="curve" smooth="yes"/>
			<point x="475" y="69"/>
			<point x="464" y="78"/>
			<point x="464" y="91" type="curve" smooth="yes"/>
			<point x="464" y="351" type="line" smooth="yes"/>
			<point x="464" y="457"/>
			<point x="406" y="518"/>
			<point x="295" y="518" type="curve" smooth="yes"/>
			<point x="234" y="518"/>
			<point x="183" y="497"/>
			<point x="143" y="454" type="curve"/>
			<point x="143" y="730" type="line"/>
			<point x="67" y="730" type="line"/>
			<point x="67" y="2" type="line"/>
			<point x="143" y="2" type="line"/>
			<point x="143" y="355" type="line"/>
			<point x="186" y="412"/>
			<point x="224" y="445"/>
			<point x="288" y="445" type="curve" smooth="yes"/>
			<point x="353" y="445"/>
			<point x="388" y="416"/>
			<point x="388" y="348" type="curve" smooth="yes"/>
			<point x="388" y="91" type="line" smooth="yes"/>
			<point x="388" y="37"/>
			<point x="431" y="-7"/>
		</contour>
	</outline>
</glyph>
<glyph name="k" format="1">
  <advance width="596"/>
  <unicode hex="006B"/>
  <outline>
    <contour>
      <point x="132" y="0" type="line"/>
      <point x="132" y="194" type="line"/>
      <point x="279" y="194" type="line"/>
      <point x="369" y="47" type="line"/>
      <point x="385" y="18"/>
      <point x="422" y="0"/>
      <point x="452" y="0" type="curve" smooth="yes"/>
      <point x="508" y="0"/>
      <point x="554" y="54"/>
      <point x="550" y="107" type="curve"/>
      <point x="471" y="111" type="line"/>
      <point x="472" y="106"/>
      <point x="473" y="102"/>
      <point x="473" y="99" type="curve" smooth="yes"/>
      <point x="473" y="86"/>
      <point x="466" y="79"/>
      <point x="453" y="79" type="curve" smooth="yes"/>
      <point x="445" y="79"/>
      <point x="440" y="80"/>
      <point x="437" y="85" type="curve" smooth="yes"/>
      <point x="354" y="217" type="line"/>
      <point x="398" y="244"/>
      <point x="439" y="284"/>
      <point x="439" y="358" type="curve" smooth="yes"/>
      <point x="439" y="451"/>
      <point x="372" y="518"/>
      <point x="278" y="518" type="curve" smooth="yes"/>
      <point x="221" y="518"/>
      <point x="168" y="493"/>
      <point x="132" y="448" type="curve"/>
      <point x="132" y="728" type="line"/>
      <point x="56" y="728" type="line"/>
      <point x="56" y="0" type="line"/>
    </contour>
    <contour>
      <point x="136" y="288"/>
      <point x="139" y="307"/>
      <point x="145" y="327" type="curve" smooth="yes"/>
      <point x="166" y="402"/>
      <point x="215" y="446"/>
      <point x="276" y="446" type="curve" smooth="yes"/>
      <point x="332" y="446"/>
      <point x="365" y="410"/>
      <point x="365" y="362" type="curve" smooth="yes"/>
      <point x="365" y="323"/>
      <point x="345" y="296"/>
      <point x="307" y="280" type="curve" smooth="yes"/>
      <point x="288" y="272"/>
      <point x="268" y="268"/>
      <point x="235" y="268" type="curve" smooth="yes"/>
      <point x="135" y="268" type="line"/>
    </contour>
    <contour>
      <point x="272" y="504" type="move" name="top"/>
    </contour>
    <contour>
      <point x="298" y="11" type="move" name="bottom"/>
    </contour>
  </outline>
</glyph>
<glyph name="l" format="1">
  <advance width="283"/>
  <unicode hex="006C"/>
  <outline>
    <contour>
      <point x="186" y="-9"/>
      <point x="225" y="12"/>
      <point x="241" y="45" type="curve"/>
      <point x="177" y="87" type="line"/>
      <point x="170" y="72"/>
      <point x="164" y="67"/>
      <point x="154" y="67" type="curve" smooth="yes"/>
      <point x="143" y="67"/>
      <point x="131" y="76"/>
      <point x="131" y="90" type="curve" smooth="yes"/>
      <point x="131" y="727" type="line"/>
      <point x="55" y="727" type="line"/>
      <point x="55" y="90" type="line" smooth="yes"/>
      <point x="55" y="37"/>
      <point x="100" y="-9"/>
      <point x="152" y="-9" type="curve" smooth="yes"/>
    </contour>
    <contour>
      <point x="95" y="715" type="move" name="top"/>
    </contour>
    <contour>
      <point x="142" y="11" type="move" name="bottom"/>
    </contour>
    <contour>
      <point x="120" y="715" type="move" name="topright"/>
    </contour>
  </outline>
</glyph>
<glyph name="m" format="2">
	<advance width="868"/>
	<unicode hex="006D"/>
	<anchor x="438" y="500" name="top"/>
	<anchor x="412" y="0" name="bottom"/>
	<outline>
		<contour>
			<point x="748" y="89" type="curve"/>
			<point x="748" y="89" type="line"/>
			<point x="748" y="89" type="line"/>
			<point x="748" y="352" type="line" smooth="yes"/>
			<point x="748" y="461"/>
			<point x="679" y="513"/>
			<point x="583" y="513" type="curve"/>
			<point x="523" y="513"/>
			<point x="470" y="479"/>
			<point x="433" y="432" type="curve"/>
			<point x="407" y="481"/>
			<point x="354" y="513"/>
			<point x="295" y="513" type="curve"/>
			<point x="236" y="513"/>
			<point x="184" y="482"/>
			<point x="148" y="438" type="curve"/>
			<point x="145" y="383" type="line"/>
			<point x="163" y="388" type="line"/>
			<point x="162" y="447"/>
			<point x="124" y="498"/>
			<point x="94" y="515" type="curve"/>
			<point x="39" y="464" type="line"/>
			<point x="65" y="442"/>
			<point x="81" y="406"/>
			<point x="81" y="350" type="curve"/>
			<point x="81" y="-1" type="line"/>
			<point x="163" y="-1" type="line"/>
			<point x="163" y="356" type="line"/>
			<point x="184" y="403"/>
			<point x="234" y="439"/>
			<point x="290" y="439" type="curve"/>
			<point x="346" y="439"/>
			<point x="373" y="402"/>
			<point x="373" y="337" type="curve"/>
			<point x="373" y="-1" type="line"/>
			<point x="455" y="-1" type="line"/>
			<point x="455" y="353" type="line"/>
			<point x="489" y="418"/>
			<point x="531" y="439"/>
			<point x="582" y="439" type="curve"/>
			<point x="633" y="439"/>
			<point x="661" y="417"/>
			<point x="666" y="350" type="curve"/>
			<point x="666" y="92" type="line"/>
			<point x="666" y="28"/>
			<point x="706" y="-11"/>
			<point x="768" y="-11" type="curve"/>
			<point x="808" y="-11"/>
			<point x="839" y="9"/>
			<point x="857" y="44" type="curve"/>
			<point x="798" y="81" type="line"/>
			<point x="792" y="69"/>
			<point x="783" y="63"/>
			<point x="773" y="63" type="curve"/>
			<point x="759" y="63"/>
			<point x="748" y="74"/>
		</contour>
	</outline>
</glyph>
<glyph name="n" format="2">
	<advance width="605"/>
	<unicode hex="006E"/>
	<anchor x="294" y="500" name="top"/>
	<anchor x="295" y="0" name="bottom"/>
	<outline>
		<contour>
			<point x="485" y="89" type="curve"/>
			<point x="485" y="89" type="line"/>
			<point x="485" y="89" type="line"/>
			<point x="485" y="363" type="line"/>
			<point x="479" y="461"/>
			<point x="412" y="514"/>
			<point x="315" y="514" type="curve"/>
			<point x="248" y="514"/>
			<point x="195" y="489"/>
			<point x="152" y="436" type="curve"/>
			<point x="148" y="383" type="line"/>
			<point x="165" y="388" type="line"/>
			<point x="164" y="447"/>
			<point x="126" y="498"/>
			<point x="96" y="515" type="curve"/>
			<point x="41" y="464" type="line"/>
			<point x="67" y="442"/>
			<point x="83" y="406"/>
			<point x="83" y="350" type="curve"/>
			<point x="83" y="-1" type="line"/>
			<point x="165" y="-1" type="line"/>
			<point x="165" y="351" type="line"/>
			<point x="206" y="406"/>
			<point x="244" y="440"/>
			<point x="310" y="440" type="curve"/>
			<point x="382" y="440"/>
			<point x="403" y="399"/>
			<point x="403" y="337" type="curve"/>
			<point x="403" y="92" type="line"/>
			<point x="403" y="28"/>
			<point x="443" y="-11"/>
			<point x="505" y="-11" type="curve"/>
			<point x="545" y="-11"/>
			<point x="576" y="9"/>
			<point x="594" y="44" type="curve"/>
			<point x="535" y="81" type="line"/>
			<point x="529" y="69"/>
			<point x="520" y="63"/>
			<point x="510" y="63" type="curve"/>
			<point x="496" y="63"/>
			<point x="485" y="74"/>
		</contour>
	</outline>
</glyph>
<glyph name="o" format="1">
  <advance width="563"/>
  <unicode hex="006F"/>
  <outline>
    <contour>
      <point x="429" y="-10"/>
      <point x="536" y="99"/>
      <point x="536" y="252" type="curve" smooth="yes"/>
      <point x="536" y="403"/>
      <point x="431" y="516"/>
      <point x="283" y="516" type="curve" smooth="yes"/>
      <point x="133" y="516"/>
      <point x="30" y="399"/>
      <point x="30" y="251" type="curve" smooth="yes"/>
      <point x="30" y="103"/>
      <point x="133" y="-10"/>
      <point x="282" y="-10" type="curve" smooth="yes"/>
    </contour>
    <contour>
      <point x="176" y="60"/>
      <point x="109" y="140"/>
      <point x="109" y="252" type="curve" smooth="yes"/>
      <point x="109" y="358"/>
      <point x="170" y="445"/>
      <point x="283" y="445" type="curve" smooth="yes"/>
      <point x="389" y="445"/>
      <point x="457" y="369"/>
      <point x="457" y="256" type="curve" smooth="yes"/>
      <point x="457" y="146"/>
      <point x="394" y="60"/>
      <point x="283" y="60" type="curve" smooth="yes"/>
    </contour>
    <contour>
      <point x="429" y="39" type="move" name="ogonek"/>
    </contour>
    <contour>
      <point x="283" y="504" type="move" name="top"/>
    </contour>
    <contour>
      <point x="508" y="343" type="move" name="horn"/>
    </contour>
    <contour>
      <point x="282" y="13" type="move" name="bottom"/>
    </contour>
  </outline>
</glyph>
<glyph name="p" format="1">
  <advance width="534"/>
  <unicode hex="0070"/>
  <outline>
    <contour>
      <point x="153" y="-254" type="line"/>
      <point x="153" y="-3" type="line"/>
      <point x="187" y="-7"/>
      <point x="231" y="-10"/>
      <point x="257" y="-10" type="curve" smooth="yes"/>
      <point x="413" y="-10"/>
      <point x="505" y="103"/>
      <point x="505" y="256" type="curve" smooth="yes"/>
      <point x="505" y="393"/>
      <point x="430" y="516"/>
      <point x="285" y="516" type="curve" smooth="yes"/>
      <point x="228" y="516"/>
      <point x="172" y="496"/>
      <point x="137" y="448" type="curve"/>
      <point x="127" y="473"/>
      <point x="110" y="496"/>
      <point x="81" y="516" type="curve"/>
      <point x="32" y="469" type="line"/>
      <point x="62" y="444"/>
      <point x="76" y="408"/>
      <point x="76" y="354" type="curve" smooth="yes"/>
      <point x="76" y="-254" type="line"/>
    </contour>
    <contour>
      <point x="238" y="64"/>
      <point x="223" y="64"/>
      <point x="153" y="71" type="curve"/>
      <point x="153" y="328" type="line"/>
      <point x="158" y="396"/>
      <point x="222" y="442"/>
      <point x="287" y="442" type="curve" smooth="yes"/>
      <point x="375" y="442"/>
      <point x="426" y="355"/>
      <point x="426" y="250" type="curve" smooth="yes"/>
      <point x="426" y="139"/>
      <point x="370" y="64"/>
      <point x="252" y="64" type="curve" smooth="yes"/>
    </contour>
  </outline>
</glyph>
<glyph name="q" format="2">
	<advance width="549"/>
	<unicode hex="0071"/>
	<anchor x="275" y="500" name="top"/>
	<anchor x="275" y="0" name="bottom"/>
	<outline>
		<contour>
			<point x="390" y="36" type="curve"/>
			<point x="390" y="-260" type="line"/>
			<point x="472" y="-260" type="line"/>
			<point x="472" y="494" type="line"/>
			<point x="422" y="510"/>
			<point x="347" y="517"/>
			<point x="304" y="517" type="curve"/>
			<point x="130" y="517"/>
			<point x="40" y="404"/>
			<point x="40" y="253" type="curve"/>
			<point x="40" y="112"/>
			<point x="118" y="-10"/>
			<point x="259" y="-10" type="curve"/>
			<point x="308" y="-10"/>
			<point x="356" y="5"/>
		</contour>
		<contour>
			<point x="256" y="64" type="curve"/>
			<point x="256" y="64" type="line"/>
			<point x="170" y="64"/>
			<point x="122" y="148"/>
			<point x="122" y="259" type="curve"/>
			<point x="122" y="365"/>
			<point x="168" y="439"/>
			<point x="308" y="439" type="curve"/>
			<point x="335" y="439"/>
			<point x="363" y="436"/>
			<point x="390" y="432" type="curve"/>
			<point x="390" y="178" type="line"/>
			<point x="383" y="109"/>
			<point x="321" y="64"/>
		</contour>
	</outline>
</glyph>
<glyph name="r" format="1">
  <advance width="352"/>
  <unicode hex="0072"/>
  <outline>
    <contour>
      <point x="148" y="-1" type="line"/>
      <point x="148" y="354" type="line"/>
      <point x="163" y="382"/>
      <point x="184" y="406"/>
      <point x="200" y="418" type="curve"/>
      <point x="219" y="434"/>
      <point x="240" y="441"/>
      <point x="275" y="441" type="curve" smooth="yes"/>
      <point x="289" y="441"/>
      <point x="306" y="440"/>
      <point x="341" y="431" type="curve"/>
      <point x="341" y="506" type="line"/>
      <point x="296" y="514"/>
      <point x="287" y="516"/>
      <point x="273" y="516" type="curve" smooth="yes"/>
      <point x="241" y="516"/>
      <point x="209" y="509"/>
      <point x="183" y="492" type="curve"/>
      <point x="166" y="482"/>
      <point x="149" y="464"/>
      <point x="134" y="443" type="curve"/>
      <point x="123" y="473"/>
      <point x="105" y="497"/>
      <point x="76" y="516" type="curve"/>
      <point x="27" y="469" type="line"/>
      <point x="57" y="444"/>
      <point x="71" y="408"/>
      <point x="71" y="354" type="curve" smooth="yes"/>
      <point x="71" y="-1" type="line"/>
    </contour>
    <contour>
      <point x="212" y="497" type="move" name="top"/>
    </contour>
    <contour>
      <point x="109" y="11" type="move" name="bottom"/>
    </contour>
  </outline>
</glyph>
<glyph name="s" format="1">
  <advance width="461"/>
  <unicode hex="0073"/>
  <outline>
    <contour>
      <point x="303" y="-10"/>
      <point x="398" y="34"/>
      <point x="398" y="141" type="curve" smooth="yes"/>
      <point x="398" y="197"/>
      <point x="371" y="237"/>
      <point x="326" y="265" type="curve" smooth="yes"/>
      <point x="250" y="311"/>
      <point x="140" y="321"/>
      <point x="140" y="387" type="curve" smooth="yes"/>
      <point x="140" y="419"/>
      <point x="165" y="442"/>
      <point x="214" y="442" type="curve" smooth="yes"/>
      <point x="246" y="442"/>
      <point x="293" y="433"/>
      <point x="336" y="406" type="curve"/>
      <point x="352" y="479" type="line"/>
      <point x="321" y="502"/>
      <point x="259" y="516"/>
      <point x="215" y="516" type="curve" smooth="yes"/>
      <point x="133" y="516"/>
      <point x="61" y="467"/>
      <point x="61" y="382" type="curve" smooth="yes"/>
      <point x="61" y="268"/>
      <point x="177" y="255"/>
      <point x="258" y="216" type="curve" smooth="yes"/>
      <point x="301" y="196"/>
      <point x="319" y="177"/>
      <point x="319" y="140" type="curve" smooth="yes"/>
      <point x="319" y="85"/>
      <point x="271" y="64"/>
      <point x="216" y="64" type="curve" smooth="yes"/>
      <point x="163" y="64"/>
      <point x="114" y="82"/>
      <point x="69" y="115" type="curve"/>
      <point x="30" y="55" type="line"/>
      <point x="77" y="15"/>
      <point x="140" y="-10"/>
      <point x="211" y="-10" type="curve" smooth="yes"/>
    </contour>
    <contour>
      <point x="214" y="504" type="move" name="top"/>
    </contour>
    <contour>
      <point x="230" y="11" type="move" name="bottom"/>
    </contour>
  </outline>
</glyph>
<glyph name="t" format="2">
	<advance width="371"/>
	<unicode hex="0074"/>
	<anchor x="150" y="326" name="center"/>
	<anchor x="108" y="628" name="top"/>
	<anchor x="345" y="500" name="topright"/>
	<anchor x="211" y="14" name="bottom"/>
	<outline>
		<contour>
			<point x="209" y="-10" type="curve"/>
			<point x="209" y="-10" type="line"/>
			<point x="278" y="-10"/>
			<point x="323" y="26"/>
			<point x="353" y="86" type="curve"/>
			<point x="289" y="127" type="line"/>
			<point x="275" y="91"/>
			<point x="249" y="66"/>
			<point x="209" y="66" type="curve"/>
			<point x="167" y="66"/>
			<point x="150" y="108"/>
			<point x="150" y="151" type="curve"/>
			<point x="150" y="426" type="line"/>
			<point x="303" y="426" type="line"/>
			<point x="303" y="500" type="line"/>
			<point x="150" y="500" type="line"/>
			<point x="150" y="629" type="line"/>
			<point x="68" y="629" type="line"/>
			<point x="68" y="151" type="line" smooth="yes"/>
			<point x="68" y="52"/>
			<point x="113" y="-10"/>
		</contour>
	</outline>
</glyph>
<glyph name="u" format="2">
	<advance width="586"/>
	<unicode hex="0075"/>
	<anchor x="555" y="11" name="ogonek"/>
	<anchor x="260" y="496" name="top"/>
	<anchor x="472" y="508" name="horn"/>
	<anchor x="251" y="3" name="bottom"/>
	<outline>
		<contour>
			<point x="495" y="-11" type="curve" smooth="yes"/>
			<point x="531" y="-11"/>
			<point x="562" y="8"/>
			<point x="582" y="41" type="curve"/>
			<point x="517" y="85" type="line"/>
			<point x="510" y="70"/>
			<point x="504" y="65"/>
			<point x="494" y="65" type="curve" smooth="yes"/>
			<point x="483" y="65"/>
			<point x="471" y="75"/>
			<point x="471" y="88" type="curve" smooth="yes"/>
			<point x="472" y="508" type="line"/>
			<point x="395" y="508" type="line"/>
			<point x="394" y="155" type="line"/>
			<point x="349" y="95"/>
			<point x="313" y="65"/>
			<point x="247" y="65" type="curve" smooth="yes"/>
			<point x="181" y="65"/>
			<point x="150" y="97"/>
			<point x="150" y="170" type="curve" smooth="yes"/>
			<point x="150" y="388" type="line" smooth="yes"/>
			<point x="150" y="454"/>
			<point x="104" y="494"/>
			<point x="56" y="518" type="curve"/>
			<point x="16" y="457" type="line"/>
			<point x="33" y="446"/>
			<point x="74" y="421"/>
			<point x="74" y="388" type="curve" smooth="yes"/>
			<point x="74" y="144" type="line"/>
			<point x="80" y="42"/>
			<point x="142" y="-8"/>
			<point x="242" y="-8" type="curve" smooth="yes"/>
			<point x="305" y="-8"/>
			<point x="354" y="12"/>
			<point x="398" y="60" type="curve"/>
			<point x="411" y="19"/>
			<point x="449" y="-11"/>
		</contour>
	</outline>
</glyph>
<glyph name="v" format="1">
  <advance width="508"/>
  <unicode hex="0076"/>
  <outline>
    <contour>
      <point x="287" y="-1" type="line"/>
      <point x="453" y="507" type="line"/>
      <point x="375" y="507" type="line"/>
      <point x="252" y="130" type="line"/>
      <point x="160" y="410" type="line" smooth="yes"/>
      <point x="145" y="457"/>
      <point x="115" y="501"/>
      <point x="69" y="527" type="curve"/>
      <point x="27" y="463" type="line"/>
      <point x="48" y="457"/>
      <point x="71" y="433"/>
      <point x="81" y="409" type="curve"/>
      <point x="81" y="410" type="line"/>
      <point x="216" y="-1" type="line"/>
    </contour>
  </outline>
</glyph>
<glyph name="w" format="2">
	<advance width="760"/>
	<unicode hex="0077"/>
	<anchor x="388" y="496" name="top"/>
	<outline>
		<contour>
			<point x="193" y="0" type="line"/>
			<point x="265" y="0" type="line"/>
			<point x="388" y="375" type="line"/>
			<point x="510" y="0" type="line"/>
			<point x="582" y="0" type="line"/>
			<point x="747" y="508" type="line"/>
			<point x="668" y="508" type="line"/>
			<point x="546" y="133" type="line"/>
			<point x="423" y="508" type="line"/>
			<point x="352" y="508" type="line"/>
			<point x="230" y="133" type="line"/>
			<point x="138" y="411" type="line" smooth="yes"/>
			<point x="120" y="462"/>
			<point x="91" y="503"/>
			<point x="48" y="529" type="curve"/>
			<point x="6" y="464" type="line"/>
			<point x="27" y="458"/>
			<point x="49" y="435"/>
			<point x="60" y="410" type="curve"/>
		</contour>
	</outline>
</glyph>
<glyph name="x" format="2">
	<advance width="519"/>
	<unicode hex="0078"/>
	<anchor x="266" y="500" name="top"/>
	<anchor x="266" y="0" name="bottom"/>
	<outline>
		<contour>
			<point x="118" y="509" type="line"/>
			<point x="22" y="509" type="line"/>
			<point x="184" y="255" type="line"/>
			<point x="24" y="-1" type="line"/>
			<point x="118" y="-1" type="line"/>
			<point x="235" y="188" type="line"/>
			<point x="332" y="32" type="line" smooth="yes"/>
			<point x="351" y="1"/>
			<point x="385" y="-16"/>
			<point x="417" y="-16" type="curve"/>
			<point x="454" y="-16"/>
			<point x="489" y="6"/>
			<point x="507" y="39" type="curve"/>
			<point x="441" y="79" type="line"/>
			<point x="436" y="70"/>
			<point x="426" y="65"/>
			<point x="419" y="66" type="curve"/>
			<point x="410" y="67"/>
			<point x="404" y="70"/>
			<point x="395" y="85" type="curve"/>
			<point x="284" y="253" type="line"/>
			<point x="444" y="509" type="line"/>
			<point x="349" y="509" type="line"/>
			<point x="235" y="320" type="line"/>
		</contour>
	</outline>
</glyph>
<glyph name="y" format="1">
  <advance width="567"/>
  <unicode hex="0079"/>
  <outline>
    <contour>
      <point x="414" y="-277"/>
      <point x="483" y="-213"/>
      <point x="483" y="-102" type="curve" smooth="yes"/>
      <point x="483" y="144" type="line"/>
      <point x="484" y="508" type="line"/>
      <point x="407" y="508" type="line"/>
      <point x="406" y="177" type="line" smooth="yes"/>
      <point x="406" y="162"/>
      <point x="406" y="156"/>
      <point x="395" y="140" type="curve"/>
      <point x="395" y="141" type="line"/>
      <point x="356" y="93"/>
      <point x="320" y="65"/>
      <point x="258" y="65" type="curve" smooth="yes"/>
      <point x="192" y="65"/>
      <point x="162" y="99"/>
      <point x="162" y="170" type="curve" smooth="yes"/>
      <point x="162" y="388" type="line" smooth="yes"/>
      <point x="162" y="450"/>
      <point x="116" y="486"/>
      <point x="70" y="521" type="curve"/>
      <point x="28" y="455" type="line"/>
      <point x="33" y="456"/>
      <point x="86" y="413"/>
      <point x="86" y="388" type="curve" smooth="yes"/>
      <point x="86" y="145" type="line" smooth="yes"/>
      <point x="86" y="65"/>
      <point x="130" y="12"/>
      <point x="207" y="-4" type="curve"/>
      <point x="183" y="-33"/>
      <point x="172" y="-79"/>
      <point x="172" y="-114" type="curve" smooth="yes"/>
      <point x="172" y="-194"/>
      <point x="227" y="-277"/>
      <point x="327" y="-277" type="curve" smooth="yes"/>
    </contour>
    <contour>
      <point x="275" y="-202"/>
      <point x="247" y="-164"/>
      <point x="247" y="-112" type="curve" smooth="yes"/>
      <point x="247" y="-64"/>
      <point x="268" y="-39"/>
      <point x="314" y="-14" type="curve" smooth="yes"/>
      <point x="363" y="11" type="line"/>
      <point x="381" y="21"/>
      <point x="400" y="34"/>
      <point x="417" y="50" type="curve"/>
      <point x="408" y="42" type="line"/>
      <point x="408" y="-106" type="line" smooth="yes"/>
      <point x="408" y="-164"/>
      <point x="377" y="-202"/>
      <point x="326" y="-202" type="curve" smooth="yes"/>
    </contour>
    <contour>
      <point x="284" y="496" type="move" name="top"/>
    </contour>
  </outline>
</glyph>
<glyph name="z" format="1">
  <advance width="469"/>
  <unicode hex="007A"/>
  <outline>
    <contour>
      <point x="114" y="37" type="line"/>
      <point x="202" y="9" type="line" smooth="yes"/>
      <point x="242" y="-5"/>
      <point x="288" y="-13"/>
      <point x="326" y="-13" type="curve" smooth="yes"/>
      <point x="378" y="-13"/>
      <point x="414" y="3"/>
      <point x="458" y="37" type="curve"/>
      <point x="423" y="100" type="line"/>
      <point x="374" y="65"/>
      <point x="355" y="61"/>
      <point x="324" y="61" type="curve" smooth="yes"/>
      <point x="292" y="61"/>
      <point x="256" y="66"/>
      <point x="221" y="79" type="curve" smooth="yes"/>
      <point x="158" y="101" type="line"/>
      <point x="416" y="478" type="line"/>
      <point x="416" y="506" type="line"/>
      <point x="52" y="506" type="line"/>
      <point x="52" y="432" type="line"/>
      <point x="291" y="432" type="line"/>
      <point x="11" y="21" type="line"/>
      <point x="71" y="-25" type="line"/>
    </contour>
    <contour>
      <point x="252" y="493" type="move" name="top"/>
    </contour>
  </outline>
</glyph>
<glyph name="bar" format="1">
  <advance width="228"/>
  <unicode hex="007C"/>
  <outline>
    <contour>
      <point x="138" y="-68" type="line"/>
      <point x="138" y="750" type="line"/>
      <point x="56" y="750" type="line"/>
      <point x="56" y="-68" type="line"/>
    </contour>
  </outline>
</glyph>
<glyph name="braceright" format="1">
  <advance width="342"/>
  <unicode hex="007D"/>
  <outline>
    <contour>
      <point x="93" y="-159"/>
      <point x="172" y="-150"/>
      <point x="212" y="-87" type="curve" smooth="yes"/>
      <point x="223" y="-69"/>
      <point x="229" y="-45"/>
      <point x="229" y="-16" type="curve" smooth="yes"/>
      <point x="229" y="25"/>
      <point x="224" y="71"/>
      <point x="213" y="165" type="curve"/>
      <point x="213" y="164" type="line"/>
      <point x="212" y="177"/>
      <point x="210" y="190"/>
      <point x="210" y="200" type="curve" smooth="yes"/>
      <point x="210" y="211"/>
      <point x="211" y="218"/>
      <point x="216" y="224" type="curve"/>
      <point x="215" y="224" type="line"/>
      <point x="225" y="237"/>
      <point x="236" y="242"/>
      <point x="254" y="247" type="curve" smooth="yes"/>
      <point x="267" y="251"/>
      <point x="278" y="253"/>
      <point x="290" y="254" type="curve"/>
      <point x="290" y="329" type="line"/>
      <point x="279" y="329"/>
      <point x="268" y="330"/>
      <point x="255" y="333" type="curve" smooth="yes"/>
      <point x="240" y="337"/>
      <point x="226" y="342"/>
      <point x="216" y="356" type="curve"/>
      <point x="211" y="362"/>
      <point x="210" y="370"/>
      <point x="210" y="382" type="curve" smooth="yes"/>
      <point x="210" y="392"/>
      <point x="212" y="405"/>
      <point x="213" y="418" type="curve"/>
      <point x="213" y="417" type="line"/>
      <point x="220" y="474" type="line"/>
      <point x="226" y="537" type="line"/>
      <point x="228" y="552"/>
      <point x="229" y="571"/>
      <point x="229" y="589" type="curve" smooth="yes"/>
      <point x="229" y="617"/>
      <point x="226" y="648"/>
      <point x="212" y="669" type="curve"/>
      <point x="201" y="687"/>
      <point x="186" y="701"/>
      <point x="169" y="711" type="curve" smooth="yes"/>
      <point x="132" y="732"/>
      <point x="90" y="743"/>
      <point x="43" y="752" type="curve"/>
      <point x="22" y="685" type="line"/>
      <point x="55" y="680"/>
      <point x="98" y="667"/>
      <point x="121" y="652" type="curve" smooth="yes"/>
      <point x="130" y="646"/>
      <point x="136" y="640"/>
      <point x="141" y="631" type="curve"/>
      <point x="145" y="622"/>
      <point x="147" y="611"/>
      <point x="147" y="597" type="curve" smooth="yes"/>
      <point x="147" y="584"/>
      <point x="145" y="570"/>
      <point x="144" y="555" type="curve"/>
      <point x="144" y="556" type="line"/>
      <point x="137" y="496" type="line" smooth="yes"/>
      <point x="132" y="461"/>
      <point x="128" y="409"/>
      <point x="128" y="377" type="curve" smooth="yes"/>
      <point x="128" y="347"/>
      <point x="138" y="324"/>
      <point x="157" y="305" type="curve"/>
      <point x="162" y="299"/>
      <point x="169" y="294"/>
      <point x="175" y="291" type="curve"/>
      <point x="159" y="280"/>
      <point x="145" y="264"/>
      <point x="137" y="247" type="curve"/>
      <point x="136" y="247" type="line"/>
      <point x="130" y="232"/>
      <point x="127" y="215"/>
      <point x="127" y="198" type="curve" smooth="yes"/>
      <point x="127" y="183"/>
      <point x="129" y="167"/>
      <point x="130" y="149" type="curve"/>
      <point x="134" y="105"/>
      <point x="147" y="21"/>
      <point x="147" y="-18" type="curve" smooth="yes"/>
      <point x="147" y="-31"/>
      <point x="145" y="-41"/>
      <point x="141" y="-49" type="curve" smooth="yes"/>
      <point x="123" y="-84"/>
      <point x="65" y="-95"/>
      <point x="22" y="-103" type="curve"/>
      <point x="43" y="-170" type="line"/>
    </contour>
  </outline>
</glyph>
<glyph name="asciitilde" format="2">
	<advance width="577"/>
	<unicode hex="007E"/>
	<outline>
		<contour>
			<point x="86" y="297" type="curve"/>
			<point x="134" y="239" type="line"/>
			<point x="163" y="266"/>
			<point x="188" y="275"/>
			<point x="215" y="275" type="curve"/>
			<point x="261" y="275"/>
			<point x="299" y="242"/>
			<point x="364" y="242" type="curve"/>
			<point x="416" y="245"/>
			<point x="449" y="255"/>
			<point x="492" y="295" type="curve"/>
			<point x="444" y="353" type="line"/>
			<point x="415" y="327"/>
			<point x="393" y="317"/>
			<point x="362" y="317" type="curve"/>
			<point x="314" y="317"/>
			<point x="292" y="349"/>
			<point x="214" y="349" type="curve"/>
			<point x="162" y="349"/>
			<point x="127" y="332"/>
		</contour>
	</outline>
</glyph>
<glyph name="cent" format="2">
	<advance width="567"/>
	<unicode hex="00A2"/>
	<outline>
		<contour>
			<point x="255" y="65" type="curve"/>
			<point x="255" y="-51" type="line"/>
			<point x="337" y="-51" type="line"/>
			<point x="337" y="62" type="line"/>
			<point x="368" y="65"/>
			<point x="395" y="73"/>
			<point x="417" y="81" type="curve"/>
			<point x="462" y="97"/>
			<point x="491" y="119"/>
			<point x="500" y="127" type="curve"/>
			<point x="464" y="185" type="line"/>
			<point x="425" y="167"/>
			<point x="394" y="144"/>
			<point x="337" y="137" type="curve"/>
			<point x="337" y="512" type="line"/>
			<point x="358" y="506"/>
			<point x="375" y="496"/>
			<point x="385" y="486" type="curve"/>
			<point x="403" y="468"/>
			<point x="408" y="444"/>
			<point x="406" y="417" type="curve"/>
			<point x="485" y="417" type="line"/>
			<point x="488" y="463"/>
			<point x="471" y="506"/>
			<point x="439" y="537" type="curve"/>
			<point x="417" y="558"/>
			<point x="379" y="577"/>
			<point x="337" y="584" type="curve"/>
			<point x="337" y="685" type="line"/>
			<point x="255" y="685" type="line"/>
			<point x="255" y="582" type="line"/>
			<point x="203" y="571"/>
			<point x="158" y="538"/>
			<point x="127" y="493" type="curve"/>
			<point x="94" y="446"/>
			<point x="77" y="388"/>
			<point x="77" y="317" type="curve"/>
			<point x="77" y="248"/>
			<point x="93" y="188"/>
			<point x="122" y="145" type="curve"/>
			<point x="151" y="103"/>
			<point x="197" y="76"/>
		</contour>
		<contour>
			<point x="255" y="508" type="curve"/>
			<point x="255" y="143" type="line"/>
			<point x="227" y="152"/>
			<point x="206" y="167"/>
			<point x="187" y="192" type="curve"/>
			<point x="165" y="221"/>
			<point x="154" y="254"/>
			<point x="154" y="305" type="curve"/>
			<point x="154" y="352"/>
			<point x="163" y="399"/>
			<point x="184" y="438" type="curve"/>
			<point x="199" y="467"/>
			<point x="222" y="495"/>
		</contour>
	</outline>
</glyph>
<glyph name="sterling" format="1">
  <advance width="584"/>
  <unicode hex="00A3"/>
  <outline>
    <contour>
      <point x="424" y="-13"/>
      <point x="468" y="4"/>
      <point x="509" y="37" type="curve"/>
      <point x="474" y="105" type="line"/>
      <point x="433" y="75"/>
      <point x="406" y="64"/>
      <point x="372" y="64" type="curve" smooth="yes"/>
      <point x="358" y="64"/>
      <point x="344" y="66"/>
      <point x="326" y="70" type="curve"/>
      <point x="306" y="73"/>
      <point x="299" y="75"/>
      <point x="211" y="105" type="curve"/>
      <point x="211" y="113" type="line"/>
      <point x="212" y="131" type="line"/>
      <point x="212" y="293" type="line"/>
      <point x="361" y="293" type="line"/>
      <point x="361" y="372" type="line"/>
      <point x="212" y="372" type="line"/>
      <point x="212" y="482" type="line" smooth="yes"/>
      <point x="212" y="518"/>
      <point x="221" y="544"/>
      <point x="241" y="564" type="curve" smooth="yes"/>
      <point x="260" y="583"/>
      <point x="288" y="592"/>
      <point x="328" y="592" type="curve" smooth="yes"/>
      <point x="370" y="592"/>
      <point x="402" y="587"/>
      <point x="457" y="571" type="curve"/>
      <point x="457" y="645" type="line"/>
      <point x="418" y="660"/>
      <point x="376" y="666"/>
      <point x="335" y="666" type="curve" smooth="yes"/>
      <point x="275" y="666"/>
      <point x="218" y="652"/>
      <point x="179" y="615" type="curve" smooth="yes"/>
      <point x="143" y="580"/>
      <point x="129" y="533"/>
      <point x="129" y="482" type="curve" smooth="yes"/>
      <point x="129" y="372" type="line"/>
      <point x="50" y="372" type="line"/>
      <point x="50" y="293" type="line"/>
      <point x="129" y="293" type="line"/>
      <point x="129" y="131" type="line" smooth="yes"/>
      <point x="129" y="104"/>
      <point x="127" y="84"/>
      <point x="121" y="69" type="curve" smooth="yes"/>
      <point x="112" y="47"/>
      <point x="105" y="31"/>
      <point x="96" y="15" type="curve"/>
      <point x="156" y="-12" type="line"/>
      <point x="168" y="-10" type="line"/>
      <point x="175" y="-4"/>
      <point x="184" y="14"/>
      <point x="191" y="29" type="curve"/>
      <point x="253" y="9" type="line"/>
      <point x="272" y="2"/>
      <point x="292" y="-3"/>
      <point x="313" y="-7" type="curve" smooth="yes"/>
      <point x="334" y="-11"/>
      <point x="358" y="-13"/>
      <point x="383" y="-13" type="curve" smooth="yes"/>
    </contour>
  </outline>
</glyph>
<glyph name="currency" format="1">
  <advance width="711"/>
  <unicode hex="00A4"/>
  <outline>
    <contour>
      <point x="211" y="89" type="line"/>
      <point x="227" y="79"/>
      <point x="245" y="70"/>
      <point x="264" y="64" type="curve" smooth="yes"/>
      <point x="286" y="57"/>
      <point x="312" y="53"/>
      <point x="340" y="53" type="curve" smooth="yes"/>
      <point x="368" y="53"/>
      <point x="394" y="57"/>
      <point x="416" y="65" type="curve" smooth="yes"/>
      <point x="435" y="72"/>
      <point x="453" y="81"/>
      <point x="469" y="90" type="curve"/>
      <point x="575" y="-15" type="line"/>
      <point x="633" y="44" type="line"/>
      <point x="531" y="146" type="line"/>
      <point x="543" y="164"/>
      <point x="554" y="184"/>
      <point x="561" y="205" type="curve" smooth="yes"/>
      <point x="569" y="229"/>
      <point x="573" y="259"/>
      <point x="573" y="290" type="curve" smooth="yes"/>
      <point x="573" y="347"/>
      <point x="559" y="397"/>
      <point x="532" y="435" type="curve"/>
      <point x="633" y="537" type="line"/>
      <point x="575" y="596" type="line"/>
      <point x="470" y="491" type="line"/>
      <point x="454" y="501"/>
      <point x="435" y="510"/>
      <point x="417" y="516" type="curve" smooth="yes"/>
      <point x="394" y="524"/>
      <point x="368" y="528"/>
      <point x="340" y="528" type="curve" smooth="yes"/>
      <point x="312" y="528"/>
      <point x="286" y="524"/>
      <point x="264" y="516" type="curve" smooth="yes"/>
      <point x="246" y="510"/>
      <point x="228" y="501"/>
      <point x="212" y="491" type="curve"/>
      <point x="107" y="596" type="line"/>
      <point x="49" y="537" type="line"/>
      <point x="150" y="435" type="line"/>
      <point x="137" y="417"/>
      <point x="127" y="397"/>
      <point x="120" y="376" type="curve" smooth="yes"/>
      <point x="111" y="351"/>
      <point x="107" y="321"/>
      <point x="107" y="290" type="curve" smooth="yes"/>
      <point x="107" y="232"/>
      <point x="121" y="183"/>
      <point x="149" y="144" type="curve"/>
      <point x="49" y="44" type="line"/>
      <point x="107" y="-15" type="line"/>
    </contour>
    <contour>
      <point x="317" y="128"/>
      <point x="298" y="131"/>
      <point x="279" y="139" type="curve" smooth="yes"/>
      <point x="260" y="147"/>
      <point x="246" y="157"/>
      <point x="233" y="172" type="curve" smooth="yes"/>
      <point x="220" y="186"/>
      <point x="210" y="202"/>
      <point x="202" y="223" type="curve" smooth="yes"/>
      <point x="195" y="243"/>
      <point x="192" y="265"/>
      <point x="192" y="290" type="curve" smooth="yes"/>
      <point x="192" y="315"/>
      <point x="195" y="337"/>
      <point x="202" y="358" type="curve" smooth="yes"/>
      <point x="209" y="379"/>
      <point x="219" y="395"/>
      <point x="232" y="409" type="curve" smooth="yes"/>
      <point x="245" y="423"/>
      <point x="260" y="433"/>
      <point x="279" y="441" type="curve" smooth="yes"/>
      <point x="299" y="449"/>
      <point x="306" y="452"/>
      <point x="341" y="452" type="curve" smooth="yes"/>
      <point x="388" y="452"/>
      <point x="422" y="439"/>
      <point x="450" y="410" type="curve"/>
      <point x="477" y="380"/>
      <point x="490" y="343"/>
      <point x="490" y="292" type="curve" smooth="yes"/>
      <point x="490" y="267"/>
      <point x="487" y="246"/>
      <point x="480" y="225" type="curve" smooth="yes"/>
      <point x="473" y="204"/>
      <point x="463" y="188"/>
      <point x="450" y="173" type="curve"/>
      <point x="436" y="159"/>
      <point x="421" y="148"/>
      <point x="403" y="140" type="curve" smooth="yes"/>
      <point x="384" y="131"/>
      <point x="364" y="128"/>
      <point x="341" y="128" type="curve" smooth="yes"/>
    </contour>
  </outline>
</glyph>
<glyph name="yen" format="1">
  <advance width="641"/>
  <unicode hex="00A5"/>
  <outline>
    <contour>
      <point x="349" y="-1" type="line"/>
      <point x="349" y="163" type="line"/>
      <point x="534" y="163" type="line"/>
      <point x="534" y="238" type="line"/>
      <point x="349" y="238" type="line"/>
      <point x="349" y="300" type="line"/>
      <point x="353" y="308" type="line"/>
      <point x="533" y="308" type="line"/>
      <point x="533" y="384" type="line"/>
      <point x="397" y="384" type="line"/>
      <point x="572" y="663" type="line"/>
      <point x="477" y="663" type="line"/>
      <point x="307" y="390" type="line"/>
      <point x="134" y="663" type="line"/>
      <point x="39" y="663" type="line"/>
      <point x="217" y="384" type="line"/>
      <point x="78" y="384" type="line"/>
      <point x="78" y="308" type="line"/>
      <point x="261" y="308" type="line"/>
      <point x="265" y="300" type="line"/>
      <point x="265" y="238" type="line"/>
      <point x="79" y="238" type="line"/>
      <point x="79" y="163" type="line"/>
      <point x="267" y="163" type="line"/>
      <point x="267" y="-1" type="line"/>
    </contour>
  </outline>
</glyph>
<glyph name="brokenbar" format="1">
  <advance width="220"/>
  <unicode hex="00A6"/>
  <outline>
    <contour>
      <point x="137" y="368" type="line"/>
      <point x="137" y="750" type="line"/>
      <point x="55" y="750" type="line"/>
      <point x="55" y="368" type="line"/>
    </contour>
    <contour>
      <point x="137" y="-68" type="line"/>
      <point x="137" y="314" type="line"/>
      <point x="55" y="314" type="line"/>
      <point x="55" y="-68" type="line"/>
    </contour>
  </outline>
</glyph>
<glyph name="section" format="2">
	<advance width="442"/>
	<unicode hex="00A7"/>
	<outline>
		<contour>
			<point x="106" y="7" type="curve"/>
			<point x="124" y="-67" type="line"/>
			<point x="193" y="-57"/>
			<point x="250" y="-38"/>
			<point x="285" y="-15" type="curve"/>
			<point x="319" y="8"/>
			<point x="342" y="42"/>
			<point x="342" y="87" type="curve"/>
			<point x="342" y="117"/>
			<point x="332" y="144"/>
			<point x="316" y="167" type="curve"/>
			<point x="329" y="175"/>
			<point x="337" y="182"/>
			<point x="343" y="190" type="curve"/>
			<point x="362" y="215"/>
			<point x="371" y="252"/>
			<point x="371" y="283" type="curve"/>
			<point x="371" y="327"/>
			<point x="353" y="360"/>
			<point x="319" y="390" type="curve"/>
			<point x="288" y="419"/>
			<point x="259" y="433"/>
			<point x="229" y="456" type="curve"/>
			<point x="205" y="475"/>
			<point x="186" y="494"/>
			<point x="186" y="523" type="curve"/>
			<point x="186" y="542"/>
			<point x="193" y="557"/>
			<point x="215" y="568" type="curve"/>
			<point x="233" y="578"/>
			<point x="276" y="592"/>
			<point x="335" y="603" type="curve"/>
			<point x="317" y="677" type="line"/>
			<point x="247" y="668"/>
			<point x="192" y="648"/>
			<point x="157" y="625" type="curve"/>
			<point x="119" y="600"/>
			<point x="100" y="565"/>
			<point x="100" y="522" type="curve"/>
			<point x="100" y="493"/>
			<point x="109" y="466"/>
			<point x="124" y="444" type="curve"/>
			<point x="116" y="438"/>
			<point x="106" y="430"/>
			<point x="98" y="420" type="curve"/>
			<point x="83" y="399"/>
			<point x="71" y="368"/>
			<point x="71" y="330" type="curve"/>
			<point x="71" y="285"/>
			<point x="88" y="251"/>
			<point x="122" y="220" type="curve"/>
			<point x="153" y="192"/>
			<point x="183" y="177"/>
			<point x="212" y="154" type="curve"/>
			<point x="237" y="135"/>
			<point x="255" y="117"/>
			<point x="255" y="87" type="curve"/>
			<point x="255" y="64"/>
			<point x="246" y="52"/>
			<point x="226" y="42" type="curve"/>
			<point x="202" y="29"/>
			<point x="157" y="17"/>
		</contour>
		<contour>
			<point x="258" y="223" type="curve"/>
			<point x="258" y="223" type="line"/>
			<point x="235" y="240"/>
			<point x="210" y="253"/>
			<point x="188" y="271" type="curve"/>
			<point x="167" y="289"/>
			<point x="154" y="304"/>
			<point x="154" y="330" type="curve"/>
			<point x="154" y="355"/>
			<point x="164" y="374"/>
			<point x="184" y="387" type="curve"/>
			<point x="206" y="370"/>
			<point x="231" y="356"/>
			<point x="254" y="338" type="curve"/>
			<point x="273" y="321"/>
			<point x="287" y="306"/>
			<point x="287" y="280" type="curve"/>
			<point x="287" y="261"/>
			<point x="281" y="237"/>
		</contour>
	</outline>
</glyph>
<glyph name="copyright" format="2">
	<advance width="760"/>
	<unicode hex="00A9"/>
	<guideline x="595" y="83" angle="0"/>
	<guideline x="586" y="419" angle="0"/>
	<anchor x="392" y="414" name="top"/>
	<anchor x="380" y="112" name="bottom"/>
	<outline>
		<contour>
			<point x="382" y="85" type="curve"/>
			<point x="382" y="85" type="line"/>
			<point x="430" y="85"/>
			<point x="480" y="104"/>
			<point x="518" y="136" type="curve"/>
			<point x="486" y="200" type="line"/>
			<point x="453" y="176"/>
			<point x="422" y="157"/>
			<point x="385" y="157" type="curve"/>
			<point x="337" y="157"/>
			<point x="305" y="196"/>
			<point x="305" y="254" type="curve"/>
			<point x="305" y="305"/>
			<point x="332" y="354"/>
			<point x="387" y="354" type="curve"/>
			<point x="419" y="354"/>
			<point x="429" y="347"/>
			<point x="449" y="323" type="curve"/>
			<point x="494" y="380" type="line"/>
			<point x="493" y="391"/>
			<point x="451" y="426"/>
			<point x="387" y="426" type="curve"/>
			<point x="288" y="426"/>
			<point x="228" y="349"/>
			<point x="228" y="256" type="curve"/>
			<point x="228" y="161"/>
			<point x="288" y="85"/>
		</contour>
		<component base="_circle" xOffset="4" yOffset="10"/>
	</outline>
</glyph>
<glyph name="ordfeminine" format="2">
	<advance width="351"/>
	<unicode hex="00AA"/>
	<outline>
		<contour>
			<point x="153" y="386" type="curve" smooth="yes"/>
			<point x="179" y="386"/>
			<point x="203" y="395"/>
			<point x="220" y="409" type="curve"/>
			<point x="231" y="395"/>
			<point x="248" y="386"/>
			<point x="269" y="386" type="curve" smooth="yes"/>
			<point x="298" y="386"/>
			<point x="315" y="403"/>
			<point x="329" y="425" type="curve"/>
			<point x="291" y="465" type="line"/>
			<point x="290" y="459"/>
			<point x="287" y="451"/>
			<point x="280" y="448" type="curve" smooth="yes"/>
			<point x="275" y="446"/>
			<point x="273" y="452"/>
			<point x="273" y="457" type="curve"/>
			<point x="272" y="672" type="line"/>
			<point x="222" y="672" type="line" smooth="yes"/>
			<point x="209" y="672"/>
			<point x="181" y="676"/>
			<point x="164" y="676" type="curve" smooth="yes"/>
			<point x="93" y="676"/>
			<point x="32" y="614"/>
			<point x="32" y="535" type="curve" smooth="yes"/>
			<point x="32" y="473"/>
			<point x="69" y="386"/>
		</contour>
		<contour>
			<point x="152" y="455" type="curve" smooth="yes"/>
			<point x="119" y="455"/>
			<point x="100" y="495"/>
			<point x="100" y="532" type="curve" smooth="yes"/>
			<point x="100" y="578"/>
			<point x="130" y="606"/>
			<point x="171" y="606" type="curve" smooth="yes"/>
			<point x="176" y="606"/>
			<point x="179" y="605"/>
			<point x="189" y="604" type="curve" smooth="yes"/>
			<point x="204" y="603" type="line"/>
			<point x="204" y="502" type="line"/>
			<point x="199" y="490" type="line"/>
			<point x="192" y="475"/>
			<point x="177" y="455"/>
		</contour>
	</outline>
</glyph>
<glyph name="guillemetleft" format="1">
  <advance width="626"/>
  <unicode hex="00AB"/>
  <outline>
    <contour>
      <point x="548" y="70" type="line"/>
      <point x="339" y="255" type="line"/>
      <point x="548" y="439" type="line"/>
      <point x="496" y="496" type="line"/>
      <point x="288" y="310" type="line" smooth="yes"/>
      <point x="266" y="290"/>
      <point x="253" y="270"/>
      <point x="253" y="255" type="curve" smooth="yes"/>
      <point x="253" y="237"/>
      <point x="266" y="218"/>
      <point x="288" y="199" type="curve" smooth="yes"/>
      <point x="496" y="13" type="line"/>
    </contour>
    <contour>
      <point x="344" y="70" type="line"/>
      <point x="135" y="255" type="line"/>
      <point x="344" y="439" type="line"/>
      <point x="292" y="496" type="line"/>
      <point x="84" y="310" type="line" smooth="yes"/>
      <point x="62" y="290"/>
      <point x="49" y="270"/>
      <point x="49" y="255" type="curve" smooth="yes"/>
      <point x="49" y="237"/>
      <point x="62" y="218"/>
      <point x="84" y="199" type="curve" smooth="yes"/>
      <point x="292" y="13" type="line"/>
    </contour>
  </outline>
</glyph>
<glyph name="logicalnot" format="2">
	<advance width="539"/>
	<unicode hex="00AC"/>
	<outline>
		<contour>
			<point x="358" y="142" type="line"/>
			<point x="442" y="142" type="line"/>
			<point x="442" y="335" type="line"/>
			<point x="69" y="335" type="line"/>
			<point x="69" y="256" type="line"/>
			<point x="358" y="256" type="line"/>
		</contour>
	</outline>
</glyph>
<glyph name="registered" format="1">
  <advance width="746"/>
  <unicode hex="00AE"/>
  <outline>
    <contour>
      <point x="532" y="113"/>
      <point x="664" y="238"/>
      <point x="664" y="420" type="curve" smooth="yes"/>
      <point x="664" y="597"/>
      <point x="538" y="727"/>
      <point x="359" y="727" type="curve" smooth="yes"/>
      <point x="183" y="727"/>
      <point x="53" y="602"/>
      <point x="53" y="420" type="curve" smooth="yes"/>
      <point x="53" y="241"/>
      <point x="179" y="113"/>
      <point x="357" y="113" type="curve" smooth="yes"/>
    </contour>
    <contour>
      <point x="220" y="182"/>
      <point x="128" y="278"/>
      <point x="128" y="420" type="curve" smooth="yes"/>
      <point x="128" y="561"/>
      <point x="220" y="657"/>
      <point x="359" y="657" type="curve" smooth="yes"/>
      <point x="496" y="657"/>
      <point x="588" y="565"/>
      <point x="588" y="423" type="curve" smooth="yes"/>
      <point x="588" y="285"/>
      <point x="500" y="182"/>
      <point x="358" y="182" type="curve" smooth="yes"/>
    </contour>
    <contour>
      <point x="327" y="232" type="line"/>
      <point x="327" y="377" type="line"/>
      <point x="337" y="377" type="line" smooth="yes"/>
      <point x="373" y="377"/>
      <point x="395" y="361"/>
      <point x="408" y="328" type="curve" smooth="yes"/>
      <point x="443" y="234" type="line"/>
      <point x="510" y="263" type="line"/>
      <point x="469" y="363" type="line"/>
      <point x="463" y="376"/>
      <point x="454" y="390"/>
      <point x="442" y="400" type="curve"/>
      <point x="468" y="418"/>
      <point x="487" y="449"/>
      <point x="487" y="487" type="curve" smooth="yes"/>
      <point x="487" y="551"/>
      <point x="434" y="598"/>
      <point x="363" y="598" type="curve" smooth="yes"/>
      <point x="339" y="598"/>
      <point x="324" y="593"/>
      <point x="305" y="593" type="curve" smooth="yes"/>
      <point x="304" y="593" type="line"/>
      <point x="258" y="591" type="line"/>
      <point x="257" y="559"/>
      <point x="257" y="526"/>
      <point x="257" y="493" type="curve" smooth="yes"/>
      <point x="257" y="331" type="line"/>
      <point x="258" y="232" type="line"/>
    </contour>
    <contour>
      <point x="327" y="527" type="line"/>
      <point x="343" y="530"/>
      <point x="355" y="530"/>
      <point x="357" y="530" type="curve" smooth="yes"/>
      <point x="395" y="530"/>
      <point x="418" y="514"/>
      <point x="418" y="484" type="curve" smooth="yes"/>
      <point x="418" y="458"/>
      <point x="402" y="439"/>
      <point x="372" y="439" type="curve" smooth="yes"/>
      <point x="327" y="439" type="line"/>
    </contour>
  </outline>
</glyph>
<glyph name="macron" format="1">
  <advance width="459"/>
  <unicode hex="00AF"/>
  <outline>
    <contour>
      <point x="355" y="588" type="line"/>
      <point x="355" y="666" type="line"/>
      <point x="75" y="666" type="line"/>
      <point x="75" y="588" type="line"/>
    </contour>
    <contour>
      <point x="215" y="500" type="move" name="_top"/>
    </contour>
  </outline>
</glyph>
<glyph name="degree" format="2">
	<advance width="454"/>
	<unicode hex="00B0"/>
	<outline>
		<contour>
			<point x="225" y="384" type="curve"/>
			<point x="225" y="384" type="line"/>
			<point x="293" y="384"/>
			<point x="367" y="427"/>
			<point x="367" y="524" type="curve"/>
			<point x="367" y="610"/>
			<point x="309" y="667"/>
			<point x="228" y="667" type="curve"/>
			<point x="160" y="667"/>
			<point x="87" y="624"/>
			<point x="87" y="526" type="curve"/>
			<point x="87" y="441"/>
			<point x="145" y="384"/>
		</contour>
		<contour>
			<point x="227" y="454" type="curve"/>
			<point x="227" y="454" type="line"/>
			<point x="186" y="454"/>
			<point x="162" y="483"/>
			<point x="162" y="524" type="curve"/>
			<point x="162" y="565"/>
			<point x="186" y="596"/>
			<point x="227" y="596" type="curve"/>
			<point x="268" y="596"/>
			<point x="292" y="568"/>
			<point x="292" y="525" type="curve"/>
			<point x="292" y="483"/>
			<point x="267" y="454"/>
		</contour>
	</outline>
</glyph>
<glyph name="plusminus" format="2">
	<advance width="520"/>
	<unicode hex="00B1"/>
	<outline>
		<contour>
			<point x="221" y="103" type="line"/>
			<point x="299" y="103" type="line"/>
			<point x="299" y="259" type="line"/>
			<point x="452" y="259" type="line"/>
			<point x="452" y="332" type="line"/>
			<point x="299" y="332" type="line"/>
			<point x="299" y="487" type="line"/>
			<point x="221" y="487" type="line"/>
			<point x="221" y="332" type="line"/>
			<point x="68" y="332" type="line"/>
			<point x="68" y="259" type="line"/>
			<point x="221" y="259" type="line"/>
		</contour>
		<contour>
			<point x="68" y="-1" type="line"/>
			<point x="452" y="-1" type="line"/>
			<point x="452" y="73" type="line"/>
			<point x="68" y="73" type="line"/>
		</contour>
	</outline>
</glyph>
<glyph name="acute" format="2">
	<advance width="260"/>
	<unicode hex="00B4"/>
	<anchor x="62" y="496" name="_top"/>
	<outline>
		<contour>
			<point x="53" y="545" type="line"/>
			<point x="240" y="665" type="line"/>
			<point x="190" y="732" type="line"/>
			<point x="19" y="597" type="line"/>
		</contour>
	</outline>
</glyph>
<glyph name="micro" format="1">
  <advance width="540"/>
  <unicode hex="00B5"/>
  <outline>
    <contour>
      <point x="122" y="-243" type="line"/>
      <point x="122" y="8" type="line"/>
      <point x="131" y="4"/>
      <point x="141" y="0"/>
      <point x="152" y="-3" type="curve" smooth="yes"/>
      <point x="170" y="-8"/>
      <point x="192" y="-10"/>
      <point x="216" y="-10" type="curve" smooth="yes"/>
      <point x="277" y="-10"/>
      <point x="330" y="17"/>
      <point x="371" y="68" type="curve"/>
      <point x="374" y="58"/>
      <point x="378" y="48"/>
      <point x="382" y="39" type="curve"/>
      <point x="393" y="20"/>
      <point x="410" y="1"/>
      <point x="431" y="-12" type="curve"/>
      <point x="479" y="35" type="line"/>
      <point x="450" y="61"/>
      <point x="436" y="98"/>
      <point x="436" y="151" type="curve" smooth="yes"/>
      <point x="436" y="506" type="line"/>
      <point x="359" y="506" type="line"/>
      <point x="359" y="156" type="line"/>
      <point x="338" y="127"/>
      <point x="317" y="104"/>
      <point x="295" y="88" type="curve" smooth="yes"/>
      <point x="274" y="72"/>
      <point x="251" y="64"/>
      <point x="221" y="64" type="curve" smooth="yes"/>
      <point x="183" y="64"/>
      <point x="160" y="70"/>
      <point x="144" y="87" type="curve" smooth="yes"/>
      <point x="128" y="105"/>
      <point x="121" y="134"/>
      <point x="123" y="180" type="curve"/>
      <point x="122" y="180" type="line"/>
      <point x="122" y="506" type="line"/>
      <point x="45" y="506" type="line"/>
      <point x="45" y="-243" type="line"/>
    </contour>
  </outline>
</glyph>
<glyph name="paragraph" format="2">
	<advance width="653"/>
	<unicode hex="00B6"/>
	<outline>
		<contour>
			<point x="270" y="243" type="curve"/>
			<point x="270" y="0" type="line"/>
			<point x="350" y="0" type="line"/>
			<point x="350" y="540" type="line"/>
			<point x="456" y="540" type="line"/>
			<point x="456" y="0" type="line"/>
			<point x="536" y="0" type="line"/>
			<point x="536" y="618" type="line"/>
			<point x="446" y="621" type="line"/>
			<point x="352" y="621" type="line" smooth="yes"/>
			<point x="247" y="621"/>
			<point x="172" y="607"/>
			<point x="131" y="578" type="curve"/>
			<point x="88" y="549"/>
			<point x="66" y="498"/>
			<point x="66" y="429" type="curve"/>
			<point x="66" y="373"/>
			<point x="82" y="327"/>
			<point x="112" y="297" type="curve"/>
			<point x="142" y="269"/>
			<point x="196" y="251"/>
		</contour>
	</outline>
</glyph>
<glyph name="periodcentered" format="2">
	<advance width="285"/>
	<unicode hex="00B7"/>
	<anchor x="102" y="271" name="_center"/>
	<outline>
		<contour>
			<point x="143" y="258" type="curve"/>
			<point x="143" y="258" type="line"/>
			<point x="179" y="258"/>
			<point x="212" y="291"/>
			<point x="212" y="328" type="curve"/>
			<point x="212" y="365"/>
			<point x="179" y="397"/>
			<point x="143" y="397" type="curve"/>
			<point x="106" y="397"/>
			<point x="73" y="365"/>
			<point x="73" y="328" type="curve"/>
			<point x="73" y="291"/>
			<point x="106" y="258"/>
		</contour>
	</outline>
</glyph>
<glyph name="cedilla" format="1">
  <advance width="281"/>
  <unicode hex="00B8"/>
  <outline>
    <contour>
      <point x="159" y="-232"/>
      <point x="202" y="-167"/>
      <point x="202" y="-112" type="curve" smooth="yes"/>
      <point x="202" y="-73"/>
      <point x="181" y="-29"/>
      <point x="135" y="-17" type="curve"/>
      <point x="146" y="33" type="line"/>
      <point x="62" y="33" type="line"/>
      <point x="50" y="-83" type="line"/>
      <point x="93" y="-83" type="line" smooth="yes"/>
      <point x="117" y="-83"/>
      <point x="128" y="-93"/>
      <point x="128" y="-111" type="curve" smooth="yes"/>
      <point x="128" y="-131"/>
      <point x="114" y="-151"/>
      <point x="93" y="-151" type="curve" smooth="yes"/>
      <point x="89" y="-151"/>
      <point x="85" y="-150"/>
      <point x="81" y="-149" type="curve"/>
      <point x="81" y="-225" type="line"/>
    </contour>
    <contour>
      <point x="102" y="11" type="move" name="_bottom"/>
    </contour>
  </outline>
</glyph>
<glyph name="ordmasculine" format="1">
  <advance width="357"/>
  <unicode hex="00BA"/>
  <outline>
    <contour>
      <point x="221" y="397"/>
      <point x="257" y="412"/>
      <point x="285" y="442" type="curve" smooth="yes"/>
      <point x="305" y="464"/>
      <point x="325" y="500"/>
      <point x="325" y="550" type="curve" smooth="yes"/>
      <point x="325" y="593"/>
      <point x="311" y="631"/>
      <point x="285" y="658" type="curve" smooth="yes"/>
      <point x="258" y="686"/>
      <point x="220" y="701"/>
      <point x="178" y="701" type="curve" smooth="yes"/>
      <point x="135" y="701"/>
      <point x="98" y="685"/>
      <point x="71" y="657" type="curve" smooth="yes"/>
      <point x="44" y="629"/>
      <point x="31" y="587"/>
      <point x="31" y="549" type="curve" smooth="yes"/>
      <point x="31" y="510"/>
      <point x="45" y="469"/>
      <point x="71" y="441" type="curve" smooth="yes"/>
      <point x="97" y="413"/>
      <point x="136" y="397"/>
      <point x="179" y="397" type="curve" smooth="yes"/>
    </contour>
    <contour>
      <point x="156" y="464"/>
      <point x="137" y="469"/>
      <point x="122" y="487" type="curve" smooth="yes"/>
      <point x="107" y="505"/>
      <point x="102" y="527"/>
      <point x="102" y="558" type="curve" smooth="yes"/>
      <point x="102" y="604"/>
      <point x="132" y="634"/>
      <point x="178" y="634" type="curve" smooth="yes"/>
      <point x="199" y="634"/>
      <point x="219" y="628"/>
      <point x="234" y="612" type="curve" smooth="yes"/>
      <point x="247" y="598"/>
      <point x="255" y="581"/>
      <point x="255" y="552" type="curve" smooth="yes"/>
      <point x="255" y="526"/>
      <point x="248" y="505"/>
      <point x="234" y="488" type="curve" smooth="yes"/>
      <point x="219" y="470"/>
      <point x="199" y="464"/>
      <point x="176" y="464" type="curve" smooth="yes"/>
    </contour>
  </outline>
</glyph>
<glyph name="AE" format="2">
	<advance width="962"/>
	<unicode hex="00C6"/>
	<anchor x="554" y="673" name="top"/>
	<anchor x="543" y="0" name="bottom"/>
	<outline>
		<contour>
			<point x="107" y="-12" type="curve"/>
			<point x="107" y="-12" type="line"/>
			<point x="143" y="-12"/>
			<point x="179" y="8"/>
			<point x="196" y="44" type="curve"/>
			<point x="286" y="220" type="line"/>
			<point x="483" y="220" type="line"/>
			<point x="483" y="-1" type="line"/>
			<point x="920" y="-1" type="line"/>
			<point x="920" y="75" type="line"/>
			<point x="565" y="75" type="line"/>
			<point x="565" y="325" type="line"/>
			<point x="802" y="325" type="line"/>
			<point x="802" y="401" type="line"/>
			<point x="565" y="401" type="line"/>
			<point x="565" y="610" type="line"/>
			<point x="900" y="610" type="line"/>
			<point x="900" y="686" type="line"/>
			<point x="456" y="686" type="line"/>
			<point x="133" y="93" type="line" smooth="yes"/>
			<point x="123" y="75"/>
			<point x="113" y="67"/>
			<point x="99" y="67" type="curve"/>
			<point x="88" y="67"/>
			<point x="76" y="72"/>
			<point x="66" y="86" type="curve"/>
			<point x="18" y="30" type="line"/>
			<point x="35" y="5"/>
			<point x="66" y="-12"/>
		</contour>
		<contour>
			<point x="483" y="296" type="line"/>
			<point x="330" y="296" type="line"/>
			<point x="462" y="537" type="line"/>
			<point x="483" y="586" type="line"/>
		</contour>
	</outline>
</glyph>
<glyph name="multiply" format="2">
	<advance width="508"/>
	<unicode hex="00D7"/>
	<outline>
		<contour>
			<point x="109" y="67" type="line"/>
			<point x="254" y="213" type="line"/>
			<point x="398" y="68" type="line"/>
			<point x="456" y="127" type="line"/>
			<point x="312" y="271" type="line"/>
			<point x="450" y="409" type="line"/>
			<point x="393" y="465" type="line"/>
			<point x="256" y="326" type="line"/>
			<point x="118" y="465" type="line"/>
			<point x="60" y="407" type="line"/>
			<point x="198" y="268" type="line"/>
			<point x="53" y="124" type="line"/>
		</contour>
	</outline>
</glyph>
<glyph name="Thorn" format="2">
	<advance width="564"/>
	<unicode hex="00DE"/>
	<anchor x="282" y="684" name="top"/>
	<anchor x="282" y="0" name="bottom"/>
	<outline>
		<contour>
			<point x="97" y="686" type="line"/>
			<point x="97" y="-1" type="line"/>
			<point x="179" y="-1" type="line"/>
			<point x="179" y="493" type="line"/>
			<point x="300" y="493" type="line" smooth="yes"/>
			<point x="384" y="493"/>
			<point x="436" y="446"/>
			<point x="436" y="356" type="curve"/>
			<point x="436" y="253"/>
			<point x="367" y="208"/>
			<point x="274" y="208" type="curve"/>
			<point x="251" y="208"/>
			<point x="230" y="211"/>
			<point x="205" y="215" type="curve"/>
			<point x="205" y="138" type="line"/>
			<point x="217" y="136"/>
			<point x="240" y="132"/>
			<point x="271" y="132" type="curve"/>
			<point x="406" y="132"/>
			<point x="518" y="200"/>
			<point x="518" y="353" type="curve"/>
			<point x="518" y="478"/>
			<point x="440" y="562"/>
			<point x="320" y="569" type="curve"/>
			<point x="179" y="569" type="line"/>
			<point x="179" y="686" type="line"/>
		</contour>
	</outline>
</glyph>
<glyph name="germandbls" format="1">
  <advance width="532"/>
  <unicode hex="00DF"/>
  <outline>
    <contour>
      <point x="131" y="-243" type="line"/>
      <point x="131" y="-2" type="line"/>
      <point x="123" y="-2" type="line"/>
      <point x="205" y="-9"/>
      <point x="229" y="-10"/>
      <point x="246" y="-10" type="curve" smooth="yes"/>
      <point x="358" y="-10"/>
      <point x="458" y="35"/>
      <point x="458" y="164" type="curve" smooth="yes"/>
      <point x="458" y="217"/>
      <point x="441" y="266"/>
      <point x="408" y="299" type="curve" smooth="yes"/>
      <point x="356" y="351"/>
      <point x="278" y="362"/>
      <point x="278" y="426" type="curve" smooth="yes"/>
      <point x="278" y="538"/>
      <point x="372" y="449"/>
      <point x="372" y="601" type="curve" smooth="yes"/>
      <point x="372" y="677"/>
      <point x="315" y="735"/>
      <point x="224" y="735" type="curve" smooth="yes"/>
      <point x="89" y="735"/>
      <point x="55" y="617"/>
      <point x="55" y="490" type="curve" smooth="yes"/>
      <point x="55" y="-243" type="line"/>
    </contour>
    <contour>
      <point x="196" y="64"/>
      <point x="156" y="67"/>
      <point x="131" y="70" type="curve"/>
      <point x="131" y="493" type="line" smooth="yes"/>
      <point x="131" y="583"/>
      <point x="143" y="661"/>
      <point x="222" y="661" type="curve" smooth="yes"/>
      <point x="263" y="661"/>
      <point x="293" y="639"/>
      <point x="293" y="597" type="curve" smooth="yes"/>
      <point x="293" y="483"/>
      <point x="203" y="582"/>
      <point x="203" y="422" type="curve" smooth="yes"/>
      <point x="203" y="319"/>
      <point x="288" y="308"/>
      <point x="340" y="261" type="curve" smooth="yes"/>
      <point x="371" y="232"/>
      <point x="383" y="205"/>
      <point x="383" y="163" type="curve" smooth="yes"/>
      <point x="383" y="91"/>
      <point x="342" y="64"/>
      <point x="237" y="64" type="curve" smooth="yes"/>
    </contour>
  </outline>
</glyph>
<glyph name="ae" format="1">
  <advance width="767"/>
  <unicode hex="00E6"/>
  <outline>
    <contour>
      <point x="239" y="-10"/>
      <point x="283" y="3"/>
      <point x="314" y="25" type="curve" smooth="yes"/>
      <point x="342" y="44"/>
      <point x="356" y="68"/>
      <point x="364" y="87" type="curve"/>
      <point x="381" y="57"/>
      <point x="401" y="38"/>
      <point x="424" y="23" type="curve" smooth="yes"/>
      <point x="458" y="1"/>
      <point x="495" y="-10"/>
      <point x="551" y="-10" type="curve" smooth="yes"/>
      <point x="589" y="-10"/>
      <point x="620" y="-5"/>
      <point x="654" y="7" type="curve" smooth="yes"/>
      <point x="690" y="20"/>
      <point x="717" y="34"/>
      <point x="745" y="54" type="curve"/>
      <point x="708" y="114" type="line"/>
      <point x="685" y="101"/>
      <point x="654" y="86"/>
      <point x="626" y="76" type="curve" smooth="yes"/>
      <point x="600" y="67"/>
      <point x="579" y="64"/>
      <point x="552" y="64" type="curve" smooth="yes"/>
      <point x="500" y="64"/>
      <point x="470" y="76"/>
      <point x="446" y="99" type="curve" smooth="yes"/>
      <point x="422" y="123"/>
      <point x="409" y="153"/>
      <point x="403" y="193" type="curve"/>
      <point x="504" y="193" type="line" smooth="yes"/>
      <point x="531" y="193"/>
      <point x="562" y="197"/>
      <point x="586" y="201" type="curve"/>
      <point x="639" y="213"/>
      <point x="685" y="239"/>
      <point x="709" y="279" type="curve"/>
      <point x="722" y="299"/>
      <point x="729" y="325"/>
      <point x="729" y="355" type="curve" smooth="yes"/>
      <point x="729" y="404"/>
      <point x="707" y="445"/>
      <point x="674" y="473" type="curve" smooth="yes"/>
      <point x="639" y="502"/>
      <point x="589" y="516"/>
      <point x="541" y="516" type="curve" smooth="yes"/>
      <point x="496" y="516"/>
      <point x="465" y="504"/>
      <point x="437" y="484" type="curve" smooth="yes"/>
      <point x="416" y="470"/>
      <point x="397" y="452"/>
      <point x="379" y="427" type="curve"/>
      <point x="370" y="449"/>
      <point x="356" y="468"/>
      <point x="338" y="484" type="curve"/>
      <point x="314" y="503"/>
      <point x="283" y="516"/>
      <point x="233" y="516" type="curve" smooth="yes"/>
      <point x="190" y="516"/>
      <point x="161" y="507"/>
      <point x="133" y="496" type="curve" smooth="yes"/>
      <point x="96" y="482"/>
      <point x="69" y="464"/>
      <point x="48" y="444" type="curve"/>
      <point x="86" y="384" type="line"/>
      <point x="107" y="402"/>
      <point x="136" y="418"/>
      <point x="159" y="427" type="curve" smooth="yes"/>
      <point x="176" y="434"/>
      <point x="206" y="442"/>
      <point x="236" y="442" type="curve" smooth="yes"/>
      <point x="262" y="442"/>
      <point x="284" y="436"/>
      <point x="300" y="418" type="curve" smooth="yes"/>
      <point x="315" y="401"/>
      <point x="322" y="378"/>
      <point x="322" y="337" type="curve" smooth="yes"/>
      <point x="322" y="294" type="line"/>
      <point x="239" y="294" type="line" smooth="yes"/>
      <point x="178" y="294"/>
      <point x="82" y="279"/>
      <point x="42" y="214" type="curve" smooth="yes"/>
      <point x="32" y="198"/>
      <point x="23" y="172"/>
      <point x="23" y="138" type="curve" smooth="yes"/>
      <point x="23" y="90"/>
      <point x="42" y="51"/>
      <point x="71" y="27" type="curve" smooth="yes"/>
      <point x="101" y="3"/>
      <point x="147" y="-10"/>
      <point x="192" y="-10" type="curve" smooth="yes"/>
    </contour>
    <contour>
      <point x="142" y="64"/>
      <point x="102" y="74"/>
      <point x="102" y="136" type="curve" smooth="yes"/>
      <point x="102" y="170"/>
      <point x="112" y="192"/>
      <point x="142" y="206" type="curve" smooth="yes"/>
      <point x="168" y="218"/>
      <point x="204" y="222"/>
      <point x="239" y="222" type="curve" smooth="yes"/>
      <point x="322" y="222" type="line"/>
      <point x="322" y="183" type="line" smooth="yes"/>
      <point x="322" y="147"/>
      <point x="309" y="116"/>
      <point x="284" y="95" type="curve" smooth="yes"/>
      <point x="258" y="72"/>
      <point x="223" y="64"/>
      <point x="186" y="64" type="curve" smooth="yes"/>
    </contour>
    <contour>
      <point x="401" y="309"/>
      <point x="414" y="353"/>
      <point x="439" y="388" type="curve" smooth="yes"/>
      <point x="462" y="420"/>
      <point x="495" y="445"/>
      <point x="547" y="445" type="curve" smooth="yes"/>
      <point x="600" y="445"/>
      <point x="651" y="418"/>
      <point x="651" y="355" type="curve" smooth="yes"/>
      <point x="651" y="333"/>
      <point x="645" y="313"/>
      <point x="627" y="297" type="curve"/>
      <point x="599" y="274"/>
      <point x="551" y="267"/>
      <point x="504" y="267" type="curve" smooth="yes"/>
      <point x="399" y="267" type="line"/>
    </contour>
    <contour>
      <point x="382" y="498" type="move" name="top"/>
    </contour>
  </outline>
</glyph>
<glyph name="eth" format="1">
  <advance width="610"/>
  <unicode hex="00F0"/>
  <outline>
    <contour>
      <point x="431" y="-10"/>
      <point x="518" y="92"/>
      <point x="518" y="259" type="curve" smooth="yes"/>
      <point x="518" y="325"/>
      <point x="505" y="364"/>
      <point x="434" y="575" type="curve"/>
      <point x="525" y="604" type="line"/>
      <point x="504" y="680" type="line"/>
      <point x="408" y="650" type="line"/>
      <point x="371" y="751" type="line"/>
      <point x="292" y="727" type="line"/>
      <point x="331" y="626" type="line"/>
      <point x="244" y="597" type="line"/>
      <point x="265" y="521" type="line"/>
      <point x="357" y="550" type="line"/>
      <point x="372" y="508" type="line"/>
      <point x="343" y="512"/>
      <point x="310" y="516"/>
      <point x="285" y="516" type="curve" smooth="yes"/>
      <point x="136" y="516"/>
      <point x="43" y="398"/>
      <point x="43" y="250" type="curve" smooth="yes"/>
      <point x="43" y="104"/>
      <point x="132" y="-10"/>
      <point x="286" y="-10" type="curve" smooth="yes"/>
    </contour>
    <contour>
      <point x="180" y="64"/>
      <point x="121" y="139"/>
      <point x="121" y="256" type="curve" smooth="yes"/>
      <point x="121" y="371"/>
      <point x="180" y="441"/>
      <point x="306" y="441" type="curve" smooth="yes"/>
      <point x="341" y="441"/>
      <point x="359" y="435"/>
      <point x="399" y="428" type="curve"/>
      <point x="428" y="348"/>
      <point x="439" y="298"/>
      <point x="439" y="247" type="curve" smooth="yes"/>
      <point x="439" y="137"/>
      <point x="389" y="64"/>
      <point x="285" y="64" type="curve" smooth="yes"/>
    </contour>
  </outline>
</glyph>
<glyph name="divide" format="1">
  <advance width="505"/>
  <unicode hex="00F7"/>
  <outline>
    <contour>
      <point x="430" y="259" type="line"/>
      <point x="430" y="332" type="line"/>
      <point x="46" y="332" type="line"/>
      <point x="46" y="259" type="line"/>
    </contour>
    <component base="period" xOffset="151" yOffset="113"/>
    <component base="period" xOffset="151" yOffset="403"/>
  </outline>
</glyph>
<glyph name="oslash" format="2">
	<advance width="585"/>
	<unicode hex="00F8"/>
	<anchor x="287" y="496" name="top"/>
	<outline>
		<contour>
			<point x="92" y="16" type="line"/>
			<point x="161" y="-25" type="line"/>
			<point x="182" y="12" type="line"/>
			<point x="216" y="-3"/>
			<point x="254" y="-11"/>
			<point x="291" y="-11" type="curve"/>
			<point x="415" y="-11"/>
			<point x="546" y="80"/>
			<point x="546" y="255" type="curve"/>
			<point x="546" y="331"/>
			<point x="520" y="401"/>
			<point x="466" y="450" type="curve"/>
			<point x="493" y="489" type="line"/>
			<point x="425" y="531" type="line"/>
			<point x="402" y="493" type="line"/>
			<point x="370" y="508"/>
			<point x="329" y="516"/>
			<point x="292" y="516" type="curve"/>
			<point x="142" y="516"/>
			<point x="40" y="398"/>
			<point x="40" y="250" type="curve"/>
			<point x="40" y="177"/>
			<point x="65" y="102"/>
			<point x="119" y="54" type="curve"/>
		</contour>
		<contour>
			<point x="363" y="429" type="curve"/>
			<point x="159" y="118" type="line"/>
			<point x="132" y="151"/>
			<point x="119" y="196"/>
			<point x="119" y="249" type="curve"/>
			<point x="119" y="368"/>
			<point x="190" y="442"/>
			<point x="301" y="442" type="curve"/>
			<point x="331" y="442"/>
			<point x="349" y="437"/>
		</contour>
		<contour>
			<point x="292" y="63" type="curve"/>
			<point x="292" y="63" type="line"/>
			<point x="270" y="63"/>
			<point x="247" y="66"/>
			<point x="225" y="74" type="curve"/>
			<point x="427" y="387" type="line"/>
			<point x="454" y="356"/>
			<point x="467" y="314"/>
			<point x="467" y="260" type="curve"/>
			<point x="467" y="131"/>
			<point x="385" y="63"/>
		</contour>
	</outline>
</glyph>
<glyph name="thorn" format="2">
	<advance width="530"/>
	<unicode hex="00FE"/>
	<outline>
		<contour>
			<point x="72" y="-242" type="line"/>
			<point x="148" y="-242" type="line"/>
			<point x="148" y="-2" type="line"/>
			<point x="183" y="-6"/>
			<point x="226" y="-9"/>
			<point x="252" y="-9" type="curve" smooth="yes"/>
			<point x="409" y="-9"/>
			<point x="501" y="106"/>
			<point x="501" y="256" type="curve" smooth="yes"/>
			<point x="501" y="392"/>
			<point x="426" y="516"/>
			<point x="282" y="516" type="curve" smooth="yes"/>
			<point x="235" y="516"/>
			<point x="183" y="502"/>
			<point x="145" y="462" type="curve"/>
			<point x="147" y="526"/>
			<point x="148" y="607"/>
			<point x="148" y="679" type="curve" smooth="yes"/>
			<point x="148" y="727" type="line"/>
			<point x="72" y="727" type="line"/>
		</contour>
		<contour>
			<point x="247" y="64" type="curve" smooth="yes"/>
			<point x="234" y="64"/>
			<point x="219" y="65"/>
			<point x="148" y="72" type="curve"/>
			<point x="148" y="330" type="line"/>
			<point x="157" y="400"/>
			<point x="219" y="443"/>
			<point x="282" y="443" type="curve" smooth="yes"/>
			<point x="374" y="443"/>
			<point x="422" y="351"/>
			<point x="422" y="250" type="curve" smooth="yes"/>
			<point x="422" y="141"/>
			<point x="367" y="64"/>
		</contour>
	</outline>
</glyph>
<glyph name="Hbar" format="2">
	<advance width="714"/>
	<unicode hex="0126"/>
	<outline>
		<contour>
			<point x="87" y="485" type="line"/>
			<point x="623" y="485" type="line"/>
			<point x="623" y="559" type="line"/>
			<point x="87" y="559" type="line"/>
		</contour>
		<component base="H" yOffset="11"/>
	</outline>
</glyph>
<glyph name="idotless" format="2">
	<advance width="252"/>
	<unicode hex="0131"/>
	<anchor x="227" y="21" name="ogonek"/>
	<anchor x="100" y="496" name="top"/>
	<outline>
		<contour>
			<point x="160" y="-10" type="curve" smooth="yes"/>
			<point x="197" y="-10"/>
			<point x="231" y="12"/>
			<point x="248" y="44" type="curve"/>
			<point x="182" y="87" type="line"/>
			<point x="177" y="70"/>
			<point x="170" y="66"/>
			<point x="160" y="66" type="curve" smooth="yes"/>
			<point x="150" y="66"/>
			<point x="138" y="76"/>
			<point x="138" y="89" type="curve" smooth="yes"/>
			<point x="138" y="508" type="line"/>
			<point x="61" y="508" type="line"/>
			<point x="61" y="89" type="line" smooth="yes"/>
			<point x="61" y="35"/>
			<point x="106" y="-10"/>
		</contour>
	</outline>
</glyph>
<glyph name="kgreenlandic" format="2">
	<advance width="568"/>
	<unicode hex="0138"/>
	<outline>
		<contour>
			<point x="66" y="0" type="line"/>
			<point x="142" y="0" type="line"/>
			<point x="142" y="194" type="line"/>
			<point x="289" y="194" type="line"/>
			<point x="379" y="47" type="line" smooth="yes"/>
			<point x="396" y="18"/>
			<point x="429" y="0"/>
			<point x="462" y="0" type="curve" smooth="yes"/>
			<point x="515" y="0"/>
			<point x="564" y="48"/>
			<point x="560" y="107" type="curve"/>
			<point x="495" y="110" type="line"/>
			<point x="483" y="98" type="line"/>
			<point x="483" y="89"/>
			<point x="475" y="79"/>
			<point x="462" y="79" type="curve" smooth="yes"/>
			<point x="455" y="79"/>
			<point x="451" y="81"/>
			<point x="446" y="85" type="curve"/>
			<point x="364" y="217" type="line"/>
			<point x="374" y="222"/>
			<point x="384" y="229"/>
			<point x="391" y="235" type="curve"/>
			<point x="436" y="270"/>
			<point x="451" y="323"/>
			<point x="451" y="364" type="curve" smooth="yes"/>
			<point x="451" y="453"/>
			<point x="385" y="516"/>
			<point x="286" y="516" type="curve" smooth="yes"/>
			<point x="225" y="516"/>
			<point x="177" y="493"/>
			<point x="142" y="449" type="curve"/>
			<point x="142" y="518" type="line"/>
			<point x="66" y="518" type="line"/>
		</contour>
		<contour>
			<point x="145" y="268" type="line"/>
			<point x="145" y="288"/>
			<point x="148" y="307"/>
			<point x="155" y="328" type="curve"/>
			<point x="175" y="398"/>
			<point x="222" y="446"/>
			<point x="284" y="446" type="curve" smooth="yes"/>
			<point x="333" y="446"/>
			<point x="377" y="417"/>
			<point x="377" y="362" type="curve" smooth="yes"/>
			<point x="377" y="307"/>
			<point x="331" y="268"/>
			<point x="245" y="268" type="curve" smooth="yes"/>
		</contour>
	</outline>
</glyph>
<glyph name="Lslash" format="1">
  <advance width="539"/>
  <unicode hex="0141"/>
  <outline>
    <contour>
      <point x="250" y="419" type="line"/>
      <point x="250" y="510" type="line"/>
      <point x="13" y="339" type="line"/>
      <point x="13" y="249" type="line"/>
    </contour>
    <component base="L" xOffset="44" yOffset="11"/>
  </outline>
</glyph>
<glyph name="lslash" format="1">
  <advance width="283"/>
  <unicode hex="0142"/>
  <outline>
    <contour>
      <point x="227" y="445" type="line"/>
      <point x="227" y="534" type="line"/>
      <point x="20" y="404" type="line"/>
      <point x="20" y="316" type="line"/>
    </contour>
    <component base="l" xOffset="25"/>
  </outline>
</glyph>
<glyph name="Eng" format="1">
  <advance width="795"/>
  <unicode hex="014A"/>
  <outline>
    <contour>
      <point x="660" y="-203"/>
      <point x="704" y="-157"/>
      <point x="704" y="-104" type="curve" smooth="yes"/>
      <point x="704" y="559" type="line"/>
      <point x="627" y="559" type="line"/>
      <point x="627" y="-104" type="line" smooth="yes"/>
      <point x="627" y="-116"/>
      <point x="618" y="-126"/>
      <point x="605" y="-126" type="curve" smooth="yes"/>
      <point x="593" y="-126"/>
      <point x="590" y="-122"/>
      <point x="581" y="-107" type="curve"/>
      <point x="517" y="-149" type="line"/>
      <point x="536" y="-184"/>
      <point x="569" y="-203"/>
      <point x="605" y="-203" type="curve" smooth="yes"/>
    </contour>
    <component base="N"/>
    <contour>
      <point x="934" y="496" type="move" name="top"/>
    </contour>
  </outline>
</glyph>
<glyph name="eng" format="2">
	<advance width="552"/>
	<unicode hex="014B"/>
	<outline>
		<contour>
			<point x="90" y="518" type="curve"/>
			<point x="39" y="468" type="line"/>
			<point x="74" y="440"/>
			<point x="84" y="401"/>
			<point x="84" y="354" type="curve"/>
			<point x="84" y="-1" type="line"/>
			<point x="164" y="-1" type="line"/>
			<point x="164" y="351" type="line"/>
			<point x="206" y="406"/>
			<point x="245" y="440"/>
			<point x="309" y="440" type="curve"/>
			<point x="383" y="440"/>
			<point x="403" y="399"/>
			<point x="403" y="337" type="curve"/>
			<point x="403" y="-29" type="line" smooth="yes"/>
			<point x="403" y="-40"/>
			<point x="391" y="-48"/>
			<point x="382" y="-48" type="curve"/>
			<point x="371" y="-48"/>
			<point x="366" y="-41"/>
			<point x="359" y="-30" type="curve"/>
			<point x="293" y="-73" type="line"/>
			<point x="312" y="-108"/>
			<point x="345" y="-129"/>
			<point x="383" y="-129" type="curve"/>
			<point x="439" y="-129"/>
			<point x="483" y="-80"/>
			<point x="483" y="-28" type="curve"/>
			<point x="483" y="363" type="line"/>
			<point x="478" y="461"/>
			<point x="418" y="517"/>
			<point x="314" y="517" type="curve"/>
			<point x="254" y="517"/>
			<point x="197" y="495"/>
			<point x="151" y="442" type="curve"/>
			<point x="141" y="472"/>
			<point x="121" y="500"/>
		</contour>
	</outline>
</glyph>
<glyph name="oe" format="1">
  <advance width="961"/>
  <unicode hex="0153"/>
  <outline>
    <contour>
      <point x="380" y="-10"/>
      <point x="456" y="25"/>
      <point x="501" y="101" type="curve"/>
      <point x="534" y="32"/>
      <point x="599" y="-10"/>
      <point x="695" y="-10" type="curve" smooth="yes"/>
      <point x="764" y="-10"/>
      <point x="831" y="11"/>
      <point x="889" y="55" type="curve"/>
      <point x="852" y="114" type="line"/>
      <point x="799" y="85"/>
      <point x="755" y="64"/>
      <point x="693" y="64" type="curve" smooth="yes"/>
      <point x="610" y="64"/>
      <point x="562" y="105"/>
      <point x="548" y="193" type="curve"/>
      <point x="648" y="193" type="line" smooth="yes"/>
      <point x="759" y="193"/>
      <point x="873" y="236"/>
      <point x="873" y="355" type="curve" smooth="yes"/>
      <point x="873" y="457"/>
      <point x="787" y="516"/>
      <point x="690" y="516" type="curve" smooth="yes"/>
      <point x="601" y="516"/>
      <point x="539" y="467"/>
      <point x="505" y="397" type="curve"/>
      <point x="463" y="472"/>
      <point x="389" y="516"/>
      <point x="297" y="516" type="curve" smooth="yes"/>
      <point x="147" y="516"/>
      <point x="43" y="401"/>
      <point x="43" y="251" type="curve" smooth="yes"/>
      <point x="43" y="101"/>
      <point x="147" y="-10"/>
      <point x="296" y="-10" type="curve" smooth="yes"/>
    </contour>
    <contour>
      <point x="188" y="64"/>
      <point x="122" y="143"/>
      <point x="122" y="254" type="curve" smooth="yes"/>
      <point x="122" y="364"/>
      <point x="188" y="442"/>
      <point x="296" y="442" type="curve" smooth="yes"/>
      <point x="402" y="442"/>
      <point x="470" y="368"/>
      <point x="470" y="256" type="curve" smooth="yes"/>
      <point x="470" y="146"/>
      <point x="405" y="64"/>
      <point x="295" y="64" type="curve" smooth="yes"/>
    </contour>
    <contour>
      <point x="548" y="354"/>
      <point x="600" y="445"/>
      <point x="693" y="445" type="curve" smooth="yes"/>
      <point x="743" y="445"/>
      <point x="795" y="419"/>
      <point x="795" y="356" type="curve" smooth="yes"/>
      <point x="795" y="292"/>
      <point x="738" y="267"/>
      <point x="648" y="267" type="curve" smooth="yes"/>
      <point x="544" y="267" type="line"/>
    </contour>
    <contour>
      <point x="479" y="11" type="move" name="top"/>
    </contour>
  </outline>
</glyph>
<glyph name="longs" format="1">
  <advance width="417"/>
  <unicode hex="017F"/>
  <outline>
    <contour>
      <point x="132" y="-253" type="line"/>
      <point x="132" y="495" type="line" smooth="yes"/>
      <point x="132" y="576"/>
      <point x="149" y="630"/>
      <point x="219" y="630" type="curve" smooth="yes"/>
      <point x="251" y="630"/>
      <point x="273" y="622"/>
      <point x="289" y="587" type="curve"/>
      <point x="347" y="645" type="line"/>
      <point x="319" y="686"/>
      <point x="273" y="704"/>
      <point x="217" y="704" type="curve" smooth="yes"/>
      <point x="84" y="704"/>
      <point x="56" y="609"/>
      <point x="56" y="459" type="curve" smooth="yes"/>
      <point x="56" y="-253" type="line"/>
    </contour>
  </outline>
</glyph>
<glyph name="Schwa" format="2">
	<advance width="692"/>
	<unicode hex="018F"/>
	<anchor x="77" y="629" name="ogonek"/>
	<anchor x="335" y="696" name="bottom"/>
	<anchor x="339" y="-14" name="top"/>
	<outline>
		<contour>
			<point x="333" y="712" type="curve"/>
			<point x="333" y="712" type="line"/>
			<point x="240" y="712"/>
			<point x="148" y="680"/>
			<point x="77" y="629" type="curve"/>
			<point x="114" y="569" type="line"/>
			<point x="193" y="612"/>
			<point x="252" y="636"/>
			<point x="328" y="636" type="curve"/>
			<point x="538" y="636"/>
			<point x="551" y="442"/>
			<point x="551" y="370" type="curve"/>
			<point x="551" y="162"/>
			<point x="452" y="59"/>
			<point x="333" y="59" type="curve"/>
			<point x="223" y="59"/>
			<point x="135" y="146"/>
			<point x="135" y="273" type="curve"/>
			<point x="135" y="296"/>
			<point x="138" y="328"/>
			<point x="146" y="377" type="curve"/>
			<point x="60" y="377" type="line"/>
			<point x="57" y="339"/>
			<point x="53" y="307"/>
			<point x="53" y="277" type="curve"/>
			<point x="53" y="106"/>
			<point x="175" y="-15"/>
			<point x="332" y="-15" type="curve"/>
			<point x="528" y="-15"/>
			<point x="634" y="169"/>
			<point x="634" y="369" type="curve"/>
			<point x="634" y="568"/>
			<point x="527" y="712"/>
		</contour>
		<contour>
			<point x="607" y="301" type="line"/>
			<point x="607" y="377" type="line"/>
			<point x="88" y="377" type="line"/>
			<point x="88" y="301" type="line"/>
		</contour>
	</outline>
</glyph>
<glyph name="florin" format="1">
  <advance width="517"/>
  <unicode hex="0192"/>
  <outline>
    <contour>
      <point x="151" y="-238"/>
      <point x="172" y="-235"/>
      <point x="190" y="-229" type="curve" smooth="yes"/>
      <point x="209" y="-223"/>
      <point x="226" y="-211"/>
      <point x="238" y="-198" type="curve" smooth="yes"/>
      <point x="251" y="-183"/>
      <point x="261" y="-163"/>
      <point x="268" y="-139" type="curve" smooth="yes"/>
      <point x="274" y="-116"/>
      <point x="277" y="-87"/>
      <point x="277" y="-53" type="curve" smooth="yes"/>
      <point x="277" y="347" type="line"/>
      <point x="444" y="347" type="line"/>
      <point x="444" y="423" type="line"/>
      <point x="277" y="423" type="line"/>
      <point x="277" y="497" type="line" smooth="yes"/>
      <point x="277" y="539"/>
      <point x="283" y="566"/>
      <point x="296" y="584" type="curve" smooth="yes"/>
      <point x="308" y="601"/>
      <point x="322" y="608"/>
      <point x="344" y="608" type="curve" smooth="yes"/>
      <point x="392" y="607" type="line" smooth="yes"/>
      <point x="415" y="606"/>
      <point x="438" y="606"/>
      <point x="460" y="606" type="curve"/>
      <point x="462" y="666" type="line"/>
      <point x="454" y="677" type="line"/>
      <point x="451" y="678"/>
      <point x="444" y="679"/>
      <point x="436" y="680" type="curve"/>
      <point x="406" y="682" type="line"/>
      <point x="369" y="684" type="line"/>
      <point x="336" y="684" type="line" smooth="yes"/>
      <point x="312" y="684"/>
      <point x="290" y="681"/>
      <point x="273" y="674" type="curve" smooth="yes"/>
      <point x="255" y="667"/>
      <point x="239" y="653"/>
      <point x="228" y="636" type="curve" smooth="yes"/>
      <point x="217" y="620"/>
      <point x="209" y="597"/>
      <point x="204" y="570" type="curve" smooth="yes"/>
      <point x="199" y="543"/>
      <point x="197" y="510"/>
      <point x="197" y="471" type="curve" smooth="yes"/>
      <point x="197" y="423" type="line"/>
      <point x="87" y="423" type="line"/>
      <point x="87" y="347" type="line"/>
      <point x="197" y="347" type="line"/>
      <point x="197" y="-53" type="line" smooth="yes"/>
      <point x="197" y="-97"/>
      <point x="190" y="-125"/>
      <point x="178" y="-142" type="curve"/>
      <point x="165" y="-157"/>
      <point x="150" y="-163"/>
      <point x="129" y="-163" type="curve" smooth="yes"/>
      <point x="87" y="-163" type="line"/>
      <point x="52" y="-160" type="line"/>
      <point x="52" y="-229" type="line"/>
      <point x="81" y="-235" type="line"/>
      <point x="94" y="-237"/>
      <point x="110" y="-238"/>
      <point x="129" y="-238" type="curve" smooth="yes"/>
    </contour>
  </outline>
</glyph>
<glyph name="Nhookleft" format="2">
	<advance width="767"/>
	<unicode hex="019D"/>
	<anchor x="891" y="496" name="top"/>
	<anchor x="257" y="0" name="bottom"/>
	<outline>
		<contour>
			<point x="54" y="-204" type="curve"/>
			<point x="54" y="-204" type="line"/>
			<point x="106" y="-204"/>
			<point x="184" y="-172"/>
			<point x="183" y="-86" type="curve"/>
			<point x="179" y="539" type="line"/>
			<point x="171" y="550" type="line"/>
			<point x="627" y="-1" type="line"/>
			<point x="670" y="-1" type="line"/>
			<point x="670" y="685" type="line"/>
			<point x="586" y="685" type="line"/>
			<point x="589" y="173" type="line"/>
			<point x="593" y="158" type="line"/>
			<point x="221" y="610" type="line"/>
			<point x="151" y="686" type="line"/>
			<point x="98" y="686" type="line"/>
			<point x="98" y="-86" type="line" smooth="yes"/>
			<point x="98" y="-106"/>
			<point x="79" y="-127"/>
			<point x="57" y="-127" type="curve"/>
			<point x="23" y="-127"/>
			<point x="13" y="-99"/>
			<point x="11" y="-85" type="curve"/>
			<point x="-63" y="-86" type="line"/>
			<point x="-63" y="-150"/>
			<point x="-15" y="-204"/>
		</contour>
	</outline>
</glyph>
<glyph name="Adotmacron" format="1">
  <advance width="754"/>
  <unicode hex="01E0"/>
  <outline>
    <component base="A"/>
    <component base="dotaccentcomb" xOffset="420" yOffset="184"/>
    <component base="macroncomb" xOffset="419" yOffset="384"/>
    <contour>
      <point x="-2" y="700" type="move" name="top"/>
    </contour>
  </outline>
</glyph>
<glyph name="jdotless" format="1">
  <advance width="218"/>
  <unicode hex="0237"/>
  <outline>
    <contour>
      <point x="104" y="-253"/>
      <point x="148" y="-207"/>
      <point x="148" y="-154" type="curve" smooth="yes"/>
      <point x="148" y="509" type="line"/>
      <point x="71" y="509" type="line"/>
      <point x="71" y="-154" type="line" smooth="yes"/>
      <point x="71" y="-166"/>
      <point x="62" y="-176"/>
      <point x="49" y="-176" type="curve" smooth="yes"/>
      <point x="37" y="-176"/>
      <point x="34" y="-172"/>
      <point x="25" y="-157" type="curve"/>
      <point x="-39" y="-199" type="line"/>
      <point x="-20" y="-234"/>
      <point x="13" y="-253"/>
      <point x="49" y="-253" type="curve" smooth="yes"/>
    </contour>
    <contour>
      <point x="109" y="496" type="move" name="top"/>
    </contour>
  </outline>
</glyph>
<glyph name="apostrophemod" format="2">
	<advance width="213"/>
	<unicode hex="02BC"/>
	<anchor x="117" y="603" name="_apostrophe"/>
	<outline>
		<contour>
			<point x="82" y="433" type="line"/>
			<point x="112" y="452"/>
			<point x="134" y="479"/>
			<point x="146" y="510" type="curve" smooth="yes"/>
			<point x="157" y="538"/>
			<point x="162" y="567"/>
			<point x="162" y="595" type="curve" smooth="yes"/>
			<point x="162" y="653" type="line" smooth="yes"/>
			<point x="162" y="679"/>
			<point x="144" y="697"/>
			<point x="120" y="697" type="curve" smooth="yes"/>
			<point x="95" y="697"/>
			<point x="77" y="676"/>
			<point x="77" y="653" type="curve" smooth="yes"/>
			<point x="77" y="595" type="line" smooth="yes"/>
			<point x="77" y="540"/>
			<point x="63" y="504"/>
			<point x="33" y="480" type="curve"/>
		</contour>
	</outline>
</glyph>
<glyph name="circumflex" format="1">
  <advance width="360"/>
  <unicode hex="02C6"/>
  <outline>
    <contour>
      <point x="107" y="566" type="line"/>
      <point x="180" y="647" type="line"/>
      <point x="253" y="566" type="line"/>
      <point x="349" y="566" type="line"/>
      <point x="209" y="727" type="line"/>
      <point x="151" y="727" type="line"/>
      <point x="11" y="566" type="line"/>
    </contour>
    <contour>
      <point x="180" y="496" type="move" name="_top"/>
    </contour>
  </outline>
</glyph>
<glyph name="caron" format="2">
	<advance width="381"/>
	<unicode hex="02C7"/>
	<anchor x="191" y="684" name="top"/>
	<anchor x="190" y="496" name="_top"/>
	<outline>
		<contour>
			<point x="21" y="718" type="line"/>
			<point x="161" y="567" type="line"/>
			<point x="219" y="567" type="line"/>
			<point x="360" y="718" type="line"/>
			<point x="263" y="718" type="line"/>
			<point x="190" y="637" type="line"/>
			<point x="117" y="718" type="line"/>
		</contour>
	</outline>
</glyph>
<glyph name="breve" format="1">
  <advance width="432"/>
  <unicode hex="02D8"/>
  <outline>
    <contour>
      <point x="295" y="544"/>
      <point x="352" y="601"/>
      <point x="351" y="700" type="curve"/>
      <point x="268" y="700" type="line"/>
      <point x="270" y="646"/>
      <point x="252" y="619"/>
      <point x="203" y="619" type="curve" smooth="yes"/>
      <point x="152" y="619"/>
      <point x="134" y="649"/>
      <point x="134" y="700" type="curve"/>
      <point x="52" y="700" type="line"/>
      <point x="50" y="611"/>
      <point x="102" y="544"/>
      <point x="202" y="544" type="curve" smooth="yes"/>
    </contour>
    <contour>
      <point x="202" y="496" type="move" name="_top"/>
    </contour>
  </outline>
</glyph>
<glyph name="ring" format="1">
  <advance width="335"/>
  <unicode hex="02DA"/>
  <outline>
    <contour>
      <point x="215" y="530"/>
      <point x="262" y="576"/>
      <point x="262" y="643" type="curve" smooth="yes"/>
      <point x="262" y="706"/>
      <point x="219" y="753"/>
      <point x="153" y="753" type="curve" smooth="yes"/>
      <point x="86" y="753"/>
      <point x="43" y="705"/>
      <point x="43" y="641" type="curve" smooth="yes"/>
      <point x="43" y="577"/>
      <point x="85" y="530"/>
      <point x="151" y="530" type="curve" smooth="yes"/>
    </contour>
    <contour>
      <point x="130" y="595"/>
      <point x="114" y="611"/>
      <point x="114" y="641" type="curve" smooth="yes"/>
      <point x="114" y="669"/>
      <point x="128" y="687"/>
      <point x="153" y="687" type="curve" smooth="yes"/>
      <point x="177" y="687"/>
      <point x="193" y="670"/>
      <point x="193" y="643" type="curve" smooth="yes"/>
      <point x="193" y="615"/>
      <point x="176" y="595"/>
      <point x="152" y="595" type="curve" smooth="yes"/>
    </contour>
    <contour>
      <point x="153" y="496" type="move" name="_top"/>
    </contour>
  </outline>
</glyph>
<glyph name="ogonek" format="1">
  <advance width="291"/>
  <unicode hex="02DB"/>
  <outline>
    <contour>
      <point x="169" y="-198"/>
      <point x="215" y="-184"/>
      <point x="238" y="-161" type="curve"/>
      <point x="203" y="-97" type="line"/>
      <point x="176" y="-121"/>
      <point x="159" y="-124"/>
      <point x="150" y="-124" type="curve" smooth="yes"/>
      <point x="136" y="-124"/>
      <point x="120" y="-117"/>
      <point x="120" y="-97" type="curve" smooth="yes"/>
      <point x="120" y="-73"/>
      <point x="141" y="-51"/>
      <point x="209" y="21" type="curve"/>
      <point x="126" y="30" type="line"/>
      <point x="74" y="-19"/>
      <point x="41" y="-50"/>
      <point x="41" y="-100" type="curve" smooth="yes"/>
      <point x="41" y="-154"/>
      <point x="81" y="-198"/>
      <point x="136" y="-198" type="curve" smooth="yes"/>
    </contour>
    <contour>
      <point x="197" y="30" type="move" name="_ogonek"/>
    </contour>
  </outline>
</glyph>
<glyph name="tilde" format="1">
  <advance width="517"/>
  <unicode hex="02DC"/>
  <outline>
    <contour>
      <point x="144" y="622"/>
      <point x="159" y="626"/>
      <point x="181" y="626" type="curve" smooth="yes"/>
      <point x="189" y="626"/>
      <point x="277" y="594"/>
      <point x="314" y="594" type="curve" smooth="yes"/>
      <point x="375" y="594"/>
      <point x="398" y="615"/>
      <point x="436" y="646" type="curve"/>
      <point x="388" y="704" type="line"/>
      <point x="362" y="682"/>
      <point x="342" y="667"/>
      <point x="316" y="667" type="curve" smooth="yes"/>
      <point x="278" y="667"/>
      <point x="242" y="701"/>
      <point x="180" y="701" type="curve" smooth="yes"/>
      <point x="149" y="701"/>
      <point x="110" y="691"/>
      <point x="60" y="647" type="curve"/>
      <point x="107" y="589" type="line"/>
    </contour>
    <contour>
      <point x="248" y="496" type="move" name="_top"/>
    </contour>
  </outline>
</glyph>
<glyph name="hungarumlaut" format="2">
	<advance width="436"/>
	<unicode hex="02DD"/>
	<anchor x="164" y="496" name="_top"/>
	<outline>
		<contour>
			<point x="253" y="565" type="line"/>
			<point x="420" y="701" type="line"/>
			<point x="363" y="753" type="line"/>
			<point x="198" y="616" type="line"/>
		</contour>
		<contour>
			<point x="69" y="565" type="line"/>
			<point x="234" y="701" type="line"/>
			<point x="180" y="753" type="line"/>
			<point x="14" y="616" type="line"/>
		</contour>
	</outline>
</glyph>
<glyph name="hookabovecomb" format="1">
  <advance width="0"/>
  <unicode hex="0309"/>
  <outline>
    <contour>
      <point x="72" y="622"/>
      <point x="101" y="655"/>
      <point x="101" y="699" type="curve" smooth="yes"/>
      <point x="101" y="756"/>
      <point x="60" y="799"/>
      <point x="6" y="799" type="curve" smooth="yes"/>
      <point x="-27" y="799"/>
      <point x="-78" y="781"/>
      <point x="-101" y="754" type="curve"/>
      <point x="-61" y="693" type="line"/>
      <point x="-32" y="723"/>
      <point x="-14" y="724"/>
      <point x="-6" y="724" type="curve" smooth="yes"/>
      <point x="7" y="724"/>
      <point x="22" y="718"/>
      <point x="22" y="697" type="curve" smooth="yes"/>
      <point x="22" y="674"/>
      <point x="2" y="649"/>
      <point x="-56" y="575" type="curve"/>
      <point x="27" y="573" type="line"/>
    </contour>
    <contour>
      <point x="2" y="500" type="move" name="_top"/>
    </contour>
  </outline>
</glyph>
<glyph name="commaaccentcomb" format="2">
	<advance width="0"/>
	<unicode hex="0326"/>
	<anchor x="22" y="11" name="_bottom"/>
	<outline>
		<contour>
			<point x="-65" y="-277" type="line"/>
			<point x="11" y="-277" type="line"/>
			<point x="65" y="-53" type="line"/>
			<point x="-21" y="-53" type="line"/>
		</contour>
	</outline>
</glyph>
<glyph name="strokelongcomb" format="2">
	<advance width="0"/>
	<unicode hex="0336"/>
	<anchor x="-293" y="260" name="_center"/>
	<outline>
		<contour>
			<point x="-513" y="299" type="line"/>
			<point x="-513" y="223" type="line"/>
			<point x="-75" y="223" type="line"/>
			<point x="-75" y="299" type="line"/>
		</contour>
	</outline>
</glyph>
<glyph name="slashlongcomb" format="2">
	<advance width="0"/>
	<unicode hex="0338"/>
	<anchor x="-188" y="337" name="_center"/>
	<outline>
		<contour>
			<point x="-82" y="682" type="line"/>
			<point x="-390" y="-53" type="line"/>
			<point x="-309" y="-53" type="line"/>
			<point x="-3" y="682" type="line"/>
		</contour>
	</outline>
</glyph>
<glyph name="dialytikatonoscomb" format="1">
  <advance width="0"/>
  <unicode hex="0344"/>
  <outline>
    <component base="acutecomb" xOffset="95" yOffset="170"/>
    <component base="dieresiscomb" xOffset="-13" yOffset="11"/>
    <contour>
      <point x="-16" y="884" type="move" name="top"/>
    </contour>
    <contour>
      <point x="1" y="526" type="move" name="_top"/>
    </contour>
  </outline>
</glyph>
<glyph name="pi" format="1">
  <advance width="628"/>
  <unicode hex="03C0"/>
  <outline>
    <contour>
      <point x="215" y="-1" type="line"/>
      <point x="240" y="425" type="line"/>
      <point x="378" y="425" type="line"/>
      <point x="378" y="165" type="line" smooth="yes"/>
      <point x="378" y="134"/>
      <point x="381" y="107"/>
      <point x="386" y="86" type="curve" smooth="yes"/>
      <point x="391" y="64"/>
      <point x="402" y="46"/>
      <point x="415" y="33" type="curve"/>
      <point x="428" y="21"/>
      <point x="447" y="11"/>
      <point x="467" y="7" type="curve"/>
      <point x="490" y="1"/>
      <point x="520" y="-1"/>
      <point x="554" y="0" type="curve"/>
      <point x="551" y="81" type="line"/>
      <point x="529" y="81"/>
      <point x="512" y="82"/>
      <point x="498" y="84" type="curve"/>
      <point x="487" y="86"/>
      <point x="481" y="89"/>
      <point x="476" y="95" type="curve"/>
      <point x="470" y="101"/>
      <point x="467" y="108"/>
      <point x="464" y="119" type="curve"/>
      <point x="462" y="130"/>
      <point x="460" y="145"/>
      <point x="460" y="165" type="curve" smooth="yes"/>
      <point x="460" y="428" type="line"/>
      <point x="481" y="429"/>
      <point x="499" y="431"/>
      <point x="512" y="435" type="curve" smooth="yes"/>
      <point x="530" y="441"/>
      <point x="544" y="446"/>
      <point x="551" y="452" type="curve"/>
      <point x="556" y="534" type="line"/>
      <point x="527" y="522"/>
      <point x="498" y="515"/>
      <point x="467" y="512" type="curve" smooth="yes"/>
      <point x="441" y="509"/>
      <point x="419" y="508"/>
      <point x="398" y="508" type="curve" smooth="yes"/>
      <point x="201" y="508" type="line"/>
      <point x="148" y="505" type="line"/>
      <point x="99" y="501" type="line" smooth="yes"/>
      <point x="78" y="499"/>
      <point x="58" y="496"/>
      <point x="40" y="492" type="curve"/>
      <point x="40" y="406" type="line"/>
      <point x="84" y="416" type="line" smooth="yes"/>
      <point x="94" y="418"/>
      <point x="105" y="419"/>
      <point x="120" y="421" type="curve"/>
      <point x="158" y="424" type="line"/>
      <point x="133" y="-1" type="line"/>
    </contour>
  </outline>
</glyph>
<glyph name="De-cy" format="2">
	<advance width="753"/>
	<unicode hex="0414"/>
	<outline>
		<contour>
			<point x="720" y="-150" type="line"/>
			<point x="720" y="76" type="line"/>
			<point x="629" y="76" type="line"/>
			<point x="629" y="683" type="line"/>
			<point x="294" y="683" type="line"/>
			<point x="294" y="491"/>
			<point x="205" y="265"/>
			<point x="95" y="76" type="curve"/>
			<point x="33" y="76" type="line"/>
			<point x="34" y="-150" type="line"/>
			<point x="116" y="-150" type="line"/>
			<point x="116" y="0" type="line"/>
			<point x="638" y="0" type="line"/>
			<point x="638" y="-150" type="line"/>
		</contour>
		<contour>
			<point x="364" y="607" type="curve"/>
			<point x="364" y="607" type="line"/>
			<point x="547" y="607" type="line"/>
			<point x="547" y="76" type="line"/>
			<point x="183" y="76" type="line"/>
			<point x="296" y="276"/>
			<point x="339" y="402"/>
		</contour>
	</outline>
</glyph>
<glyph name="Zhe-cy" format="2">
	<advance width="917"/>
	<unicode hex="0416"/>
	<anchor x="459" y="684" name="top"/>
	<anchor x="904" y="0" name="bottomright"/>
	<outline>
		<contour>
			<point x="416" y="331" type="curve"/>
			<point x="416" y="0" type="line"/>
			<point x="498" y="0" type="line"/>
			<point x="498" y="331" type="line"/>
			<point x="576" y="331" type="line" smooth="yes"/>
			<point x="603" y="331"/>
			<point x="639" y="311"/>
			<point x="661" y="292" type="curve"/>
			<point x="699" y="259"/>
			<point x="719" y="216"/>
			<point x="741" y="139" type="curve"/>
			<point x="756" y="88"/>
			<point x="788" y="10"/>
			<point x="841" y="-13" type="curve"/>
			<point x="877" y="46" type="line"/>
			<point x="846" y="60"/>
			<point x="821" y="137"/>
			<point x="799" y="202" type="curve"/>
			<point x="792" y="223"/>
			<point x="777" y="268"/>
			<point x="768" y="283" type="curve"/>
			<point x="748" y="319"/>
			<point x="717" y="349"/>
			<point x="682" y="371" type="curve"/>
			<point x="713" y="395"/>
			<point x="729" y="420"/>
			<point x="742" y="456" type="curve"/>
			<point x="760" y="506"/>
			<point x="763" y="625"/>
			<point x="802" y="625" type="curve"/>
			<point x="814" y="625"/>
			<point x="830" y="619"/>
			<point x="838" y="615" type="curve"/>
			<point x="875" y="681" type="line"/>
			<point x="855" y="692"/>
			<point x="829" y="700"/>
			<point x="804" y="700" type="curve"/>
			<point x="769" y="700"/>
			<point x="747" y="688"/>
			<point x="731" y="669" type="curve"/>
			<point x="710" y="643"/>
			<point x="701" y="603"/>
			<point x="691" y="558" type="curve"/>
			<point x="684" y="528"/>
			<point x="677" y="492"/>
			<point x="663" y="464" type="curve"/>
			<point x="635" y="410"/>
			<point x="589" y="407"/>
			<point x="498" y="407" type="curve"/>
			<point x="498" y="684" type="line"/>
			<point x="416" y="684" type="line"/>
			<point x="416" y="407" type="line"/>
			<point x="370" y="407"/>
			<point x="336" y="410"/>
			<point x="311" y="417" type="curve"/>
			<point x="253" y="434"/>
			<point x="245" y="477"/>
			<point x="225" y="563" type="curve"/>
			<point x="208" y="638"/>
			<point x="191" y="701"/>
			<point x="115" y="701" type="curve"/>
			<point x="89" y="701"/>
			<point x="63" y="693"/>
			<point x="42" y="681" type="curve"/>
			<point x="78" y="615" type="line"/>
			<point x="88" y="619"/>
			<point x="102" y="624"/>
			<point x="114" y="624" type="curve"/>
			<point x="136" y="624"/>
			<point x="142" y="592"/>
			<point x="151" y="548" type="curve"/>
			<point x="156" y="521"/>
			<point x="162" y="490"/>
			<point x="174" y="459" type="curve"/>
			<point x="186" y="427"/>
			<point x="204" y="395"/>
			<point x="234" y="371" type="curve"/>
			<point x="154" y="320"/>
			<point x="135" y="261"/>
			<point x="114" y="193" type="curve"/>
			<point x="98" y="142"/>
			<point x="69" y="59"/>
			<point x="39" y="46" type="curve"/>
			<point x="78" y="-14" type="line"/>
			<point x="141" y="14"/>
			<point x="166" y="104"/>
			<point x="191" y="181" type="curve"/>
			<point x="222" y="279"/>
			<point x="267" y="331"/>
			<point x="372" y="331" type="curve"/>
			<point x="387" y="331"/>
			<point x="401" y="331"/>
		</contour>
	</outline>
</glyph>
<glyph name="Ze-cy" format="2">
	<advance width="588"/>
	<unicode hex="0417"/>
	<anchor x="292" y="684" name="top"/>
	<anchor x="292" y="0" name="bottom"/>
	<outline>
		<contour>
			<point x="272" y="-15" type="curve"/>
			<point x="272" y="-15" type="line"/>
			<point x="431" y="-15"/>
			<point x="535" y="76"/>
			<point x="535" y="200" type="curve"/>
			<point x="535" y="285"/>
			<point x="486" y="366"/>
			<point x="419" y="393" type="curve"/>
			<point x="472" y="419"/>
			<point x="500" y="478"/>
			<point x="500" y="536" type="curve"/>
			<point x="500" y="637"/>
			<point x="413" y="697"/>
			<point x="275" y="697" type="curve"/>
			<point x="193" y="697"/>
			<point x="121" y="674"/>
			<point x="67" y="635" type="curve"/>
			<point x="96" y="565" type="line"/>
			<point x="126" y="588"/>
			<point x="200" y="621"/>
			<point x="276" y="621" type="curve"/>
			<point x="360" y="621"/>
			<point x="418" y="582"/>
			<point x="418" y="524" type="curve"/>
			<point x="418" y="478"/>
			<point x="382" y="424"/>
			<point x="302" y="423" type="curve"/>
			<point x="155" y="422" type="line"/>
			<point x="155" y="344" type="line"/>
			<point x="303" y="343" type="line"/>
			<point x="394" y="341"/>
			<point x="453" y="284"/>
			<point x="453" y="206" type="curve"/>
			<point x="453" y="128"/>
			<point x="394" y="61"/>
			<point x="271" y="61" type="curve"/>
			<point x="190" y="61"/>
			<point x="110" y="90"/>
			<point x="69" y="129" type="curve"/>
			<point x="34" y="61" type="line"/>
			<point x="91" y="12"/>
			<point x="185" y="-15"/>
		</contour>
	</outline>
</glyph>
<glyph name="Ka-cy" format="2">
	<advance width="668"/>
	<unicode hex="041A"/>
	<anchor x="336" y="684" name="top"/>
	<anchor x="654" y="0" name="bottomright"/>
	<outline>
		<contour>
			<point x="97" y="686" type="line"/>
			<point x="97" y="-2" type="line"/>
			<point x="179" y="-2" type="line"/>
			<point x="179" y="318" type="line"/>
			<point x="263" y="318" type="line" smooth="yes"/>
			<point x="322" y="318"/>
			<point x="383" y="281"/>
			<point x="415" y="235" type="curve"/>
			<point x="447" y="189"/>
			<point x="487" y="15"/>
			<point x="590" y="-20" type="curve"/>
			<point x="615" y="52" type="line"/>
			<point x="571" y="67"/>
			<point x="534" y="158"/>
			<point x="516" y="200" type="curve"/>
			<point x="497" y="244"/>
			<point x="478" y="309"/>
			<point x="385" y="360" type="curve"/>
			<point x="435" y="394"/>
			<point x="458" y="440"/>
			<point x="473" y="486" type="curve"/>
			<point x="490" y="537"/>
			<point x="496" y="589"/>
			<point x="515" y="611" type="curve"/>
			<point x="521" y="618"/>
			<point x="532" y="620"/>
			<point x="545" y="620" type="curve"/>
			<point x="564" y="620"/>
			<point x="587" y="614"/>
			<point x="600" y="609" type="curve"/>
			<point x="631" y="678" type="line"/>
			<point x="606" y="689"/>
			<point x="576" y="696"/>
			<point x="548" y="696" type="curve"/>
			<point x="513" y="696"/>
			<point x="480" y="685"/>
			<point x="458" y="660" type="curve"/>
			<point x="411" y="606"/>
			<point x="413" y="485"/>
			<point x="361" y="438" type="curve"/>
			<point x="319" y="400"/>
			<point x="281" y="394"/>
			<point x="179" y="394" type="curve"/>
			<point x="179" y="686" type="line"/>
		</contour>
	</outline>
</glyph>
<glyph name="El-cy" format="2">
	<advance width="723"/>
	<unicode hex="041B"/>
	<outline>
		<contour>
			<point x="122" y="-17" type="curve"/>
			<point x="122" y="-17" type="line"/>
			<point x="177" y="-17"/>
			<point x="235" y="23"/>
			<point x="254" y="136" type="curve"/>
			<point x="276" y="264"/>
			<point x="283" y="478"/>
			<point x="284" y="608" type="curve"/>
			<point x="544" y="608" type="line"/>
			<point x="544" y="-1" type="line"/>
			<point x="626" y="-1" type="line"/>
			<point x="626" y="684" type="line"/>
			<point x="208" y="684" type="line"/>
			<point x="208" y="641"/>
			<point x="208" y="464"/>
			<point x="197" y="310" type="curve"/>
			<point x="192" y="240"/>
			<point x="184" y="175"/>
			<point x="173" y="129" type="curve"/>
			<point x="163" y="88"/>
			<point x="153" y="61"/>
			<point x="120" y="61" type="curve"/>
			<point x="108" y="61"/>
			<point x="94" y="65"/>
			<point x="85" y="77" type="curve"/>
			<point x="26" y="29" type="line"/>
			<point x="47" y="2"/>
			<point x="84" y="-17"/>
		</contour>
	</outline>
</glyph>
<glyph name="Pe-cy" format="2">
	<advance width="703"/>
	<unicode hex="041F"/>
	<anchor x="685" y="0" name="bottomright"/>
	<outline>
		<contour>
			<point x="97" y="686" type="line"/>
			<point x="97" y="0" type="line"/>
			<point x="179" y="0" type="line"/>
			<point x="179" y="610" type="line"/>
			<point x="524" y="610" type="line"/>
			<point x="524" y="0" type="line"/>
			<point x="606" y="0" type="line"/>
			<point x="606" y="686" type="line"/>
		</contour>
	</outline>
</glyph>
<glyph name="U-cy" format="2">
	<advance width="682"/>
	<unicode hex="0423"/>
	<anchor x="323" y="684" name="top"/>
	<outline>
		<contour>
			<point x="210" y="-15" type="curve"/>
			<point x="210" y="-15" type="line"/>
			<point x="219" y="-15"/>
			<point x="232" y="-14"/>
			<point x="248" y="-11" type="curve"/>
			<point x="294" y="-3"/>
			<point x="327" y="28"/>
			<point x="353" y="64" type="curve"/>
			<point x="391" y="117"/>
			<point x="375" y="91"/>
			<point x="651" y="684" type="curve"/>
			<point x="563" y="684" type="line"/>
			<point x="380" y="289" type="line"/>
			<point x="200" y="641" type="line"/>
			<point x="172" y="696"/>
			<point x="121" y="716"/>
			<point x="72" y="691" type="curve"/>
			<point x="48" y="679"/>
			<point x="35" y="664"/>
			<point x="27" y="648" type="curve"/>
			<point x="87" y="610" type="line"/>
			<point x="89" y="614"/>
			<point x="92" y="617"/>
			<point x="97" y="619" type="curve"/>
			<point x="109" y="626"/>
			<point x="120" y="621"/>
			<point x="128" y="605" type="curve"/>
			<point x="128" y="605" type="line"/>
			<point x="339" y="200" type="line"/>
			<point x="306" y="129"/>
			<point x="274" y="64"/>
			<point x="211" y="64" type="curve"/>
			<point x="186" y="64"/>
			<point x="157" y="73"/>
			<point x="136" y="82" type="curve"/>
			<point x="103" y="11" type="line"/>
			<point x="135" y="-3"/>
			<point x="173" y="-15"/>
		</contour>
	</outline>
</glyph>
<glyph name="Tse-cy" format="2">
	<advance width="765"/>
	<unicode hex="0426"/>
	<outline>
		<contour>
			<point x="650" y="-2" type="line"/>
			<point x="650" y="-160" type="line"/>
			<point x="732" y="-160" type="line"/>
			<point x="733" y="74" type="line"/>
			<point x="637" y="74" type="line"/>
			<point x="637" y="684" type="line"/>
			<point x="555" y="684" type="line"/>
			<point x="555" y="74" type="line"/>
			<point x="211" y="74" type="line"/>
			<point x="211" y="569" type="line"/>
			<point x="211" y="588" type="line"/>
			<point x="211" y="653"/>
			<point x="172" y="701"/>
			<point x="99" y="701" type="curve"/>
			<point x="46" y="701"/>
			<point x="17" y="672"/>
			<point x="6" y="650" type="curve"/>
			<point x="61" y="609" type="line"/>
			<point x="66" y="617"/>
			<point x="74" y="626"/>
			<point x="96" y="626" type="curve"/>
			<point x="120" y="626"/>
			<point x="129" y="606"/>
			<point x="129" y="588" type="curve"/>
			<point x="129" y="569" type="line"/>
			<point x="129" y="569" type="line"/>
			<point x="130" y="-1" type="line"/>
		</contour>
	</outline>
</glyph>
<glyph name="Che-cy" format="2">
	<advance width="704"/>
	<unicode hex="0427"/>
	<anchor x="347" y="684" name="top"/>
	<anchor x="686" y="0" name="bottomright"/>
	<outline>
		<contour>
			<point x="525" y="325" type="curve"/>
			<point x="525" y="0" type="line"/>
			<point x="607" y="0" type="line"/>
			<point x="607" y="684" type="line"/>
			<point x="525" y="684" type="line"/>
			<point x="525" y="416" type="line"/>
			<point x="472" y="338"/>
			<point x="419" y="308"/>
			<point x="342" y="308" type="curve"/>
			<point x="251" y="308"/>
			<point x="208" y="349"/>
			<point x="208" y="455" type="curve"/>
			<point x="208" y="478"/>
			<point x="210" y="508"/>
			<point x="210" y="570" type="curve"/>
			<point x="210" y="589" type="line"/>
			<point x="211" y="654"/>
			<point x="173" y="702"/>
			<point x="100" y="703" type="curve"/>
			<point x="47" y="704"/>
			<point x="17" y="675"/>
			<point x="6" y="653" type="curve"/>
			<point x="60" y="612" type="line"/>
			<point x="66" y="620"/>
			<point x="74" y="629"/>
			<point x="96" y="628" type="curve"/>
			<point x="120" y="628"/>
			<point x="128" y="608"/>
			<point x="128" y="590" type="curve"/>
			<point x="128" y="571" type="line"/>
			<point x="128" y="571" type="line"/>
			<point x="128" y="569"/>
			<point x="126" y="463"/>
			<point x="126" y="455" type="curve"/>
			<point x="126" y="299"/>
			<point x="207" y="232"/>
			<point x="328" y="232" type="curve"/>
			<point x="415" y="232"/>
			<point x="484" y="266"/>
		</contour>
	</outline>
</glyph>
<glyph name="Sha-cy" format="2">
	<advance width="1020"/>
	<unicode hex="0428"/>
	<anchor x="924" y="0" name="tail"/>
	<outline>
		<contour>
			<point x="129" y="0" type="line"/>
			<point x="924" y="0" type="line"/>
			<point x="923" y="685" type="line"/>
			<point x="841" y="685" type="line"/>
			<point x="841" y="76" type="line"/>
			<point x="567" y="76" type="line"/>
			<point x="567" y="685" type="line"/>
			<point x="485" y="685" type="line"/>
			<point x="485" y="76" type="line"/>
			<point x="211" y="76" type="line"/>
			<point x="211" y="569" type="line"/>
			<point x="211" y="588" type="line"/>
			<point x="211" y="653"/>
			<point x="172" y="701"/>
			<point x="99" y="701" type="curve"/>
			<point x="46" y="701"/>
			<point x="17" y="672"/>
			<point x="6" y="650" type="curve"/>
			<point x="61" y="609" type="line"/>
			<point x="66" y="617"/>
			<point x="74" y="626"/>
			<point x="96" y="626" type="curve"/>
			<point x="120" y="626"/>
			<point x="129" y="606"/>
			<point x="129" y="588" type="curve"/>
			<point x="129" y="569" type="line"/>
			<point x="128" y="569" type="line"/>
		</contour>
	</outline>
</glyph>
<glyph name="Hardsign-cy" format="2">
	<advance width="686"/>
	<unicode hex="042A"/>
	<anchor x="343" y="684" name="top"/>
	<outline>
		<contour>
			<point x="33" y="609" type="line"/>
			<point x="270" y="609" type="line"/>
			<point x="270" y="687" type="line"/>
			<point x="33" y="687" type="line"/>
		</contour>
		<component base="Softsign-cy" xOffset="102"/>
	</outline>
</glyph>
<glyph name="Softsign-cy" format="2">
	<advance width="584"/>
	<unicode hex="042C"/>
	<outline>
		<contour>
			<point x="301" y="401" type="curve"/>
			<point x="301" y="401" type="line"/>
			<point x="137" y="401" type="line"/>
			<point x="137" y="325" type="line"/>
			<point x="309" y="325" type="line" smooth="yes"/>
			<point x="408" y="325"/>
			<point x="459" y="267"/>
			<point x="459" y="191" type="curve"/>
			<point x="459" y="109"/>
			<point x="398" y="66"/>
			<point x="296" y="66" type="curve"/>
			<point x="276" y="66"/>
			<point x="250" y="67"/>
			<point x="231" y="68" type="curve"/>
			<point x="179" y="71" type="line"/>
			<point x="179" y="683" type="line"/>
			<point x="97" y="683" type="line"/>
			<point x="97" y="2" type="line"/>
			<point x="158" y="-5" type="line" smooth="yes"/>
			<point x="193" y="-9"/>
			<point x="257" y="-10"/>
			<point x="286" y="-10" type="curve"/>
			<point x="336" y="-10"/>
			<point x="372" y="-6"/>
			<point x="403" y="4" type="curve"/>
			<point x="494" y="33"/>
			<point x="541" y="111"/>
			<point x="541" y="191" type="curve"/>
			<point x="541" y="318"/>
			<point x="431" y="401"/>
		</contour>
	</outline>
</glyph>
